<svg width="25" height="25" viewBox="0 0 25 25" fill="none" xmlns="http://www.w3.org/2000/svg">
<path d="M22.9503 17.9721C22.7056 17.7115 21.8417 16.9408 20.2536 15.9213C18.6537 14.8929 17.4739 14.2516 17.1354 14.1021C17.1056 14.0889 17.0727 14.084 17.0404 14.088C17.008 14.0921 16.9773 14.1049 16.9517 14.1251C16.4065 14.5502 15.4887 15.3311 15.4395 15.3733C15.1217 15.6457 15.1217 15.6457 14.8615 15.5608C14.404 15.4108 12.9828 14.6561 11.7443 13.4149C10.5059 12.1736 9.71231 10.7172 9.56231 10.2602C9.47653 9.99958 9.47653 9.99958 9.74981 9.68177C9.792 9.63255 10.5734 8.71474 10.9986 8.17005C11.0187 8.1444 11.0315 8.11374 11.0356 8.08137C11.0396 8.04899 11.0348 8.01612 11.0215 7.9863C10.872 7.64739 10.2307 6.46802 9.20231 4.86817C8.18137 3.28052 7.41168 2.41661 7.15106 2.17192C7.12714 2.14936 7.09758 2.13365 7.06549 2.12648C7.0334 2.1193 6.99997 2.12091 6.96872 2.13114C6.05769 2.44421 5.17869 2.84369 4.34372 3.32411C3.53766 3.79269 2.77455 4.3315 2.06325 4.93427C2.03842 4.95538 2.0198 4.98285 2.0094 5.01373C1.99899 5.04462 1.99719 5.07775 2.00418 5.10958C2.10215 5.56614 2.57043 7.47208 4.02356 10.1121C5.50622 12.8065 6.53372 14.1869 8.71106 16.3568C10.8884 18.5266 12.3125 19.616 15.0097 21.0986C17.6497 22.5518 19.5565 23.0205 20.0122 23.1176C20.0441 23.1245 20.0772 23.1227 20.1082 23.1123C20.1391 23.1019 20.1667 23.0833 20.1879 23.0585C20.7906 22.3472 21.3293 21.5841 21.7976 20.778C22.278 19.943 22.6774 19.064 22.9906 18.153C23.0006 18.122 23.0022 18.0889 22.9951 18.0571C22.988 18.0253 22.9725 17.9959 22.9503 17.9721V17.9721Z" fill="#666666"/>
</svg>
