<svg width="153" height="49" viewBox="0 0 153 49" fill="none" xmlns="http://www.w3.org/2000/svg">
<g clip-path="url(#clip0_1498_6518)">
<path d="M53.9695 31.5774V18.2628C53.9695 18.1018 54.0385 17.9638 54.1535 17.8488C54.2914 17.7339 54.4524 17.6649 54.6364 17.6879H58.3847C59.4885 17.6419 60.5923 18.0098 61.4432 18.7227C62.202 19.4126 62.593 20.4934 62.593 21.9651V22.1491C62.593 23.6208 62.202 24.7246 61.4202 25.4145C60.5463 26.1274 59.4425 26.5183 58.3157 26.4493H55.6482V31.5774C55.6482 31.7613 55.5562 31.9223 55.3953 32.0143C55.0273 32.2213 54.5904 32.2213 54.2225 32.0143C54.0615 31.9223 53.9695 31.7613 53.9695 31.5774ZM55.6252 25.0695H58.3157C59.0286 25.1155 59.7415 24.8626 60.2474 24.3567C60.7533 23.7818 61.0062 23.0229 60.9373 22.2411V22.0111C61.0062 21.2522 60.7533 20.4934 60.2474 19.8955C59.7185 19.4126 59.0286 19.1596 58.3157 19.2056H55.6482L55.6252 25.0695Z" fill="#FF6C37"/>
<path d="M68.3879 27.9671V22.0111C68.3879 20.5164 68.7789 19.4356 69.5377 18.7457C71.3774 17.366 73.9069 17.366 75.7466 18.7457C76.5285 19.4356 76.9194 20.5394 76.9194 22.0111V27.9671C76.9194 29.4618 76.5285 30.5426 75.7466 31.2325C73.9069 32.6352 71.3774 32.6352 69.5377 31.2325C68.7789 30.5426 68.3879 29.4618 68.3879 27.9671ZM70.0666 27.9671C70.0666 29.8297 70.9175 30.7726 72.6652 30.7726C73.378 30.8186 74.0679 30.5656 74.5968 30.0827C75.1027 29.5078 75.3327 28.7489 75.2867 27.9671V21.9881C75.3557 21.2293 75.1027 20.4704 74.5968 19.8725C74.0679 19.3896 73.378 19.1367 72.6652 19.1826C70.9405 19.1826 70.0896 20.1025 70.0896 21.9881L70.0666 27.9671Z" fill="#FF6C37"/>
<path d="M82.8064 30.1286C82.8064 29.8987 82.8983 29.6917 83.0363 29.5077C83.1513 29.3468 83.3123 29.2318 83.5192 29.2088C83.7032 29.2318 83.8642 29.3238 83.9791 29.4617C84.1631 29.6227 84.3471 29.8067 84.554 30.0137C84.83 30.2666 85.1519 30.4506 85.4969 30.5655C85.9568 30.7495 86.4627 30.8185 86.9456 30.8185C87.6815 30.8645 88.3944 30.6345 88.9693 30.1976C89.4752 29.7377 89.7511 29.0478 89.7051 28.3579C89.7281 27.6911 89.4982 27.0702 89.0382 26.5873C88.5783 26.1273 88.0264 25.7824 87.4055 25.5525C86.7616 25.3225 86.1408 25.0695 85.4739 24.7936C84.83 24.5176 84.2781 24.1037 83.8412 23.5518C83.3813 22.9309 83.1283 22.1721 83.1743 21.3902C83.1513 20.7693 83.2893 20.1484 83.5652 19.5735C83.7952 19.0906 84.1631 18.6997 84.623 18.4237C85.06 18.1708 85.5199 17.9868 86.0028 17.8488C86.5087 17.7339 87.0146 17.6649 87.5205 17.6649C88.3254 17.6649 89.1072 17.7799 89.8661 18.0098C90.602 18.2628 90.9929 18.5847 90.9929 18.9756C90.9929 19.1826 90.9239 19.3896 90.7859 19.5735C90.6939 19.7575 90.487 19.8955 90.28 19.8955C89.9811 19.8035 89.6821 19.6885 89.3832 19.5505C88.8083 19.2976 88.1874 19.1596 87.5435 19.1826C86.8766 19.1596 86.1868 19.3206 85.6119 19.6655C85.1059 20.0105 84.83 20.6083 84.876 21.2292C84.853 21.8041 85.083 22.356 85.5199 22.724C86.0028 23.1149 86.5547 23.4368 87.1526 23.6208C87.7965 23.8508 88.4404 24.1037 89.0842 24.4027C89.7281 24.7246 90.28 25.2075 90.6939 25.8054C91.1539 26.5413 91.3838 27.3921 91.3608 28.266C91.3608 29.6227 90.9699 30.6575 90.165 31.3474C89.2912 32.0833 88.1644 32.4512 87.0146 32.3822C85.9798 32.4052 84.945 32.1523 84.0481 31.6464C83.2203 31.0945 82.8064 30.6115 82.8064 30.1286Z" fill="#FF6C37"/>
<path d="M96.3049 18.4236C96.3049 18.2396 96.3509 18.0556 96.4659 17.9177C96.5578 17.7567 96.7188 17.6877 96.9028 17.6877H104.951C105.135 17.6877 105.296 17.7567 105.388 17.9177C105.503 18.0556 105.549 18.2396 105.549 18.4236C105.549 18.6075 105.503 18.8145 105.388 18.9755C105.296 19.1364 105.135 19.2054 104.951 19.2054H101.801V31.5772C101.801 31.7612 101.709 31.9221 101.548 32.0141C101.18 32.2211 100.743 32.2211 100.375 32.0141C100.214 31.9221 100.122 31.7612 100.122 31.5772V19.2054H96.9258C96.7418 19.2054 96.5808 19.1364 96.4889 18.9755C96.3739 18.8145 96.3049 18.6305 96.3049 18.4236Z" fill="#FF6C37"/>
<path d="M111.206 31.5774V18.5388C111.137 18.1479 111.413 17.7799 111.804 17.7109C111.896 17.6879 111.988 17.6879 112.057 17.7109C112.586 17.7109 113.023 18.0559 113.391 18.7688L116.495 24.7247L119.623 18.7688C120.014 18.0789 120.451 17.7109 120.957 17.7109C121.347 17.642 121.715 17.9179 121.784 18.3088C121.807 18.3778 121.807 18.4468 121.784 18.5158V31.5545C121.784 31.7384 121.692 31.8994 121.531 31.9914C121.164 32.1983 120.727 32.1983 120.359 31.9914C120.198 31.8994 120.106 31.7384 120.106 31.5545V21.1833L117.116 26.7943C117.024 27.0703 116.771 27.2772 116.472 27.2772C116.196 27.2542 115.943 27.0703 115.851 26.7943L112.862 21.0683V31.5545C112.862 31.7384 112.77 31.8994 112.609 31.9914C112.448 32.1064 112.241 32.1753 112.057 32.1753C111.85 32.1753 111.643 32.1293 111.482 32.0144C111.298 31.9454 111.183 31.7614 111.206 31.5774Z" fill="#FF6C37"/>
<path d="M127.464 31.4854C127.464 31.4394 127.487 31.3705 127.51 31.3245L131.557 18.2858C131.672 17.8949 132.017 17.7109 132.569 17.7109C133.121 17.7109 133.466 17.8949 133.581 18.2858L137.651 31.3935V31.5084C137.651 31.7154 137.513 31.8994 137.329 31.9913C137.122 32.1293 136.87 32.1983 136.594 32.1753C136.341 32.1983 136.088 32.0603 135.996 31.8074L135.122 28.9099H129.925L129.051 31.8074C128.982 32.0603 128.706 32.2213 128.453 32.1983C128.223 32.1983 127.993 32.1293 127.786 31.9913C127.579 31.8994 127.464 31.7154 127.464 31.4854ZM130.339 27.5301H134.777L132.569 20.1255L130.339 27.5301Z" fill="#FF6C37"/>
<path d="M143.377 31.5772V18.2626C143.377 17.8717 143.653 17.6877 144.205 17.6877C144.458 17.6877 144.711 17.7797 144.918 17.9407C145.148 18.1706 145.355 18.4466 145.47 18.7455L150.414 28.4038V18.2626C150.414 18.0786 150.506 17.9177 150.667 17.8487C151.035 17.6417 151.472 17.6417 151.84 17.8487C152.001 17.9407 152.093 18.1016 152.093 18.2626V31.5772C152.093 31.7612 152.001 31.9221 151.84 32.0141C151.656 32.1291 151.472 32.1751 151.265 32.1751C150.805 32.1521 150.391 31.8532 150.23 31.4162L145.033 21.459V31.5772C145.033 31.7612 144.941 31.9221 144.803 32.0141C144.435 32.2211 143.998 32.2211 143.63 32.0141C143.469 31.9221 143.377 31.7612 143.377 31.5772Z" fill="#FF6C37"/>
<path d="M46.3119 27.921C47.9216 15.3192 39.0222 3.79831 26.4435 2.1886C13.8647 0.57889 2.29782 9.47829 0.688112 22.057C-0.921599 34.6358 7.9778 46.1797 20.5565 47.8124C33.1583 49.4221 44.6792 40.5227 46.3119 27.921Z" fill="#FF6C37"/>
<path d="M31.8014 16.7672L22.0971 26.4715L19.3606 23.735C28.9039 14.1917 29.8467 15.0195 31.8014 16.7672Z" fill="white"/>
<path d="M22.0974 26.7016C22.0284 26.7016 21.9824 26.6786 21.9364 26.6326L19.1769 23.8961C19.0849 23.8041 19.0849 23.6661 19.1769 23.5741C28.8812 13.8699 29.893 14.7897 31.9396 16.6294C31.9856 16.6754 32.0086 16.7214 32.0086 16.7903C32.0086 16.8593 31.9856 16.9053 31.9396 16.9513L22.2353 26.6326C22.2124 26.6786 22.1434 26.7016 22.0974 26.7016ZM19.6828 23.7351L22.0974 26.1497L31.4567 16.7903C29.755 15.2726 28.6052 14.8127 19.6828 23.7351Z" fill="#FF6C37"/>
<path d="M24.8795 29.2541L22.235 26.6095L31.9392 16.9053C34.5378 19.5268 30.6515 23.7811 24.8795 29.2541Z" fill="white"/>
<path d="M24.8798 29.484C24.8108 29.484 24.7648 29.461 24.7188 29.415L22.0743 26.7705C22.0283 26.7245 22.0283 26.6785 22.0283 26.6095C22.0283 26.5405 22.0513 26.4945 22.0973 26.4486L31.8016 16.7443C31.8936 16.6523 32.0315 16.6523 32.1235 16.7443C32.7214 17.2962 33.0433 18.0781 33.0203 18.8829C32.9744 21.4355 30.0769 24.6779 25.0638 29.415C24.9948 29.461 24.9258 29.484 24.8798 29.484ZM22.5572 26.6095C24.029 28.1043 24.6499 28.7022 24.8798 28.9321C28.7431 25.2528 32.4914 21.4815 32.5144 18.8829C32.5374 18.285 32.3075 17.6871 31.9166 17.2272L22.5572 26.6095Z" fill="#FF6C37"/>
<path d="M19.4069 23.804L21.3615 25.7587C21.4075 25.8047 21.4075 25.8507 21.3615 25.8967C21.3385 25.9196 21.3386 25.9197 21.3156 25.9197L17.2683 26.7935C17.0613 26.8165 16.8774 26.6785 16.8314 26.4715C16.8084 26.3566 16.8544 26.2416 16.9233 26.1726L19.2689 23.827C19.3149 23.781 19.3839 23.758 19.4069 23.804Z" fill="white"/>
<path d="M17.1992 27.0235C16.8542 27.0235 16.6013 26.7476 16.6013 26.4026C16.6013 26.2417 16.6703 26.0807 16.7852 25.9657L19.1308 23.6201C19.2688 23.5051 19.4528 23.5051 19.5907 23.6201L21.5454 25.5748C21.6834 25.6898 21.6834 25.8967 21.5454 26.0347C21.4994 26.0807 21.4534 26.1037 21.3844 26.1267L17.3371 27.0005C17.2911 27.0005 17.2452 27.0235 17.1992 27.0235ZM19.3378 24.057L17.0842 26.3106C17.0382 26.3566 17.0152 26.4256 17.0612 26.4946C17.0842 26.5636 17.1532 26.5866 17.2222 26.5636L21.0165 25.7357L19.3378 24.057Z" fill="#FF6C37"/>
<path d="M36.9293 11.3865C35.4576 9.96077 33.089 10.0068 31.6633 11.5015C30.2376 12.9962 30.2835 15.3418 31.7783 16.7675C32.9971 17.9403 34.8367 18.1473 36.2855 17.2735L33.6639 14.6519L36.9293 11.3865Z" fill="white"/>
<path d="M34.3538 18.0319C32.1692 18.0319 30.3985 16.2612 30.3985 14.0766C30.3985 11.892 32.1692 10.1213 34.3538 10.1213C35.3656 10.1213 36.3545 10.5123 37.0903 11.2251C37.1363 11.2711 37.1593 11.3171 37.1593 11.3861C37.1593 11.4551 37.1363 11.5011 37.0903 11.5471L33.9859 14.6515L36.4234 17.0891C36.5154 17.1811 36.5154 17.319 36.4234 17.411C36.4004 17.434 36.4004 17.434 36.3774 17.457C35.7796 17.8249 35.0667 18.0319 34.3538 18.0319ZM34.3538 10.6043C32.4222 10.6043 30.8584 12.168 30.8814 14.0996C30.8814 16.0313 32.4452 17.595 34.3768 17.572C34.9057 17.572 35.4346 17.457 35.9175 17.2041L33.503 14.8125C33.457 14.7665 33.434 14.7205 33.434 14.6515C33.434 14.5825 33.457 14.5365 33.503 14.4906L36.5844 11.4091C35.9635 10.8802 35.1817 10.6043 34.3538 10.6043Z" fill="#FF6C37"/>
<path d="M36.9987 11.4553L36.9528 11.4093L33.6639 14.6519L36.2629 17.2503C36.5158 17.0893 36.7688 16.9054 36.9757 16.6984C38.4475 15.2497 38.4475 12.9041 36.9987 11.4553Z" fill="white"/>
<path d="M36.286 17.5031C36.217 17.5031 36.171 17.4802 36.125 17.4342L33.503 14.8125C33.457 14.7665 33.434 14.7205 33.434 14.6515C33.434 14.5825 33.457 14.5365 33.503 14.4906L36.7689 11.2253C36.8609 11.1333 36.9983 11.1332 37.0903 11.2251L37.1598 11.2713C38.7005 12.812 38.7005 15.2955 37.1828 16.8593C36.9529 17.0892 36.6999 17.2962 36.424 17.4572C36.355 17.4801 36.309 17.5031 36.286 17.5031ZM33.9859 14.6515L36.309 16.9742C36.4929 16.8593 36.6769 16.6983 36.8149 16.5603C38.1256 15.2496 38.1946 13.1109 36.9299 11.7312L33.9859 14.6515Z" fill="#FF6C37"/>
<path d="M32.1925 17.1812C31.6406 16.6293 30.7438 16.6293 30.1919 17.1812L21.5225 25.8506L22.9712 27.2994L32.1466 19.2508C32.7444 18.7449 32.7904 17.8481 32.2845 17.2502C32.2385 17.2272 32.2155 17.2042 32.1925 17.1812Z" fill="white"/>
<path d="M22.9481 27.5295C22.8791 27.5295 22.8331 27.5065 22.7871 27.4605L21.3384 26.0117C21.2464 25.9197 21.2464 25.7818 21.3384 25.6898L30.0078 17.0203C30.6517 16.3765 31.6865 16.3765 32.3304 17.0203C32.9743 17.6642 32.9743 18.699 32.3304 19.3429C32.3074 19.3659 32.2844 19.3889 32.2614 19.4119L23.0861 27.4605C23.0631 27.5065 23.0171 27.5295 22.9481 27.5295ZM21.8443 25.8508L22.9711 26.9776L31.9855 19.067C32.4914 18.653 32.5374 17.8942 32.1234 17.3883C31.7095 16.8824 30.9507 16.8364 30.4447 17.2503C30.4218 17.2733 30.3988 17.2963 30.3528 17.3193L21.8443 25.8508Z" fill="#FF6C37"/>
<path d="M14.8768 35.716C14.7848 35.762 14.7388 35.854 14.7618 35.9459L15.1527 37.6016C15.2447 37.8316 15.1067 38.1076 14.8538 38.1765C14.6698 38.2455 14.4629 38.1765 14.3479 38.0386L11.8183 35.532L20.0739 27.2765L22.9253 27.3225L24.857 29.2541C24.3971 29.6451 21.6146 32.3356 14.8768 35.716Z" fill="white"/>
<path d="M14.6925 38.4063C14.5085 38.4063 14.3246 38.3373 14.2096 38.1994L11.703 35.6928C11.657 35.6468 11.6341 35.6008 11.6341 35.5318C11.6341 35.4628 11.657 35.4169 11.703 35.3709L19.9586 27.1153C20.0045 27.0694 20.0735 27.0464 20.1195 27.0464L22.971 27.0924C23.04 27.0924 23.086 27.1153 23.132 27.1613L25.0636 29.093C25.1096 29.139 25.1326 29.208 25.1326 29.277C25.1326 29.3459 25.1096 29.3919 25.0406 29.4379L24.8797 29.5759C22.4421 31.7145 19.1307 33.8531 15.0144 35.8998L15.4054 37.5325C15.4744 37.8314 15.3364 38.1534 15.0604 38.3143C14.9225 38.3833 14.8075 38.4063 14.6925 38.4063ZM12.163 35.5318L14.5315 37.8774C14.6005 37.9924 14.7385 38.0384 14.8535 37.9694C14.9685 37.9004 15.0144 37.7624 14.9455 37.6475L14.5545 35.9918C14.5085 35.7848 14.6005 35.6008 14.7845 35.5088C18.8548 33.4622 22.1432 31.3466 24.5577 29.254L22.856 27.5523L20.2115 27.5063L12.163 35.5318Z" fill="#FF6C37"/>
<path d="M9.86338 37.5097L11.841 35.532L14.7845 38.4755L10.0933 38.1535C9.88638 38.1306 9.7484 37.9466 9.7714 37.7396C9.7714 37.6476 9.79439 37.5557 9.86338 37.5097Z" fill="white"/>
<path d="M14.7847 38.6823L10.0706 38.3604C9.72563 38.3374 9.49568 38.0385 9.51867 37.6935C9.54167 37.5556 9.58766 37.4176 9.70264 37.3256L11.6803 35.3479C11.7723 35.256 11.9102 35.256 12.0022 35.3479L14.9457 38.2914C15.0147 38.3604 15.0377 38.4524 14.9917 38.5444C14.9457 38.6364 14.8767 38.6823 14.7847 38.6823ZM11.8413 35.8539L10.0246 37.6705C9.95559 37.7165 9.95559 37.8315 10.0246 37.8775C10.0476 37.9005 10.0706 37.9235 10.1166 37.9235L14.1868 38.1994L11.8413 35.8539Z" fill="#FF6C37"/>
<path d="M19.2687 28.3342C19.1308 28.3342 19.0388 28.2193 19.0388 28.1043C19.0388 28.0353 19.0618 27.9893 19.1078 27.9433L21.3384 25.7127C21.4304 25.6207 21.5683 25.6207 21.6603 25.7127L23.109 27.1614C23.178 27.2304 23.201 27.2994 23.178 27.3914C23.155 27.4604 23.0861 27.5294 22.9941 27.5524L19.3147 28.3342C19.2917 28.3342 19.2687 28.3342 19.2687 28.3342ZM21.4993 26.1956L19.9816 27.7133L22.4652 27.1844L21.4993 26.1956Z" fill="#FF6C37"/>
<path d="M22.9253 27.3225L20.3956 27.8744C20.2117 27.9204 20.0277 27.8054 19.9817 27.6215C19.9587 27.5065 19.9817 27.3915 20.0737 27.2995L21.4764 25.8968L22.9253 27.3225Z" fill="white"/>
<path d="M20.3496 28.1043C20.0277 28.1043 19.7748 27.8513 19.7748 27.5294C19.7748 27.3684 19.8437 27.2304 19.9357 27.1155L21.3384 25.7127C21.4304 25.6207 21.5683 25.6207 21.6603 25.7127L23.109 27.1614C23.178 27.2304 23.201 27.2994 23.178 27.3914C23.155 27.4604 23.0861 27.5294 22.9941 27.5524L20.4646 28.1043C20.4186 28.1043 20.3726 28.1043 20.3496 28.1043ZM21.4993 26.1956L20.2577 27.4374C20.2117 27.4834 20.2117 27.5294 20.2347 27.5754C20.2577 27.6214 20.3037 27.6444 20.3726 27.6444L22.4883 27.1844L21.4993 26.1956Z" fill="#FF6C37"/>
<path d="M37.0218 13.663C36.9758 13.525 36.8148 13.4561 36.6769 13.502C36.5389 13.548 36.4699 13.709 36.5159 13.847C36.5159 13.87 36.5389 13.893 36.5389 13.916C36.6769 14.1919 36.6309 14.5369 36.4469 14.7898C36.3549 14.9048 36.3779 15.0658 36.4699 15.1577C36.5849 15.2497 36.7459 15.2267 36.8378 15.1118C37.1828 14.6748 37.2518 14.1229 37.0218 13.663Z" fill="#FF6C37"/>
</g>
<defs>
<clipPath id="clip0_1498_6518">
<rect width="152" height="48" fill="white" transform="translate(0.5 0.734863)"/>
</clipPath>
</defs>
</svg>
