<svg width="119" height="49" viewBox="0 0 119 49" fill="none" xmlns="http://www.w3.org/2000/svg">
<path d="M62.2436 17.8163C61.2705 16.9989 59.5969 16.5903 57.2228 16.5903H51.8906V33.0732H55.88V27.8968H57.6704C59.8305 27.8968 61.4262 27.4103 62.4382 26.4567C63.5863 25.3864 64.1507 23.9658 64.1507 22.1754C64.1507 20.3461 63.5085 18.8866 62.2436 17.8163ZM57.5536 24.1604H55.8605V20.3072H57.3785C59.2272 20.3072 60.1418 20.9494 60.1418 22.2532C60.1613 23.5182 59.2856 24.1604 57.5536 24.1604ZM70.9618 16.5708H66.8168V33.0538H75.788V29.3174H70.9618V16.5708ZM83.9419 16.5708L77.4032 33.0538H81.8791L82.7354 30.6601H88.4178L89.1962 33.0538H93.7305L87.2502 16.5708H83.9419ZM83.8835 27.3324L85.5961 21.6889L87.2891 27.3324H83.8835Z" fill="#111111"/>
<path d="M95.813 33.0542H99.9775V16.5712H95.813V33.0542ZM116.11 19.6654C115.585 18.9065 114.904 18.2643 114.125 17.7583C112.86 16.9604 111.148 16.5712 108.988 16.5712H103.5V33.0542H109.902C112.218 33.0542 114.086 32.2952 115.487 30.7773C116.889 29.2594 117.589 27.255 117.589 24.7446C117.609 22.7596 117.103 21.0666 116.11 19.6654ZM109.455 29.3178H107.684V20.3076H109.494C110.759 20.3076 111.751 20.6968 112.432 21.4947C113.113 22.2926 113.464 23.4213 113.464 24.8808C113.444 27.8388 112.121 29.3178 109.455 29.3178ZM18.1076 2.73486L4.62151 6.2572L0.904573 19.8211L5.57507 24.5889L0.846191 29.2789L4.34907 42.9012L17.7768 46.657L22.5056 41.9671L27.1567 46.7349L40.6427 43.2125L44.3597 29.6486L39.7086 24.8808L44.4375 20.1909L40.9346 6.56856L27.507 2.81271L22.7781 7.50267L18.1076 2.73486ZM9.8369 8.86489L16.94 6.9967L20.0536 10.1882L15.5193 14.6836L9.8369 8.86489ZM25.4247 10.2466L28.5773 7.11346L35.6414 9.09842L29.8617 14.8392C29.8811 14.8198 25.4247 10.2466 25.4247 10.2466ZM5.1664 18.7119L7.13191 11.5699L12.8143 17.3886L8.28007 21.8839L5.1664 18.7119ZM32.5472 17.5637L38.327 11.8229L40.1757 19.0038L37.0231 22.1369C37.0036 22.1369 32.5472 17.5637 32.5472 17.5637ZM18.1854 17.4469L22.7197 12.9516L27.1761 17.5248L22.6419 22.0201L18.1854 17.4469ZM10.9461 24.6278L15.4804 20.1325L19.9369 24.7057L15.4026 29.201L10.9461 24.6278ZM25.3079 24.7446L29.8422 20.2492L34.2986 24.8224L29.7644 29.3178C29.7644 29.3372 25.3079 24.7446 25.3079 24.7446ZM5.08856 30.466L8.24115 27.3328L12.6976 31.906L6.9373 37.6469C6.91784 37.6469 5.08856 30.466 5.08856 30.466ZM18.0687 31.9449L22.6029 27.4496L27.0594 32.0228L22.5251 36.5181L18.0687 31.9449ZM32.4304 32.0617L36.9647 27.5664L40.0784 30.7579L38.1323 37.8998C38.1129 37.8998 32.4304 32.0617 32.4304 32.0617ZM9.58392 40.3713L15.3442 34.6305L19.8006 39.2037L16.648 42.3368L9.58392 40.3713ZM25.1912 39.2621L29.7254 34.7667L35.4079 40.5854L28.3048 42.4536L25.1912 39.2621Z" fill="#111111"/>
</svg>
