<svg width="129" height="49" viewBox="0 0 129 49" fill="none" xmlns="http://www.w3.org/2000/svg">
<g clip-path="url(#clip0_1498_6502)">
<path d="M68.047 14.7849C68.047 16.2264 66.8858 17.3875 65.4444 17.3875C64.0029 17.3875 62.8418 16.2264 62.8418 14.7849C62.8418 13.3435 63.9629 12.1823 65.4444 12.1823C66.9258 12.2224 68.047 13.3835 68.047 14.7849ZM57.3162 20.0302C57.3162 20.2704 57.3162 20.6708 57.3162 20.6708C57.3162 20.6708 56.075 19.0692 53.4323 19.0692C49.068 19.0692 45.6646 22.3925 45.6646 26.9971C45.6646 31.5617 49.0279 34.9251 53.4323 34.9251C56.115 34.9251 57.3162 33.2834 57.3162 33.2834V33.9641C57.3162 34.2844 57.5565 34.5247 57.8768 34.5247H61.12V19.4696C61.12 19.4696 58.1571 19.4696 57.8768 19.4696C57.5565 19.4696 57.3162 19.7499 57.3162 20.0302ZM57.3162 29.6798C56.7156 30.5607 55.5144 31.3215 54.073 31.3215C51.5104 31.3215 49.5485 29.7198 49.5485 26.9971C49.5485 24.2744 51.5104 22.6728 54.073 22.6728C55.4744 22.6728 56.7557 23.4736 57.3162 24.3144V29.6798ZM63.5224 19.4696H67.3663V34.5247H63.5224V19.4696ZM120.94 19.0692C118.297 19.0692 117.056 20.6708 117.056 20.6708V12.2224H113.212V34.5247C113.212 34.5247 116.175 34.5247 116.455 34.5247C116.776 34.5247 117.016 34.2444 117.016 33.9641V33.2834C117.016 33.2834 118.257 34.9251 120.9 34.9251C125.264 34.9251 128.668 31.5617 128.668 26.9971C128.668 22.4326 125.264 19.0692 120.94 19.0692ZM120.299 31.2814C118.818 31.2814 117.657 30.5206 117.056 29.6398V24.2744C117.657 23.4736 118.938 22.6328 120.299 22.6328C122.862 22.6328 124.824 24.2344 124.824 26.9571C124.824 29.6798 122.862 31.2814 120.299 31.2814ZM111.21 25.5957V34.5647H107.366V26.0362C107.366 23.5537 106.565 22.5527 104.403 22.5527C103.242 22.5527 102.041 23.1533 101.28 24.0342V34.5247H97.4363V19.4696H100.479C100.8 19.4696 101.04 19.7499 101.04 20.0302V20.6708C102.161 19.5096 103.643 19.0692 105.124 19.0692C106.806 19.0692 108.207 19.5497 109.328 20.5106C110.69 21.6318 111.21 23.0732 111.21 25.5957ZM88.107 19.0692C85.4644 19.0692 84.2231 20.6708 84.2231 20.6708V12.2224H80.3793V34.5247C80.3793 34.5247 83.3423 34.5247 83.6225 34.5247C83.9429 34.5247 84.1831 34.2444 84.1831 33.9641V33.2834C84.1831 33.2834 85.4243 34.9251 88.067 34.9251C92.4313 34.9251 95.8347 31.5617 95.8347 26.9971C95.8748 22.4326 92.4714 19.0692 88.107 19.0692ZM87.4664 31.2814C85.9849 31.2814 84.8237 30.5206 84.2231 29.6398V24.2744C84.8237 23.4736 86.105 22.6328 87.4664 22.6328C90.0289 22.6328 91.9909 24.2344 91.9909 26.9571C91.9909 29.6798 90.0289 31.2814 87.4664 31.2814ZM77.056 19.0692C78.2171 19.0692 78.8177 19.2694 78.8177 19.2694V22.833C78.8177 22.833 75.6145 21.7519 73.6125 24.0342V34.5647H69.7687V19.4696C69.7687 19.4696 72.7316 19.4696 73.0119 19.4696C73.3322 19.4696 73.5725 19.7499 73.5725 20.0302V20.6708C74.2932 19.83 75.8548 19.0692 77.056 19.0692ZM37.1361 33.1633C36.9359 32.6828 36.7357 32.1623 36.5355 31.7219C36.2151 31.0011 35.8948 30.3204 35.6145 29.6798L35.5745 29.6398C32.8117 23.6338 29.8488 17.5477 26.7256 11.5417L26.6055 11.3014C26.2852 10.7008 25.9649 10.0602 25.6446 9.41955C25.2442 8.69883 24.8438 7.93807 24.2031 7.21735C22.9218 5.61574 21.08 4.73486 19.118 4.73486C17.116 4.73486 15.3142 5.61574 13.9929 7.13727C13.3923 7.85799 12.9519 8.61875 12.5515 9.33947C12.2312 9.98011 11.9108 10.6207 11.5905 11.2214L11.4704 11.4616C8.38732 17.4676 5.38431 23.5537 2.62155 29.5597L2.58151 29.6398C2.30123 30.2804 1.98091 30.9611 1.66059 31.6818C1.46039 32.1223 1.26019 32.6027 1.05999 33.1233C0.53947 34.6047 0.37931 36.0061 0.57951 37.4476C1.01995 40.4506 3.02195 42.9731 5.78471 44.0942C6.82576 44.5347 7.90684 44.7349 9.02796 44.7349C9.34828 44.7349 9.74868 44.6948 10.069 44.6548C11.3903 44.4946 12.7517 44.0542 14.073 43.2934C15.7146 42.3725 17.2762 41.0512 19.038 39.1293C20.7997 41.0512 22.4013 42.3725 24.0029 43.2934C25.3243 44.0542 26.6856 44.4946 28.0069 44.6548C28.3272 44.6948 28.7277 44.7349 29.048 44.7349C30.1691 44.7349 31.2902 44.5347 32.2912 44.0942C35.094 42.9731 37.056 40.4105 37.4964 37.4476C37.8167 36.0462 37.6566 34.6448 37.1361 33.1633ZM19.078 35.2454C16.9158 32.5226 15.5144 29.9601 15.034 27.7979C14.8338 26.877 14.7937 26.0762 14.9138 25.3555C14.9939 24.7148 15.2342 24.1543 15.5545 23.6738C16.3152 22.5927 17.5965 21.912 19.078 21.912C20.5595 21.912 21.8808 22.5527 22.6015 23.6738C22.9218 24.1543 23.1621 24.7148 23.2422 25.3555C23.3623 26.0762 23.3222 26.917 23.122 27.7979C22.6416 29.92 21.2402 32.4826 19.078 35.2454ZM35.054 37.1273C34.7737 39.2093 33.3723 41.0111 31.4103 41.8119C30.4494 42.2123 29.4083 42.3325 28.3673 42.2123C27.3663 42.0922 26.3653 41.7719 25.3243 41.1713C23.8828 40.3705 22.4414 39.1293 20.7597 37.2874C23.4023 34.0442 25.0039 31.0812 25.6045 28.4386C25.8848 27.1973 25.9249 26.0762 25.8047 25.0352C25.6446 24.0342 25.2842 23.1132 24.7236 22.3124C23.4824 20.5106 21.4003 19.4696 19.078 19.4696C16.7557 19.4696 14.6736 20.5507 13.4324 22.3124C12.8718 23.1132 12.5114 24.0342 12.3513 25.0352C12.1911 26.0762 12.2312 27.2374 12.5515 28.4386C13.1521 31.0812 14.7937 34.0842 17.3963 37.3275C15.7547 39.1693 14.2732 40.4105 12.8318 41.2113C11.7907 41.8119 10.7897 42.1323 9.78872 42.2524C8.70764 42.3725 7.6666 42.2123 6.74568 41.852C4.78371 41.0512 3.38231 39.2494 3.10203 37.1673C2.98191 36.1663 3.06199 35.1653 3.46239 34.0442C3.58251 33.6438 3.78271 33.2434 3.98291 32.7629C4.26319 32.1223 4.58351 31.4416 4.90383 30.7609L4.94387 30.6808C7.70664 24.7148 10.6696 18.6288 13.7527 12.7028L13.8728 12.4626C14.1931 11.862 14.5134 11.2213 14.8338 10.6207C15.1541 9.98011 15.5144 9.37951 15.9549 8.85899C16.7957 7.89803 17.9168 7.37751 19.1581 7.37751C20.3993 7.37751 21.5204 7.89803 22.3613 8.85899C22.8017 9.37951 23.1621 9.98011 23.4824 10.6207C23.8027 11.2213 24.123 11.862 24.4434 12.4626L24.5635 12.7028C27.6065 18.6688 30.5695 24.7549 33.3323 30.7208V30.7609C33.6526 31.4015 33.9329 32.1223 34.2532 32.7629C34.4534 33.2434 34.6536 33.6438 34.7737 34.0442C35.094 35.0852 35.2141 36.0862 35.054 37.1273Z" fill="#FF5A5F"/>
</g>
<defs>
<clipPath id="clip0_1498_6502">
<rect width="128" height="48" fill="white" transform="translate(0.5 0.734863)"/>
</clipPath>
</defs>
</svg>
