<svg width="163" height="49" viewBox="0 0 163 49" fill="none" xmlns="http://www.w3.org/2000/svg">
<g clip-path="url(#clip0_1498_6507)">
<path fill-rule="evenodd" clip-rule="evenodd" d="M27.0192 11.7353H2.98031C1.61021 11.7353 0.5 12.8458 0.5 14.2156V38.2545C0.5 39.6246 1.61047 40.7348 2.98031 40.7348H27.0192C28.3892 40.7348 29.4995 39.6243 29.4995 38.2545V14.2156C29.4995 12.8455 28.389 11.7353 27.0192 11.7353ZM15.7377 27.7124C13.5699 27.7124 12.5847 25.6175 12.5847 23.6756C12.5847 20.618 14.2415 19.5293 15.7912 19.5293C17.6931 19.5293 18.971 21.1833 18.971 23.6471C18.971 26.4573 17.3454 27.7124 15.7377 27.7124ZM23.0556 23.5932C23.0556 19.0105 20.442 15.9319 16.5549 15.9319C14.2935 15.9319 12.9844 16.9576 12.3529 17.6653C12.2771 17.055 11.8789 16.2633 10.3232 16.2633H6.94434V19.8322H8.32917C8.56393 19.8322 8.63971 19.9072 8.63971 20.1441V36.4414H12.6664V30.3247C12.6664 30.1597 12.6634 30.0052 12.659 29.8673C13.2875 30.4491 14.4896 31.2528 16.3662 31.2528C20.3023 31.2528 23.0556 28.1038 23.0556 23.5932Z" fill="#192435"/>
<path fill-rule="evenodd" clip-rule="evenodd" d="M40.1401 19.5444C40.8534 18.7456 42.3321 17.5881 44.8867 17.5881C49.2773 17.5881 52.2296 21.0624 52.2296 26.2341C52.2296 31.3246 49.1195 34.8785 44.6734 34.8785C42.5537 34.8785 41.1958 33.9713 40.4859 33.3147C40.4909 33.4704 40.4943 33.6447 40.4943 33.8308V40.7338H35.9458V22.3418C35.9458 22.0744 35.8602 21.9898 35.5951 21.9898H34.0308V17.9621H37.8474C39.6047 17.9621 40.0545 18.8556 40.1401 19.5444ZM44.0239 21.6479C42.2734 21.6479 40.402 22.8766 40.402 26.3271C40.402 28.5187 41.5147 30.8829 43.9635 30.8829C45.7795 30.8829 47.6157 29.4664 47.6157 26.2951C47.6157 23.5146 46.1722 21.6479 44.0239 21.6479Z" fill="#192435"/>
<path d="M58.3377 30.1573V20.4113C58.3377 18.7646 57.5506 17.9625 55.9377 17.9625H51.8726V21.9902H53.4386C53.7021 21.9902 53.7876 22.0765 53.7876 22.3422V32.0543C53.7876 33.7263 54.5496 34.5032 56.1827 34.5032H60.2528V30.511H58.6868C58.4351 30.511 58.3377 30.4094 58.3377 30.1573Z" fill="#192435"/>
<path fill-rule="evenodd" clip-rule="evenodd" d="M65.4714 19.5444C66.1881 18.7456 67.6634 17.5881 70.2213 17.5881C74.6103 17.5881 77.5609 21.0624 77.5609 26.2341C77.5609 31.3246 74.4542 34.8785 70.0064 34.8785C67.8884 34.8785 66.5255 33.9713 65.8189 33.3147C65.8239 33.4704 65.8289 33.6447 65.8289 33.8308V40.7338H61.2771V22.3418C61.2771 22.0744 61.1916 21.9898 60.928 21.9898H59.3638V17.9621H63.1821C64.9394 17.9621 65.3875 18.8556 65.4714 19.5444ZM65.7332 26.3271C65.7332 28.5187 66.8511 30.8829 69.2931 30.8829C71.1142 30.8829 72.9487 29.4664 72.9487 26.2951C72.9487 23.5146 71.5052 21.6479 69.3569 21.6479C67.6047 21.6479 65.7332 22.8766 65.7332 26.3271Z" fill="#192435"/>
<path fill-rule="evenodd" clip-rule="evenodd" d="M77.793 26.2349C77.793 21.1444 81.2203 17.5889 86.1211 17.5889C90.4917 17.5889 93.4289 20.7501 93.4289 25.4547C93.4289 25.932 93.3399 26.9084 93.3314 26.949L93.3063 27.2503H82.5193C82.9137 29.4503 84.582 30.8532 86.8613 30.8532C89.155 30.8532 90.9101 29.2953 91.0456 29.1749C91.0504 29.1707 91.0532 29.1682 91.0539 29.1677L91.3476 28.8867L93.3298 32.202L93.1468 32.3848C93.0388 32.4902 90.5905 34.8792 86.5861 34.8792C81.4904 34.8792 77.793 31.2425 77.793 26.2349ZM86.1211 21.3035C84.4159 21.3035 83.1823 22.2241 82.6888 23.8471H88.731C88.5447 22.3544 87.4907 21.3035 86.1211 21.3035Z" fill="#192435"/>
<path fill-rule="evenodd" clip-rule="evenodd" d="M109.974 14.1835V30.1573C109.974 30.4094 110.071 30.511 110.323 30.511H111.855V34.5031H107.914C106.213 34.5031 105.754 33.5994 105.662 32.8852C104.955 33.7044 103.509 34.8788 101 34.8788C96.6089 34.8788 93.6583 31.4062 93.6583 26.2345C93.6583 21.144 96.7381 17.5884 101.152 17.5884C103.41 17.5884 104.721 18.3923 105.392 19.0032V16.1161C105.392 15.8487 105.306 15.7641 105.043 15.7641H103.477V11.7347H107.542C109.177 11.7347 109.974 12.5369 109.974 14.1835ZM98.299 26.2345C98.299 29.0572 99.6988 30.8833 101.862 30.8833C103.613 30.8833 105.486 29.6563 105.486 26.204C105.486 23.9346 104.383 21.6483 101.924 21.6483C99.7559 21.6483 98.299 23.4896 98.299 26.2345Z" fill="#192435"/>
<path d="M121.977 17.744C120.084 17.744 118.342 18.8457 117.308 20.6006V20.2232C117.308 18.7238 116.487 17.9623 114.876 17.9623H110.965V21.99H112.53C112.793 21.99 112.88 22.0746 112.88 22.3419V34.5029H117.429V27.8843C117.429 27.0127 117.54 26.1734 117.754 25.3966C118.439 23.1137 120.259 22.3013 121.731 22.3013C122.252 22.3013 122.632 22.3572 122.638 22.3589L123.018 22.4164V17.8573L122.741 17.81C122.727 17.8066 122.341 17.744 121.977 17.744Z" fill="#192435"/>
<path d="M129.492 30.1574V20.4113C129.492 18.7647 128.709 17.9625 127.095 17.9625H123.418V21.9902H124.593C124.859 21.9902 124.942 22.0766 124.942 22.3423V32.0544C124.942 33.7264 125.706 34.5032 127.343 34.5032H131.409V30.5111H129.841C129.59 30.5111 129.492 30.4095 129.492 30.1574Z" fill="#192435"/>
<path d="M146.665 17.9625H144.238C142.82 17.9625 142.059 18.4584 141.609 19.6752L138.644 28.0267C138.541 28.3364 138.445 28.6833 138.363 29.0167C138.278 28.6833 138.175 28.3313 138.063 28.0217L135.097 19.6735C134.642 18.4431 133.907 17.9625 132.471 17.9625H129.889V21.9902H130.558C130.915 21.9902 131.029 22.1121 131.113 22.3355L135.703 34.5032H140.819L145.409 22.3355C145.493 22.1121 145.611 21.9902 145.966 21.9902H146.665V17.9625Z" fill="#192435"/>
<path fill-rule="evenodd" clip-rule="evenodd" d="M146.172 26.2349C146.172 21.1444 149.599 17.5889 154.498 17.5889C158.871 17.5889 161.81 20.7501 161.81 25.4547C161.81 25.932 161.718 26.9084 161.713 26.949L161.688 27.2503H150.897C151.292 29.4503 152.96 30.8532 155.241 30.8532C157.607 30.8532 159.415 29.1829 159.431 29.1677L159.732 28.8867L161.71 32.202L161.525 32.3848C161.422 32.4863 158.972 34.8792 154.963 34.8792C149.867 34.8792 146.172 31.2425 146.172 26.2349ZM154.498 21.3035C152.794 21.3035 151.565 22.2241 151.067 23.8471H157.109C156.923 22.3544 155.871 21.3035 154.498 21.3035Z" fill="#192435"/>
<path d="M58.0271 11.7358H53.9722V16.0428H58.0271V11.7358Z" fill="#192435"/>
<path d="M129.184 11.7358H125.127V16.0428H129.184V11.7358Z" fill="#192435"/>
</g>
<defs>
<clipPath id="clip0_1498_6507">
<rect width="162" height="48" fill="white" transform="translate(0.5 0.734863)"/>
</clipPath>
</defs>
</svg>
