<svg width="144" height="49" viewBox="0 0 144 49" fill="none" xmlns="http://www.w3.org/2000/svg">
<g clip-path="url(#clip0_1498_6511)">
<path d="M53.7126 13.5065H45.8374C45.2985 13.5065 44.8402 13.898 44.7561 14.43L41.571 34.6241C41.5077 35.0225 41.8163 35.3818 42.2205 35.3818H45.9802C46.5191 35.3818 46.9774 34.9903 47.0614 34.4571L47.9205 29.0105C48.0034 28.4773 48.4628 28.0858 49.0006 28.0858H51.4936C56.6812 28.0858 59.6751 25.5755 60.457 20.601C60.8094 18.4246 60.472 16.7146 59.4529 15.517C58.3336 14.202 56.3484 13.5065 53.7126 13.5065ZM54.6211 20.8819C54.1905 23.7077 52.0314 23.7077 49.9437 23.7077H48.7553L49.589 18.4303C49.6385 18.1114 49.9149 17.8765 50.2373 17.8765H50.782C52.2041 17.8765 53.5456 17.8765 54.2388 18.6871C54.6522 19.1708 54.7789 19.8893 54.6211 20.8819Z" fill="#253B80"/>
<path d="M77.2532 20.7909H73.482C73.1607 20.7909 72.8832 21.0259 72.8337 21.3448L72.6667 22.3996L72.403 22.0173C71.5866 20.8324 69.766 20.4363 67.949 20.4363C63.7816 20.4363 60.2223 23.5926 59.5291 28.0202C59.1687 30.2288 59.6811 32.3406 60.9339 33.8134C62.0831 35.1676 63.7275 35.7319 65.6839 35.7319C69.0417 35.7319 70.9037 33.5728 70.9037 33.5728L70.7356 34.6206C70.6723 35.0214 70.9809 35.3806 71.3828 35.3806H74.7797C75.3198 35.3806 75.7758 34.9891 75.861 34.456L77.8992 21.5486C77.9637 21.1514 77.6562 20.7909 77.2532 20.7909ZM71.9965 28.1307C71.6326 30.2852 69.9226 31.7315 67.7417 31.7315C66.6466 31.7315 65.7714 31.3803 65.2095 30.7147C64.6522 30.0537 64.4403 29.1129 64.6176 28.0651C64.9573 25.929 66.6961 24.4355 68.8437 24.4355C69.9146 24.4355 70.7851 24.7913 71.3586 25.4626C71.9332 26.1409 72.1612 27.0874 71.9965 28.1307Z" fill="#253B80"/>
<path d="M97.3379 20.7909H93.5482C93.1867 20.7909 92.847 20.9705 92.642 21.2711L87.4153 28.9701L85.1997 21.5716C85.0604 21.1087 84.6332 20.7909 84.1496 20.7909H80.4256C79.973 20.7909 79.6587 21.2331 79.8026 21.6591L83.9768 33.909L80.0525 39.4489C79.7439 39.8853 80.0548 40.4853 80.5879 40.4853H84.373C84.7322 40.4853 85.0685 40.3102 85.2723 40.0154L97.8768 21.8215C98.1785 21.3862 97.8687 20.7909 97.3379 20.7909Z" fill="#253B80"/>
<path d="M109.885 13.5065H102.008C101.471 13.5065 101.012 13.898 100.928 14.43L97.7431 34.6241C97.6798 35.0225 97.9884 35.3818 98.3903 35.3818H102.432C102.807 35.3818 103.129 35.1077 103.188 34.7347L104.091 29.0105C104.174 28.4773 104.634 28.0858 105.172 28.0858H107.663C112.852 28.0858 115.845 25.5755 116.628 20.601C116.981 18.4246 116.642 16.7146 115.623 15.517C114.505 14.202 112.521 13.5065 109.885 13.5065ZM110.793 20.8819C110.364 23.7077 108.205 23.7077 106.116 23.7077H104.929L105.763 18.4303C105.813 18.1114 106.087 17.8765 106.411 17.8765H106.955C108.376 17.8765 109.719 17.8765 110.412 18.6871C110.825 19.1708 110.951 19.8893 110.793 20.8819Z" fill="#179BD7"/>
<path d="M133.424 20.7909H129.655C129.332 20.7909 129.056 21.0259 129.008 21.3448L128.841 22.3996L128.576 22.0173C127.76 20.8324 125.94 20.4363 124.123 20.4363C119.956 20.4363 116.398 23.5926 115.705 28.0202C115.345 30.2288 115.855 32.3406 117.108 33.8134C118.26 35.1676 119.902 35.7319 121.858 35.7319C125.216 35.7319 127.078 33.5728 127.078 33.5728L126.91 34.6206C126.847 35.0214 127.155 35.3806 127.559 35.3806H130.955C131.493 35.3806 131.951 34.9891 132.035 34.456L134.075 21.5486C134.137 21.1514 133.828 20.7909 133.424 20.7909ZM128.167 28.1307C127.806 30.2852 126.094 31.7315 123.913 31.7315C122.82 31.7315 121.942 31.3803 121.38 30.7147C120.823 30.0537 120.613 29.1129 120.788 28.0651C121.13 25.929 122.867 24.4355 125.015 24.4355C126.085 24.4355 126.956 24.7913 127.529 25.4626C128.106 26.1409 128.334 27.0874 128.167 28.1307Z" fill="#179BD7"/>
<path d="M137.87 14.0603L134.638 34.624C134.574 35.0225 134.883 35.3817 135.285 35.3817H138.534C139.074 35.3817 139.533 34.9902 139.616 34.4571L142.803 14.2641C142.866 13.8657 142.558 13.5052 142.156 13.5052H138.517C138.196 13.5064 137.919 13.7413 137.87 14.0603Z" fill="#179BD7"/>
<path d="M8.86683 39.3062L9.46907 35.4809L8.12756 35.4498H1.72168L6.17344 7.22267C6.18726 7.13746 6.23216 7.058 6.2978 7.00158C6.36344 6.94515 6.4475 6.91406 6.53501 6.91406H17.3362C20.922 6.91406 23.3966 7.66024 24.6886 9.13303C25.2943 9.82394 25.6801 10.5459 25.8666 11.3405C26.0624 12.1742 26.0659 13.1702 25.8747 14.3851L25.8609 14.4738V15.2522L26.4666 15.5953C26.9767 15.8659 27.382 16.1757 27.6929 16.5304C28.2111 17.1211 28.5462 17.8719 28.6879 18.762C28.8341 19.6775 28.7857 20.7668 28.5462 22.0001C28.2699 23.4187 27.8231 24.6543 27.2197 25.6653C26.6646 26.5969 25.9576 27.3696 25.1182 27.9684C24.3167 28.5372 23.3644 28.969 22.2877 29.2454C21.2445 29.5172 20.055 29.6542 18.7503 29.6542H17.9097C17.3086 29.6542 16.7248 29.8707 16.2665 30.2587C15.807 30.6549 15.503 31.1961 15.4097 31.7879L15.3464 32.1322L14.2824 38.8744L14.234 39.1219C14.2214 39.2002 14.1995 39.2394 14.1673 39.2659C14.1385 39.2901 14.097 39.3062 14.0567 39.3062H8.86683Z" fill="#253B80"/>
<path d="M27.0401 14.5635C27.0079 14.7696 26.971 14.9803 26.9296 15.1968C25.5052 22.5101 20.632 25.0365 14.408 25.0365H11.239C10.4779 25.0365 9.8365 25.5892 9.7179 26.34L8.09541 36.63L7.63596 39.5468C7.5588 40.0396 7.9388 40.4841 8.43626 40.4841H14.0568C14.7224 40.4841 15.2878 40.0004 15.3926 39.3441L15.4478 39.0585L16.5061 32.3429L16.574 31.9744C16.6777 31.3157 17.2442 30.8321 17.9098 30.8321H18.7504C24.1959 30.8321 28.4588 28.6212 29.7047 22.2234C30.2252 19.5507 29.9558 17.3191 28.5786 15.7495C28.1617 15.2763 27.6447 14.8836 27.0401 14.5635Z" fill="#179BD7"/>
<path d="M25.55 13.9694C25.3323 13.9061 25.1078 13.8485 24.8775 13.7967C24.646 13.746 24.4088 13.7011 24.1647 13.6619C23.3103 13.5238 22.3741 13.4581 21.3711 13.4581H12.9052C12.6967 13.4581 12.4987 13.5053 12.3213 13.5906C11.931 13.7783 11.6408 14.1479 11.5706 14.6004L9.76959 26.0073L9.71777 26.3401C9.83638 25.5893 10.4778 25.0366 11.2389 25.0366H14.4079C20.6318 25.0366 25.505 22.509 26.9295 15.1969C26.9721 14.9804 27.0078 14.7697 27.04 14.5636C26.6796 14.3724 26.2892 14.2089 25.8689 14.0696C25.7653 14.035 25.6582 14.0016 25.55 13.9694Z" fill="#222D65"/>
<path d="M11.5707 14.6004C11.6409 14.1478 11.9311 13.7782 12.3214 13.5917C12.4999 13.5064 12.6968 13.4592 12.9053 13.4592H21.3712C22.3742 13.4592 23.3103 13.5249 24.1648 13.663C24.4089 13.7022 24.6461 13.7471 24.8776 13.7978C25.1079 13.8496 25.3324 13.9072 25.55 13.9705C25.6583 14.0027 25.7654 14.0361 25.8702 14.0695C26.2905 14.2089 26.6808 14.3735 27.0413 14.5635C27.465 11.8609 27.0378 10.0208 25.5765 8.35456C23.9656 6.5202 21.058 5.73486 17.3374 5.73486H6.53623C5.77623 5.73486 5.12793 6.28759 5.01047 7.03953L0.511502 35.5568C0.422836 36.121 0.858108 36.63 1.42696 36.63H8.09538L9.76968 26.0073L11.5707 14.6004Z" fill="#253B80"/>
</g>
<defs>
<clipPath id="clip0_1498_6511">
<rect width="143" height="48" fill="white" transform="translate(0.5 0.734863)"/>
</clipPath>
</defs>
</svg>
