<svg width="145" height="49" viewBox="0 0 145 49" fill="none" xmlns="http://www.w3.org/2000/svg">
<g clip-path="url(#clip0_1498_6513)">
<path d="M144.233 24.3589V19.7648C143.334 19.8008 140.638 20.1674 139.445 21.5982V20.0812H134.412V35.3877H139.445V28.155C140.164 24.7472 143.421 24.3877 144.247 24.3589H144.233ZM99.1546 24.5387C98.6146 24.0557 97.9973 23.6669 97.3285 23.3883C96.7777 23.1199 96.1725 22.9821 95.5598 22.9857C95.106 22.9813 94.6567 23.077 94.2442 23.2661C94.0562 23.3424 93.8969 23.4757 93.7885 23.6472C93.6802 23.8187 93.6284 24.0198 93.6402 24.2223C93.6353 24.4277 93.6971 24.6291 93.8163 24.7963C93.9356 24.9636 94.1059 25.0876 94.3017 25.1498C95.0041 25.4098 95.7251 25.6165 96.4585 25.7681C97.0559 25.8975 97.6424 26.073 98.2128 26.2929C98.7864 26.5117 99.3243 26.8146 99.8089 27.1916C100.282 27.5635 100.673 28.0284 100.959 28.5576C101.26 29.1491 101.409 29.8066 101.391 30.47C101.422 31.2803 101.239 32.0845 100.861 32.8015C100.482 33.5185 99.9207 34.1229 99.2337 34.5537C98.5748 34.9808 97.8441 35.2853 97.0768 35.4524C96.3044 35.6377 95.513 35.7318 94.7187 35.7328C93.4599 35.7329 92.2095 35.5289 91.0161 35.1289C89.8829 34.7764 88.8469 34.1661 87.9893 33.3458L90.4768 30.2328C91.0831 30.7866 91.772 31.2426 92.5187 31.5844C93.1721 31.9131 93.8938 32.083 94.6252 32.0805C95.052 32.0761 95.4723 31.9753 95.8546 31.7857C96.0489 31.6954 96.2109 31.5478 96.3189 31.3627C96.4268 31.1777 96.4756 30.964 96.4585 30.7504C96.4611 30.5228 96.3935 30.2998 96.2649 30.112C96.1362 29.9242 95.9528 29.7806 95.7396 29.7008C94.9898 29.3888 94.2123 29.1481 93.4174 28.9818C92.8677 28.8528 92.3272 28.6871 91.7997 28.4857C91.2801 28.2839 90.795 28.0026 90.3618 27.6517C89.948 27.2986 89.6062 26.869 89.3553 26.3864C89.0746 25.8092 88.9366 25.1731 88.9527 24.5315C88.9291 23.7017 89.133 22.8812 89.5422 22.1589C89.9273 21.5089 90.4561 20.9556 91.088 20.5413C91.7156 20.1207 92.4113 19.8118 93.1442 19.6282C93.8812 19.4353 94.6397 19.3362 95.4017 19.3335C96.5542 19.3323 97.6997 19.5143 98.7951 19.8727C99.8409 20.1994 100.801 20.7544 101.606 21.4975L99.1546 24.5387ZM128.61 25.7465C128.604 25.0419 128.349 24.3621 127.891 23.8269C127.595 23.5244 127.236 23.2908 126.84 23.1429C126.444 22.995 126.019 22.9365 125.598 22.9714C125.139 22.9675 124.684 23.0454 124.253 23.2014C123.862 23.3445 123.499 23.5563 123.182 23.8269C122.887 24.0912 122.643 24.4081 122.463 24.7615C122.303 25.0683 122.203 25.4025 122.168 25.7465H128.61ZM133.247 27.8243V28.4354C133.259 28.6294 133.259 28.8238 133.247 29.0177H122.147C122.179 29.4286 122.31 29.8256 122.528 30.1753C122.744 30.5262 123.025 30.8335 123.355 31.0811C123.699 31.3389 124.083 31.5403 124.491 31.6779C124.909 31.8216 125.349 31.8945 125.792 31.8936C126.494 31.914 127.19 31.7609 127.819 31.4478C128.349 31.1708 128.808 30.7776 129.164 30.2975L132.665 32.5047C131.935 33.5452 130.943 34.3738 129.789 34.906C128.516 35.4792 127.131 35.7617 125.734 35.7328C124.626 35.7392 123.525 35.5569 122.477 35.1936C121.489 34.8569 120.577 34.3265 119.796 33.6334C119.019 32.9322 118.404 32.0714 117.991 31.1099C117.532 30.0286 117.306 28.8623 117.33 27.6877C117.315 26.5275 117.532 25.3762 117.97 24.3014C118.373 23.3366 118.967 22.4635 119.717 21.7348C120.471 21.0225 121.357 20.4655 122.326 20.0955C123.371 19.698 124.48 19.5004 125.598 19.5132C126.657 19.5032 127.709 19.696 128.696 20.0812C129.614 20.4433 130.442 21.0029 131.119 21.7204C131.816 22.4703 132.354 23.3531 132.701 24.3158C133.094 25.4381 133.286 26.6209 133.269 27.8099L133.247 27.8243ZM72.618 24.2295V19.6067H68.3043V16.1772C68.1965 14.2001 67.2618 12.7263 63.4442 12.7263V30.5347C63.4407 31.2483 63.5326 31.9592 63.7174 32.6485C63.8804 33.254 64.175 33.8162 64.5801 34.2949C65.014 34.7717 65.5602 35.1325 66.169 35.3445C67.0195 35.6151 67.9081 35.7462 68.8004 35.7328C70.1003 35.7487 71.3928 35.5345 72.618 35.1001V31.0021C71.8002 31.2117 70.9603 31.3227 70.1161 31.3328C69.8532 31.3653 69.5864 31.3361 69.3368 31.2475C69.0872 31.1589 68.8617 31.0133 68.6782 30.8223C68.3907 30.3555 68.262 29.8082 68.3115 29.2622V24.2295H72.618Z" fill="#008FB4"/>
<path d="M112.987 27.2205L118.667 20.031H112.657L107.624 26.3865V16.3212C107.531 14.2506 106.632 12.7264 102.757 12.7264V35.3878H107.624V28.0689L113.376 35.3878H119.451L112.987 27.2205ZM87.1338 35.3734V25.2362C87.1338 20.8721 83.6685 19.3048 80.5986 19.3048C78.1813 19.1842 75.8034 19.9513 73.9123 21.4617L76.4502 24.6107C77.4721 23.7131 78.7491 23.1576 80.1025 23.0218C81.9502 23.0218 82.3312 24.0787 82.3312 25.4303V25.6891H80.6704C76.3999 25.6891 73.8332 27.5368 73.8332 30.8296C73.8332 34.4244 76.9966 35.359 80.8502 35.359L87.1338 35.3734ZM82.3312 32.1885H80.7352C79.4914 32.1885 78.7293 31.6708 78.7293 30.5996C78.7293 29.5283 79.4914 28.91 81.0155 28.91H82.3312V32.1885ZM45.715 15.5088C45.715 16.2524 46.0104 16.9656 46.5362 17.4914C47.062 18.0173 47.7752 18.3127 48.5189 18.3127C49.2625 18.3127 49.9757 18.0173 50.5015 17.4914C51.0274 16.9656 51.3228 16.2524 51.3228 15.5088C51.3228 14.7651 51.0274 14.0519 50.5015 13.5261C49.9757 13.0002 49.2625 12.7048 48.5189 12.7048C47.7752 12.7048 47.062 13.0002 46.5362 13.5261C46.0104 14.0519 45.715 14.7651 45.715 15.5088ZM46.1895 19.6427H45.981V35.3878H51.0496V22.9571C50.9058 21.0447 49.928 19.6427 46.1895 19.6427ZM62.33 24.3591V19.765C61.4385 19.8009 58.7352 20.1676 57.5417 21.5983V20.0813H52.5091V35.3878H57.5417V28.2774C57.5383 28.2367 57.5383 28.1958 57.5417 28.1551C58.2607 24.7473 61.5104 24.3878 62.3443 24.3591H62.33ZM142.774 33.08H142.493V33.612H142.774C142.81 33.6139 142.846 33.6085 142.88 33.596C142.914 33.5835 142.945 33.5642 142.971 33.5393C142.997 33.5144 143.018 33.4845 143.032 33.4512C143.047 33.418 143.054 33.3822 143.054 33.346C143.054 33.3098 143.047 33.274 143.032 33.2407C143.018 33.2075 142.997 33.1775 142.971 33.1526C142.945 33.1277 142.914 33.1084 142.88 33.0959C142.846 33.0834 142.81 33.078 142.774 33.08ZM143.054 34.5538L142.709 33.8349H142.493V34.5538H142.177V32.8068H142.853C142.924 32.8048 142.996 32.8174 143.062 32.8437C143.129 32.87 143.19 32.9095 143.241 32.9599C143.292 33.0103 143.332 33.0704 143.359 33.1368C143.387 33.2031 143.4 33.2743 143.399 33.346C143.4 33.4506 143.368 33.5528 143.307 33.6381C143.246 33.7233 143.16 33.7871 143.061 33.8205L143.442 34.5394L143.054 34.5538ZM142.723 32.397C142.461 32.384 142.2 32.4501 141.976 32.5866C141.751 32.723 141.572 32.9237 141.463 33.1627C141.353 33.4017 141.318 33.668 141.361 33.9273C141.404 34.1867 141.524 34.4271 141.705 34.6176C141.886 34.8082 142.12 34.9401 142.377 34.9963C142.634 35.0525 142.902 35.0305 143.146 34.9331C143.39 34.8357 143.6 34.6674 143.747 34.4499C143.895 34.2323 143.974 33.9756 143.974 33.7126C143.979 33.544 143.95 33.376 143.89 33.2185C143.83 33.0609 143.739 32.9168 143.622 32.7946C143.506 32.6723 143.367 32.5742 143.213 32.506C143.058 32.4377 142.892 32.4007 142.723 32.397ZM142.723 35.3303C142.403 35.3402 142.086 35.2546 141.814 35.0842C141.543 34.9139 141.327 34.6666 141.196 34.3737C141.066 34.0809 141.025 33.7557 141.079 33.4395C141.133 33.1233 141.28 32.8304 141.502 32.5981C141.723 32.3657 142.008 32.2044 142.321 32.1345C142.634 32.0647 142.961 32.0896 143.26 32.206C143.559 32.3224 143.817 32.525 144 32.7882C144.184 33.0513 144.285 33.3631 144.291 33.6839C144.296 34.106 144.135 34.5132 143.841 34.8163C143.547 35.1195 143.145 35.294 142.723 35.3015V35.3303ZM31.832 26.5087L34.0823 20.0382L36.3326 26.5087H31.832ZM36.4477 12.7264H31.9254L24.9444 31.1747H22.198C20.3256 31.254 18.4703 30.7896 16.8562 29.8375C16.2128 29.4247 15.6907 28.8483 15.3433 28.1674C14.9959 27.4865 14.8357 26.7255 14.8791 25.9623V23.8055H12.6503C10.5772 23.7486 8.59193 22.9561 7.04966 21.5695C5.84474 20.3057 5.08714 18.6819 4.8928 16.9467H20.5157C23.3555 16.9467 24.4052 18.3342 25.0594 19.578C25.3809 20.2019 25.6224 20.8637 25.7784 21.548L27.7555 16.3212C27.7555 16.3212 26.1019 12.7264 20.5157 12.7264H0.5V14.8833C0.5 18.9525 1.70784 22.2166 4.09477 24.5604C5.96844 26.3335 8.3388 27.4923 10.8889 27.8819C11.7876 32.4976 16.0294 35.3734 22.198 35.3734H28.6111L30.049 31.2179H38.0797L39.5176 35.3662H45.0032L36.4477 12.7264Z" fill="#008FB4"/>
</g>
<defs>
<clipPath id="clip0_1498_6513">
<rect width="144" height="48" fill="white" transform="translate(0.5 0.734863)"/>
</clipPath>
</defs>
</svg>
