<svg width="129" height="49" viewBox="0 0 129 49" fill="none" xmlns="http://www.w3.org/2000/svg">
<g clip-path="url(#clip0_1498_6503)">
<path d="M44.672 24.7873C44.6762 22.9949 44.1261 21.2451 43.097 19.7775C42.0679 18.3099 40.6102 17.1965 38.9236 16.5896C39.0771 15.8073 39.1545 15.012 39.1547 14.2148C39.1562 11.576 38.3209 9.00472 36.7689 6.87059C35.2169 4.73646 33.0281 3.14944 30.5173 2.3377C28.0064 1.52596 25.3029 1.53131 22.7953 2.35298C20.2877 3.17465 18.1052 4.77032 16.5616 6.91057C15.4229 6.02812 14.0275 5.54082 12.587 5.5225C11.1464 5.50419 9.73914 5.95584 8.5783 6.80906C7.41746 7.66228 6.56631 8.87057 6.15377 10.2509C5.74123 11.6313 5.78978 13.1084 6.29207 14.4587C4.60152 15.0749 3.14022 16.194 2.10473 17.6656C1.06924 19.1371 0.509231 20.8904 0.50003 22.6898C0.495339 24.4884 1.04832 26.2442 2.08284 27.7155C3.11736 29.1869 4.58255 30.3013 6.27666 30.9054C6.1267 31.6873 6.0502 32.4815 6.04817 33.2777C6.04565 35.9134 6.88025 38.4819 8.43163 40.6127C9.98302 42.7435 12.171 44.3265 14.6802 45.1336C17.1893 45.9406 19.8899 45.93 22.3926 45.1032C24.8953 44.2764 27.0707 42.6761 28.6053 40.5332C29.7407 41.4178 31.1337 41.9081 32.5729 41.9295C34.0121 41.951 35.4191 41.5026 36.5805 40.6522C37.7418 39.8018 38.5941 38.5959 39.0082 37.2173C39.4222 35.8388 39.3754 34.3628 38.8749 33.0133C40.5663 32.3981 42.0286 31.2793 43.0646 29.8076C44.1007 28.3359 44.6608 26.582 44.6695 24.7822" fill="white"/>
<path d="M17.866 20.6848L27.5323 25.0981L37.2884 16.5539C37.4289 15.8488 37.4986 15.1315 37.4963 14.4127C37.4958 12.0853 36.7505 9.81922 35.3693 7.94597C33.9882 6.07273 32.0438 4.69067 29.8207 4.00204C27.5976 3.31341 25.2124 3.35435 23.0142 4.11887C20.816 4.8834 18.9202 6.33137 17.6042 8.25091L15.979 16.6566L17.866 20.6848Z" fill="#FEC514"/>
<path d="M7.86056 30.9211C7.71803 31.6371 7.64665 32.3655 7.64747 33.0957C7.64752 35.4327 8.39669 37.7082 9.78502 39.5881C11.1734 41.4681 13.1278 42.8535 15.3614 43.5411C17.595 44.2287 19.9902 44.1822 22.1954 43.4084C24.4006 42.6347 26.2998 41.1744 27.6141 39.242L29.2238 30.8543L27.0749 26.7465L17.3728 22.3254L7.86056 30.9211Z" fill="#00BFB3"/>
<path d="M7.80175 14.1945L14.4256 15.758L15.8762 8.22531C14.9753 7.54215 13.8773 7.16921 12.7466 7.16233C11.616 7.15545 10.5135 7.51499 9.60434 8.18713C8.69514 8.85927 8.02813 9.80783 7.70317 10.8908C7.37822 11.9738 7.4128 13.1328 7.80175 14.1945" fill="#F04E98"/>
<path d="M7.22678 15.7709C5.77343 16.2613 4.50905 17.1924 3.60948 18.4348C2.70991 19.6772 2.21987 21.169 2.20752 22.7028C2.20648 24.1852 2.65664 25.6328 3.49818 26.8531C4.33971 28.0735 5.53275 29.0088 6.91869 29.5347L16.2127 21.1342L14.5053 17.4885L7.22678 15.7709Z" fill="#1BA9F5"/>
<path d="M29.314 39.2419C30.2134 39.9216 31.3087 40.2921 32.4361 40.2981C33.5635 40.3041 34.6625 39.9453 35.5692 39.2752C36.4759 38.6051 37.1414 37.6597 37.4665 36.5801C37.7916 35.5006 37.7588 34.3449 37.373 33.2856L30.7543 31.7451L29.314 39.2419Z" fill="#93C90E"/>
<path d="M30.6593 30.0019L37.9456 31.7041C39.3998 31.215 40.665 30.2842 41.5648 29.0415C42.4646 27.7988 42.954 26.3063 42.9648 24.7721C42.9635 23.2929 42.5125 21.849 41.6715 20.632C40.8305 19.4151 39.6394 18.4826 38.2562 17.9583L28.7261 26.3023L30.6593 30.0019Z" fill="#0077CC"/>
<path d="M62.2613 32.6463L63.1445 32.5565L63.2061 34.3537C61.2408 34.6504 59.2577 34.8134 57.2703 34.8415C55.0795 34.8415 53.527 34.2073 52.6131 32.939C51.6991 31.6707 51.2429 29.6973 51.2446 27.0186C51.2446 21.6836 53.3653 19.0152 57.6066 19.0135C59.6605 19.0135 61.1924 19.5869 62.2023 20.7336C63.2121 21.8804 63.7187 23.6776 63.7222 26.1252L63.6015 27.8607H53.5579C53.5579 29.5449 53.8625 30.7927 54.4718 31.604C55.0812 32.4153 56.1407 32.8209 57.6503 32.8209C59.1633 32.8261 60.7003 32.7679 62.2613 32.6463ZM61.4397 26.043C61.4397 24.1757 61.1411 22.8569 60.5437 22.0866C59.9464 21.3164 58.9725 20.9305 57.622 20.9288C56.2716 20.9288 55.2566 21.3344 54.5771 22.1457C53.8976 22.957 53.5476 24.2561 53.527 26.043H61.4397Z" fill="#1C1E23"/>
<path d="M66.9057 34.7208V14.6951H69.1882V34.7208H66.9057Z" fill="#1C1E23"/>
<path d="M83.5631 23.9121V31.5886C83.5631 32.3588 85.4578 32.3177 85.4578 32.3177L85.3423 34.3357C83.7377 34.3357 82.4103 34.4692 81.6144 33.6964C79.8909 34.4619 78.024 34.8513 76.1382 34.8389C74.7398 34.8389 73.6744 34.4427 72.9418 33.6502C72.2092 32.8577 71.8438 31.7187 71.8455 30.233C71.8455 28.7507 72.2212 27.6596 72.9726 26.9596C73.724 26.2595 74.9007 25.8316 76.5028 25.6759L81.2807 25.2214V23.9121C81.2807 22.8851 81.0582 22.144 80.6132 21.6887C80.3693 21.4598 80.0816 21.2827 79.7675 21.1679C79.4533 21.0532 79.1192 21.0033 78.7852 21.0212H72.7878V19.0109H78.6337C80.359 19.0109 81.6119 19.4071 82.3924 20.1996C83.1728 20.9921 83.5631 22.2296 83.5631 23.9121ZM74.1844 30.12C74.1844 31.9874 74.9546 32.9211 76.4951 32.9211C77.8847 32.9195 79.2641 32.6825 80.5747 32.2202L81.273 31.9762V26.9544L76.7775 27.3806C75.8635 27.4628 75.2037 27.7264 74.798 28.1714C74.3924 28.6164 74.1878 29.2659 74.1844 30.12Z" fill="#1C1E23"/>
<path d="M92.4743 21.052C90.2612 21.052 89.1546 21.8222 89.1546 23.3626C89.1546 24.0747 89.4114 24.577 89.9249 24.8697C90.4383 25.1624 91.5945 25.467 93.3934 25.7837C95.2009 26.1003 96.4794 26.5419 97.2291 27.1085C97.9788 27.675 98.3545 28.7396 98.3562 30.3023C98.3562 31.8667 97.8538 33.0135 96.8491 33.7426C95.8444 34.4717 94.3784 34.8372 92.4512 34.8389C91.1932 34.8389 86.9929 34.3716 86.9929 34.3716L87.1161 32.3947C89.5295 32.6258 91.2727 32.7978 92.4512 32.7978C93.6296 32.7978 94.5256 32.6104 95.1444 32.2355C95.7631 31.8607 96.0712 31.2317 96.0712 30.3485C96.0712 29.4653 95.8145 28.8671 95.2805 28.5513C94.7464 28.2355 93.5962 27.9377 91.8119 27.6527C90.0276 27.3678 88.7567 26.9519 88.007 26.405C87.2573 25.8581 86.8799 24.8415 86.8799 23.3601C86.8799 21.8787 87.3934 20.7927 88.4486 20.0738C89.5038 19.3549 90.7978 19.0083 92.3588 19.0083C93.5962 19.0083 97.8915 19.3241 97.8915 19.3241V21.3139C95.6245 21.2137 93.7708 21.052 92.4743 21.052Z" fill="#1C1E23"/>
<path d="M109.358 21.2933H104.518V28.5693C104.518 30.3134 104.645 31.4593 104.898 32.0071C105.155 32.5565 105.756 32.8286 106.708 32.8286L109.417 32.6463L109.571 34.5334C108.545 34.723 107.507 34.8354 106.464 34.8697C104.883 34.8697 103.787 34.4837 103.178 33.7118C102.569 32.9399 102.265 31.4688 102.266 29.2985V21.2933H100.115V19.3164H102.277V14.6592H104.528V19.3164H109.358V21.2933Z" fill="#1C1E23"/>
<path d="M112.531 17.3729V14.7234H114.813V17.3729H112.531ZM112.531 34.7208V19.3164H114.813V34.7208H112.531Z" fill="#1C1E23"/>
<path d="M124.7 19.0109C125.84 19.0596 126.976 19.1822 128.1 19.378L128.829 19.4679L128.739 21.3241C127.546 21.173 126.346 21.0822 125.145 21.052C123.419 21.052 122.248 21.4628 121.63 22.2843C121.012 23.1059 120.702 24.6275 120.7 26.8492C120.7 29.0742 120.99 30.6215 121.568 31.491C122.147 32.3605 123.353 32.797 125.188 32.8004L128.783 32.5282L128.875 34.4153C127.476 34.6523 126.062 34.7947 124.644 34.8415C122.272 34.8415 120.634 34.2321 119.73 33.0135C118.826 31.7948 118.374 29.7409 118.374 26.8517C118.374 23.9608 118.861 21.9317 119.835 20.7644C120.809 19.5971 122.431 19.0126 124.7 19.0109Z" fill="#1C1E23"/>
</g>
<defs>
<clipPath id="clip0_1498_6503">
<rect width="128" height="48" fill="white" transform="translate(0.5 0.734863)"/>
</clipPath>
</defs>
</svg>
