<svg width="134" height="49" viewBox="0 0 134 49" fill="none" xmlns="http://www.w3.org/2000/svg">
<g clip-path="url(#clip0_1498_6499)">
<path d="M15.135 6.73486H0.5V41.7349L15.135 6.73486Z" fill="#FA0C00"/>
<path d="M25.4321 6.73486H40.048V41.7349L25.4321 6.73486Z" fill="#FA0C00"/>
<path d="M20.2837 19.6346L29.5986 41.7349H23.4872L20.7032 34.6987H13.8862L20.2837 19.6346Z" fill="#FA0C00"/>
<path d="M63.9236 28.9926L65.6493 33.9409C65.7065 34.0648 65.7923 34.122 65.9448 34.122H69.2627C69.4439 34.122 69.4725 34.0362 69.4439 33.8551L62.5888 14.8153C62.5602 14.6628 62.5316 14.6342 62.379 14.6342H58.2603C58.1459 14.6342 58.0791 14.72 58.0791 14.8439C58.0219 15.845 57.9361 16.1501 57.8122 16.4457L51.7007 33.8265C51.6721 34.0362 51.7389 34.122 51.9105 34.122H54.8756C55.0568 34.122 55.1426 34.0648 55.2093 33.8837L56.8397 28.9926H63.9236ZM57.7836 25.7606C58.6798 23.0528 59.862 19.5824 60.3387 17.5993H60.3673C60.9584 19.6777 62.3504 23.7965 62.9797 25.7606H57.7836Z" fill="#FA0C00"/>
<path d="M78.2567 34.4176C80.0396 34.4176 81.9369 34.0934 83.8628 33.2639C84.0154 33.2067 84.044 33.14 84.044 32.997C83.9867 32.4631 83.92 31.6908 83.92 31.0997V13.1754C83.92 13.061 83.92 13.0038 83.777 13.0038H80.5449C80.421 13.0038 80.3638 13.061 80.3638 13.2135V19.2868C79.8584 19.2296 79.5057 19.201 79.0862 19.201C73.871 19.201 70.6675 22.6428 70.6675 26.9428C70.6675 31.9291 73.9568 34.4176 78.2567 34.4176V34.4176ZM80.3638 31.0997C79.8298 31.2713 79.2387 31.338 78.6381 31.338C76.2736 31.338 74.3381 30.0032 74.3381 26.7616C74.3381 23.8918 76.3308 22.1947 78.9718 22.1947C79.5057 22.1947 79.9729 22.2519 80.3638 22.4045V31.0997Z" fill="#FA0C00"/>
<path d="M94.3548 19.201C89.9024 19.201 87.147 22.6143 87.147 26.8284C87.147 30.5944 89.3398 34.4176 94.2881 34.4176C98.4736 34.4176 101.41 31.3381 101.41 26.7331C101.41 22.6715 98.9217 19.201 94.3548 19.201ZM94.1737 22.1948C96.6907 22.1948 97.7585 24.359 97.7585 26.8284C97.7585 29.8793 96.1854 31.3953 94.3548 31.3953C92.0952 31.3953 90.7604 29.498 90.7604 26.7617C90.7604 23.9491 92.181 22.1948 94.1737 22.1948V22.1948Z" fill="#FA0C00"/>
<path d="M104.752 13.0038C104.628 13.0038 104.542 13.061 104.542 13.2135V33.5023C104.542 33.5881 104.628 33.7406 104.752 33.7692C106.172 34.2078 107.66 34.4176 109.195 34.4176C113.59 34.4176 117.861 31.6908 117.861 26.1991C117.861 22.2233 115.134 19.201 110.863 19.201C109.881 19.201 108.966 19.3536 108.165 19.6205L108.127 13.2421C108.127 13.0324 108.07 13.0038 107.86 13.0038H104.752ZM114.21 26.5614C114.21 29.8507 111.96 31.3952 109.528 31.3952C109.023 31.3952 108.575 31.3666 108.165 31.2427V22.5856C108.632 22.4045 109.195 22.2519 110.234 22.2519C112.579 22.2519 114.21 23.7393 114.21 26.5614Z" fill="#FA0C00"/>
<path d="M129.923 27.6293C131.372 27.6293 132.564 27.6007 132.974 27.5053C133.127 27.4767 133.184 27.4195 133.213 27.2956C133.298 26.9714 133.336 26.2945 133.336 25.465C133.336 22.6429 131.639 19.201 127.254 19.201C122.773 19.201 120.284 22.8526 120.284 26.9714C120.284 30.623 122.21 34.4176 127.606 34.4176C129.628 34.4176 130.934 34.0935 132.059 33.5595C132.173 33.5023 132.23 33.407 132.23 33.2354V30.766C132.23 30.623 132.145 30.5944 132.059 30.6516C130.934 31.1283 129.713 31.3667 128.379 31.3667C125.356 31.3667 123.983 29.6982 123.898 27.6293H129.923ZM123.898 25.0741C124.136 23.6249 125.051 22.0518 127.101 22.0518C129.361 22.0518 129.952 23.9491 129.952 24.8072C129.952 24.8358 129.952 24.9597 129.952 25.0455C129.828 25.0741 129.447 25.0741 128.321 25.0741H123.898Z" fill="#FA0C00"/>
</g>
<defs>
<clipPath id="clip0_1498_6499">
<rect width="133" height="48" fill="white" transform="translate(0.5 0.734863)"/>
</clipPath>
</defs>
</svg>
