<svg width="135" height="49" viewBox="0 0 135 49" fill="none" xmlns="http://www.w3.org/2000/svg">
<g clip-path="url(#clip0_1498_6509)">
<path fill-rule="evenodd" clip-rule="evenodd" d="M14.5838 25.3537C14.5838 18.4464 13.4244 15.5831 10.237 15.5831C7.42584 15.5831 6.00588 17.5904 6.00588 24.5569C6.00588 31.4345 7.1071 34.2685 10.3528 34.2685C13.2217 34.2685 14.5838 32.2906 14.5838 25.3537ZM0.5 25.1768C0.5 17.4132 5.74505 14.3434 10.411 14.3434C15.3952 14.3434 20.0896 17.3839 20.0896 24.7044C20.0896 32.5267 14.8446 35.5082 10.1787 35.5082C5.19466 35.5082 0.5 32.2613 0.5 25.1768Z" fill="#147BD1"/>
<path fill-rule="evenodd" clip-rule="evenodd" d="M43.6914 25.6785L48.6466 25.4128C48.6466 21.8412 48.1833 20.5422 46.4444 20.5422C44.9663 20.5422 43.8072 21.9591 43.6914 25.6785ZM39.1128 27.4201C39.1128 22.2838 42.8508 19.4205 46.6761 19.4205C50.6286 19.4205 53.109 21.4096 53.2502 26.6137C53.2531 26.7149 53.1722 26.8002 53.0725 26.8002H43.8734C43.7736 26.8002 43.6929 26.8855 43.6954 26.9869C43.825 31.6758 45.6136 32.9697 48.5598 32.9697C49.9978 32.9697 51.1571 32.6294 52.1274 32.191C52.1989 32.1586 52.2817 32.1776 52.3327 32.2384L52.7181 32.7001C52.7762 32.7698 52.7755 32.8728 52.7141 32.9391C51.657 34.0746 49.5049 35.5083 46.6761 35.5083C41.6337 35.5083 39.1128 32.4383 39.1128 27.4201Z" fill="#147BD1"/>
<path fill-rule="evenodd" clip-rule="evenodd" d="M98.7864 27.6563C98.7864 21.6935 97.6565 20.5718 95.6857 20.5718C93.8599 20.5718 92.7878 21.9297 92.7878 27.0069C92.7878 33.0584 93.744 34.3569 95.8594 34.3569C97.5985 34.3569 98.7864 33.3239 98.7864 27.6563ZM87.9194 27.5088C87.9194 21.841 91.8604 19.4205 95.7728 19.4205C99.9747 19.4205 103.655 21.9887 103.655 27.3611C103.655 33.0287 99.7718 35.5086 95.7728 35.5086C91.5708 35.5086 87.9194 32.9105 87.9194 27.5088Z" fill="#147BD1"/>
<path fill-rule="evenodd" clip-rule="evenodd" d="M116.071 27.6563C116.071 21.6935 114.941 20.5718 112.971 20.5718C111.145 20.5718 110.073 21.9297 110.073 27.0069C110.073 33.0584 111.029 34.3569 113.145 34.3569C114.883 34.3569 116.071 33.3239 116.071 27.6563ZM105.204 27.5088C105.204 21.841 109.145 19.4205 113.057 19.4205C117.259 19.4205 120.94 21.9887 120.94 27.3611C120.94 33.0287 117.057 35.5086 113.057 35.5086C108.856 35.5086 105.204 32.9105 105.204 27.5088Z" fill="#147BD1"/>
<path fill-rule="evenodd" clip-rule="evenodd" d="M65.1631 19.4205C63.0477 19.4205 61.1351 20.3948 59.5993 21.5163H59.4833L59.5403 19.6551C59.5447 19.5124 59.424 19.3992 59.285 19.4151L55.2298 19.8834C55.1107 19.897 55.0205 19.9995 55.0205 20.1218V34.92C55.0205 35.0493 55.1234 35.1539 55.2501 35.1539H59.3984C59.5251 35.1539 59.628 35.0493 59.628 34.92V22.5495C60.2655 22.4018 61.3088 22.1659 62.3234 22.1659C63.6852 22.1659 64.3229 22.7267 64.3229 24.5273V34.92C64.3229 35.0493 64.4258 35.1539 64.5526 35.1539H68.7298C68.8565 35.1539 68.9597 35.0493 68.9597 34.92V23.3763C68.9597 20.7195 67.6266 19.4205 65.1631 19.4205Z" fill="#147BD1"/>
<path fill-rule="evenodd" clip-rule="evenodd" d="M81.3919 32.5268C80.9281 32.704 80.1457 33.1764 78.9576 33.1764C76.7551 33.1764 75.596 31.6708 75.596 27.0364C75.596 22.1656 77.0449 20.6012 79.1313 20.6012C80.2038 20.6012 80.8992 21.2211 81.3919 21.8409V32.5268ZM85.9995 16.5277C85.9995 15.0019 86.0505 13.6 86.0774 13.0246C86.0852 12.8562 85.9449 12.721 85.7803 12.736L81.6066 13.2188C81.485 13.2299 81.3919 13.3336 81.3919 13.4582V17.5905C81.3919 18.653 81.4498 19.7452 81.4498 19.7452C80.8413 19.568 80.0298 19.4205 79.2476 19.4205C74.7267 19.4205 70.8432 21.8707 70.8432 28.0106C70.8432 33.3829 73.6542 35.5083 76.5233 35.5083C78.5517 35.5083 80.1746 34.6818 81.4208 33.5898H81.5367L81.4779 35.219C81.4712 35.3926 81.62 35.5299 81.7886 35.5056L85.7645 35.0534C85.8992 35.0344 85.9995 34.9168 85.9995 34.7782V16.5277Z" fill="#147BD1"/>
<path fill-rule="evenodd" clip-rule="evenodd" d="M131.709 19.4205C130.029 19.4205 128.377 20.7195 127.479 21.6935H127.363L127.419 19.7098C127.424 19.541 127.281 19.4067 127.116 19.4255L123.109 19.8836C122.99 19.8972 122.9 19.9998 122.9 20.1223V34.8762C122.9 35.0296 123.022 35.1539 123.173 35.1539H127.235C127.385 35.1539 127.508 35.0296 127.508 34.8762V22.9039C127.913 22.52 128.58 22.1361 129.101 22.1361C129.362 22.1361 129.536 22.1953 129.71 22.52C130.261 23.4351 130.696 23.9639 131.941 23.9639C133.072 23.9639 134.082 23.0514 134.082 21.6345C134.082 20.1879 133.1 19.4205 131.709 19.4205Z" fill="#147BD1"/>
<path fill-rule="evenodd" clip-rule="evenodd" d="M29.15 34.3275C28.1646 34.3275 27.3824 33.8846 26.8605 33.2648V22.5199C27.3242 22.3429 28.0488 21.9885 29.2079 21.9885C31.4104 21.9885 32.6566 23.4644 32.6566 27.6856C32.6566 33.0878 31.4393 34.3275 29.15 34.3275ZM31.7291 19.4206C29.7004 19.4206 28.078 20.3946 26.8605 21.4574H26.7157L26.7716 19.6911C26.7768 19.5302 26.6404 19.402 26.4836 19.4202L22.4623 19.8832C22.3429 19.8971 22.2529 19.9999 22.2529 20.1222V41.4964C22.2529 41.6396 22.3752 41.7512 22.5151 41.7351L26.6514 41.2591C26.7705 41.2455 26.8605 41.1427 26.8605 41.0204V37.0138C26.8605 35.9808 26.8318 35.2133 26.8318 35.2133C27.4692 35.3902 28.4257 35.5082 29.0342 35.5082C33.8736 35.5082 37.409 32.8221 37.409 26.6821C37.409 21.2802 34.4822 19.4206 31.7291 19.4206Z" fill="#147BD1"/>
</g>
<defs>
<clipPath id="clip0_1498_6509">
<rect width="134" height="48" fill="white" transform="translate(0.5 0.734863)"/>
</clipPath>
</defs>
</svg>
