<svg width="105" height="49" viewBox="0 0 105 49" fill="none" xmlns="http://www.w3.org/2000/svg">
<g clip-path="url(#clip0_1498_6516)">
<path d="M7.53722 29.3834H0.504073V32.9001H7.53722V29.3834Z" fill="#404041"/>
<path d="M18.0838 29.3834H11.0551V32.9001H18.0838V29.3834Z" fill="#404041"/>
<path d="M18.0856 22.3504H0.5V25.8671H18.0856V22.3504Z" fill="#404041"/>
<path d="M11.0548 15.3178H0.504077V18.8343H11.0548V15.3178Z" fill="#404041"/>
<path d="M18.0874 15.3178H14.571V18.8343H18.0874V15.3178Z" fill="#404041"/>
<path d="M69.1383 15.2978C63.4906 15.2978 60.5738 19.2916 60.5738 24.2184C60.5738 29.1453 63.4187 33.1396 69.1383 33.1396C74.8579 33.1396 77.7029 29.1453 77.7029 24.2184C77.7031 19.2916 74.7858 15.2978 69.1383 15.2978ZM73.4111 24.2343C73.4071 27.4025 72.3396 29.9686 69.1383 29.9686C65.9371 29.9686 64.8694 27.4027 64.8661 24.2343V24.2186C64.8694 21.0506 65.9373 18.4848 69.1386 18.4848C72.3396 18.4848 73.4071 21.0506 73.4111 24.2186V24.2266C73.4111 24.2292 73.4111 24.2317 73.4111 24.2343Z" fill="#404041"/>
<path d="M43.8504 32.8998V8.23555C43.8504 8.23555 47.1035 7.77344 47.3558 7.7395C47.6415 7.7009 48.0209 7.90433 48.0209 8.30654V17.4496C48.6959 16.8078 49.4393 16.2905 50.2495 15.8963C51.0604 15.5025 52.0112 15.3053 53.1035 15.3053C54.0493 15.3053 54.8872 15.4657 55.6188 15.7867C56.3509 16.107 56.9616 16.5578 57.4513 17.1371C57.9409 17.7172 58.3125 18.4093 58.5658 19.2142C58.8189 20.0191 58.9456 20.9055 58.9456 21.8737V32.8996H54.7749V21.8737C54.7749 20.8157 54.53 19.9966 54.0404 19.4165C53.5506 18.8371 52.816 18.5471 51.8364 18.5471C51.116 18.5471 50.441 18.7104 49.8109 19.0372C49.1802 19.3637 48.5837 19.8079 48.0209 20.3711V32.8998H43.8504Z" fill="#404041"/>
<path d="M99.5292 33.1373C96.6592 33.1373 94.8605 31.4671 94.8605 28.351V19.1161H91.626C91.626 19.1161 92.3135 16.7383 92.3679 16.5511C92.4224 16.3641 92.5647 16.1631 92.8502 16.1234C93.1357 16.0837 94.8565 15.8436 94.8565 15.8436L95.6514 10.7869C95.6514 10.7869 97.9868 10.4577 98.357 10.4025C98.7066 10.3501 99.0237 10.6019 99.0237 10.9828V15.8436H103.114V19.1161H99.0237V28.2266C99.0237 29.4705 99.781 29.9459 100.507 29.9459C100.951 29.9459 101.558 29.7103 102.012 29.5C102.292 29.3704 102.726 29.4665 102.838 29.8576C102.937 30.2041 103.465 32.0434 103.465 32.0434C103.01 32.3371 101.572 33.1373 99.5292 33.1373Z" fill="#404041"/>
<path d="M89.3352 19.1712C88.5223 18.9072 86.9945 18.4846 85.5412 18.4846C84.0604 18.4846 82.8952 18.9962 82.8952 20.2274C82.8952 21.7652 85.4063 22.2129 87.1251 22.8399C88.2743 23.2589 91.3559 24.076 91.3559 27.3903C91.3559 31.4164 88.0125 33.1377 84.4459 33.1377C80.8789 33.1377 78.7716 31.811 78.7716 31.811C78.7716 31.811 79.3249 29.8566 79.4369 29.4708C79.5383 29.1236 79.9418 29.0018 80.1989 29.1005C81.1169 29.4544 82.7745 29.9462 84.6482 29.9462C86.5452 29.9462 87.463 29.367 87.463 28.1322C87.463 26.4888 84.9014 25.9865 83.2071 25.4521C82.04 25.0843 78.9508 24.2264 78.9508 20.5813C78.9508 16.9905 82.1039 15.3058 85.4737 15.3058C88.3262 15.3058 89.7254 15.9023 90.7705 16.4348C90.7705 16.4348 90.1881 18.4644 90.1016 18.7668C89.9996 19.1262 89.7047 19.291 89.3352 19.1712Z" fill="#404041"/>
<path d="M42.223 15.9002C42.223 15.5118 41.8911 15.2895 41.5746 15.3257C40.175 15.4861 39.1764 16.1447 38.5304 16.7579C37.2619 15.764 35.5011 15.2895 33.5249 15.2895C29.5628 15.2895 26.4672 17.2018 26.4672 21.3716C26.4672 23.7653 27.4861 25.4147 29.1042 26.3857C27.9025 26.9545 27.1021 28.1616 27.1021 29.3482C27.1021 31.3333 28.6703 31.9549 28.6703 31.9549C28.6703 31.9549 25.9283 33.2858 25.9283 35.9483C25.9283 39.3568 29.065 40.7349 32.8978 40.7349C38.4226 40.7349 42.2237 38.453 42.2237 34.263C42.2237 31.6843 40.2504 30.2607 35.9501 30.0914C33.3983 29.9907 31.7453 29.8989 31.3358 29.7633C30.7947 29.5836 30.5287 29.1504 30.5287 28.6721C30.5287 28.1441 30.9624 27.6414 31.6461 27.2962C32.2425 27.4018 32.8718 27.4539 33.5254 27.4539C37.4909 27.4539 40.5834 25.5472 40.5834 21.3718C40.5834 20.3593 40.4006 19.4804 40.0683 18.7294C40.6508 18.4186 41.3676 18.1999 42.2235 18.1999C42.2235 18.1999 42.223 16.2545 42.223 15.9002ZM31.3041 32.9217C31.3041 32.9217 33.3847 33.0005 35.4639 33.0968C37.7997 33.2048 38.5275 33.7082 38.5275 34.9177C38.5275 36.3954 36.4977 37.8327 33.6609 37.8327C30.9682 37.8327 29.6231 36.8958 29.6231 35.3361C29.6231 34.4411 30.0957 33.4399 31.3041 32.9217ZM33.5325 24.5433C31.6555 24.5433 30.1911 23.5463 30.1911 21.3716C30.1911 19.1966 31.6568 18.1997 33.5325 18.1997C35.4084 18.1997 36.8739 19.194 36.8739 21.3716C36.8739 23.5492 35.4102 24.5433 33.5325 24.5433Z" fill="#404041"/>
</g>
<defs>
<clipPath id="clip0_1498_6516">
<rect width="104" height="48" fill="white" transform="translate(0.5 0.734863)"/>
</clipPath>
</defs>
</svg>
