<svg width="157" height="49" viewBox="0 0 157 49" fill="none" xmlns="http://www.w3.org/2000/svg">
<g clip-path="url(#clip0_1498_6501)">
<path d="M13.2808 26.926C13.2808 24.3195 11.3204 22.4877 8.91229 22.4877C6.50421 22.4877 4.5438 24.3504 4.5438 26.926C4.5438 29.4707 6.50421 31.3644 8.91229 31.3644C11.3228 31.362 13.2808 29.5324 13.2808 26.926ZM13.3152 34.6837V32.6664C12.1271 34.0635 10.3586 34.9307 8.24078 34.9307C3.84031 34.9307 0.5 31.5164 0.5 26.926C0.5 22.3641 3.96822 18.8904 8.33917 18.8904C10.3955 18.8904 12.1297 19.76 13.3176 21.1238V19.1684H17.268V34.6837H13.3152Z" fill="black"/>
<path d="M36.4562 31.2385C35.0738 31.2385 34.6901 30.7418 34.6901 29.4398V22.5517H37.2285V19.1684H34.6901V15.3834H30.6414V19.1684H25.4267V18.2251C25.4267 16.9207 25.9409 16.4241 27.3552 16.4241H28.2432V13.4137H26.295C22.9547 13.4137 21.3805 14.4686 21.3805 17.6952V19.166H19.1323V22.5494H21.3805V34.6812H25.4293V22.5494H30.6438V30.1525C30.6438 33.3174 31.8959 34.6837 35.1722 34.6837H37.2605V31.2385H36.4562Z" fill="black"/>
<path d="M50.9762 25.5289C50.6883 23.5116 48.9838 22.3022 46.9938 22.3022C45.0014 22.3022 43.3633 23.4807 42.9476 25.5289H50.9762ZM42.9132 27.95C43.2034 30.2452 44.9055 31.5496 47.0578 31.5496C48.7599 31.5496 50.0784 30.7726 50.8482 29.5324H54.9929C54.0287 32.8208 50.9762 34.9307 46.9619 34.9307C42.1113 34.9307 38.707 31.6423 38.707 26.9568C38.707 22.2713 42.3057 18.8879 47.0602 18.8879C51.8469 18.8879 55.3151 22.3023 55.3151 26.9568C55.3151 27.299 55.2831 27.6388 55.2192 27.95H42.9132Z" fill="black"/>
<path d="M81.0562 26.926C81.0562 24.4121 79.0958 22.4877 76.6877 22.4877C74.2797 22.4877 72.3192 24.3504 72.3192 26.926C72.3192 29.4707 74.2797 31.3644 76.6877 31.3644C79.0958 31.362 81.0562 29.4398 81.0562 26.926ZM68.3345 19.1684H72.2847V21.1856C73.4728 19.7576 75.2389 18.8904 77.3592 18.8904C81.6957 18.8904 85.1 22.3356 85.1 26.8951C85.1 31.457 81.6317 34.9331 77.2633 34.9331C75.2389 34.9331 73.5688 34.1561 72.4127 32.8541V41.068H68.3345V19.1684Z" fill="black"/>
<path d="M99.3394 26.926C99.3394 24.3195 97.3814 22.4877 94.9707 22.4877C92.5627 22.4877 90.6023 24.3504 90.6023 26.926C90.6023 29.4707 92.5627 31.3644 94.9707 31.3644C97.3814 31.362 99.3394 29.5324 99.3394 26.926ZM99.374 34.6837V32.6664C98.1859 34.0635 96.4169 34.9307 94.299 34.9307C89.8988 34.9307 86.5586 31.5164 86.5586 26.926C86.5586 22.3641 90.0268 18.8904 94.3953 18.8904C96.4515 18.8904 98.1859 19.76 99.374 21.1238V19.1684H103.325V34.6837H99.374Z" fill="black"/>
<path d="M61.2135 20.689C61.2135 20.689 62.2196 18.8904 64.6817 18.8904C65.7345 18.8904 66.4159 19.2396 66.4159 19.2396V23.1981C66.4159 23.1981 64.9301 22.3118 63.565 22.49C62.1998 22.6682 61.3365 23.88 61.3414 25.5004V34.686H57.2632V19.1707H61.2135V20.689Z" fill="black"/>
<path d="M121.774 19.1683L111.8 41.018H107.594L111.51 32.5713L104.889 19.1683H109.656L113.53 28.1235L117.505 19.1683H121.774Z" fill="black"/>
<path d="M153.614 18.8167L143.726 13.3044C140.823 11.6863 137.195 13.7083 137.195 16.9468V17.5123C137.195 18.0231 137.477 18.4959 137.935 18.7502L139.802 19.7909C140.35 20.0974 141.034 19.7148 141.034 19.1042V17.6976C141.034 16.9943 141.822 16.5548 142.451 16.9064L151.016 21.6822C151.646 22.0338 151.646 22.9129 151.016 23.2622L142.451 28.038C141.822 28.3896 141.034 27.95 141.034 27.2467V26.4983C141.034 23.2598 137.406 21.2355 134.502 22.8559L124.614 28.3682C121.711 29.9863 121.711 34.035 124.614 35.653L134.502 41.1653C137.404 42.7834 141.034 40.7614 141.034 37.5229V36.9574C141.034 36.4466 140.752 35.9761 140.294 35.7195L138.427 34.6764C137.879 34.37 137.195 34.7525 137.195 35.3632V36.7698C137.195 37.4731 136.408 37.9126 135.778 37.5609L127.213 32.7852C126.584 32.4335 126.584 31.5545 127.213 31.2028L135.778 26.427C136.408 26.0753 137.195 26.5149 137.195 27.2182V27.9667C137.195 31.2051 140.823 33.2295 143.726 31.6091L153.614 26.0968C156.516 24.4834 156.516 20.4348 153.614 18.8167Z" fill="black"/>
</g>
<defs>
<clipPath id="clip0_1498_6501">
<rect width="156" height="48" fill="white" transform="translate(0.5 0.734863)"/>
</clipPath>
</defs>
</svg>
