<svg width="170" height="49" viewBox="0 0 170 49" fill="none" xmlns="http://www.w3.org/2000/svg">
<g clip-path="url(#clip0_1498_6510)">
<path d="M167.301 21.0713C168.289 22.1193 168.786 23.5402 168.786 25.3405V34.8113H165.121V26.4143C165.121 25.3534 164.822 24.5175 164.223 23.9067C163.623 23.2959 162.814 22.9873 161.788 22.9873C160.577 23.0066 159.614 23.4245 158.907 24.2346C158.199 25.0448 157.842 26.0863 157.842 27.353V34.8113H154.203V13.7673H157.842V22.5308C158.869 20.5441 160.672 19.5346 163.247 19.496C164.956 19.496 166.313 20.0168 167.301 21.0713ZM146.108 22.7558C144.897 22.7558 143.909 23.1737 143.157 24.0032C142.405 24.839 142.023 25.9127 142.023 27.2372C142.023 28.6003 142.405 29.6933 143.157 30.5292C143.916 31.3586 144.897 31.7765 146.115 31.7765C147.906 31.7765 149.251 31.1786 150.149 29.9891L152.418 31.8923C151.749 32.876 150.831 33.6604 149.761 34.1619C148.658 34.6891 147.383 34.9527 145.924 34.9527C144.451 34.9527 143.138 34.6313 141.991 33.9883C140.863 33.3646 139.932 32.4195 139.32 31.2814C138.683 30.1177 138.364 28.7803 138.364 27.2694C138.364 25.7391 138.689 24.3825 139.333 23.2123C139.951 22.0614 140.888 21.1227 142.023 20.4926C143.17 19.8497 144.489 19.5282 145.987 19.5282C147.351 19.5282 148.569 19.7661 149.639 20.2483C150.71 20.7305 151.583 21.4185 152.259 22.3058L150.047 24.4339C149.021 23.3152 147.715 22.7558 146.108 22.7558ZM136.038 19.6375V34.8113H132.398V32.4002C131.882 33.2103 131.162 33.8726 130.314 34.3162C129.466 34.7598 128.491 34.9849 127.389 34.9849C125.967 34.9849 124.724 34.657 123.647 34.0076C122.576 33.3582 121.735 32.4388 121.142 31.2557C120.55 30.0727 120.25 28.716 120.25 27.1858C120.25 25.6749 120.55 24.3375 121.149 23.1737C121.742 22.01 122.583 21.1099 123.654 20.4669C124.724 19.8239 125.961 19.5025 127.363 19.5025C128.466 19.5025 129.447 19.7275 130.301 20.1711C131.156 20.6148 131.882 21.2706 132.398 22.0871V19.6503L136.038 19.6375ZM131.079 30.7671C131.844 30.0212 132.284 29.0311 132.398 27.803V26.7293C132.284 25.4948 131.85 24.5111 131.085 23.7653C130.321 23.0194 129.352 22.6465 128.173 22.6465C126.923 22.6465 125.904 23.0773 125.12 23.9389C124.336 24.8004 123.934 25.9127 123.915 27.2694C123.934 28.6325 124.336 29.7383 125.12 30.5999C125.904 31.4615 126.923 31.8923 128.173 31.8923C129.345 31.8923 130.314 31.5193 131.079 30.7671ZM116.585 21.5921C117.79 22.9744 118.389 24.9097 118.389 27.4044C118.389 27.8931 118.376 28.266 118.363 28.5103H107.305C107.547 29.5905 108.044 30.4327 108.803 31.05C109.555 31.6672 110.485 31.9694 111.588 31.9694C112.34 31.9694 113.092 31.8215 113.787 31.5258C114.482 31.2429 115.106 30.8121 115.623 30.2656L117.579 32.3359C116.821 33.1782 115.89 33.834 114.845 34.2648C113.774 34.7213 112.582 34.9463 111.276 34.9463C109.746 34.9463 108.395 34.6248 107.228 33.9819C106.088 33.3646 105.144 32.4195 104.526 31.275C103.889 30.1113 103.576 28.7739 103.576 27.263C103.576 25.752 103.895 24.4082 104.545 23.238C105.17 22.0871 106.107 21.1356 107.248 20.499C108.408 19.8432 109.721 19.5217 111.193 19.5217C113.583 19.5217 115.381 20.2161 116.585 21.5921ZM115.062 26.0478C115.024 24.929 114.66 24.0417 113.972 23.3795C113.284 22.7172 112.366 22.3829 111.225 22.3829C110.16 22.3829 109.268 22.7108 108.548 23.3602C107.828 24.0096 107.388 24.9033 107.216 26.0413H115.062V26.0478ZM99.6182 20.3062C100.485 19.7854 101.498 19.5153 102.658 19.496V23.0709C101.11 22.9744 99.8732 23.3409 98.949 24.1639C98.0248 24.9869 97.5595 26.0992 97.5595 27.4944V34.8113H93.9201V19.6375H97.5595V22.5565C98.0694 21.5728 98.7514 20.8205 99.6182 20.3062ZM91.1921 33.8726C90.0002 34.612 88.7446 34.9785 87.438 34.9785C86.1505 34.9785 85.0924 34.5927 84.2766 33.8276C83.4544 33.0624 83.0465 31.9308 83.0465 30.4392V16.0884L86.6604 15.6511V20.2547H90.9435V22.9487H86.6604V29.7898C86.6604 30.4906 86.7879 30.9857 87.0492 31.275C87.3105 31.5708 87.6993 31.7122 88.222 31.7122C88.7828 31.7122 89.4903 31.5065 90.3508 31.0886L91.1921 33.8726ZM76.303 19.6375H79.9169V28.1438C79.9169 33.1074 76.4942 34.9527 73.0206 34.9527C69.5469 34.9527 66.1305 33.1074 66.1305 28.1438V19.6375H69.7444V28.2724C69.7444 30.1756 71.1467 31.7187 73.0269 31.7187C74.9072 31.7187 76.3094 30.1756 76.3094 28.2724L76.303 19.6375ZM58.6414 16.0369C60.2029 16.8921 61.5032 18.1587 62.4083 19.6953C63.3261 21.2449 63.7786 22.968 63.7786 24.8583C63.7786 26.7486 63.3197 28.4717 62.4083 30.0341C61.5032 31.5836 60.2029 32.8631 58.6414 33.7375C57.0416 34.6441 55.276 35.1006 53.332 35.1006C51.388 35.1006 49.6225 34.6441 48.0291 33.7375C46.4675 32.8631 45.1673 31.5836 44.2622 30.0341C43.3507 28.4717 42.8918 26.7486 42.8918 24.8583C42.8918 22.968 43.3507 21.2449 44.2622 19.6953C45.1673 18.1522 46.4675 16.8921 48.0291 16.0369C49.6225 15.1496 51.3944 14.706 53.332 14.706C55.276 14.6996 57.0479 15.1432 58.6414 16.0369ZM50.0623 19.001C49.0489 19.5796 48.2075 20.4219 47.6275 21.4378C47.0284 22.4729 46.7288 23.611 46.7288 24.8583C46.7288 26.1056 47.0348 27.2501 47.6403 28.2917C48.2267 29.314 49.068 30.1627 50.075 30.7606C51.0948 31.365 52.1975 31.6672 53.3958 31.6672C54.5494 31.6736 55.6839 31.3586 56.6719 30.7606C57.6726 30.1627 58.4948 29.314 59.0684 28.2917C59.6612 27.2437 59.9607 26.0606 59.948 24.8583C59.948 23.611 59.6548 22.4729 59.0684 21.4378C58.5011 20.4283 57.6726 19.586 56.6719 19.001C55.6776 18.4094 54.5494 18.1008 53.3958 18.1072C52.223 18.1008 51.0757 18.4094 50.0623 19.001ZM15.4656 6.19324C20.6219 6.19324 28.4107 7.7942 32.031 11.4655C32.9488 12.3978 34.1534 14.2173 34.1534 16.8921C34.1534 21.6371 30.3738 28.9218 26.2053 33.1524C24.051 35.3385 20.6219 38.1932 16.0073 38.1932C11.4947 38.1932 8.0529 35.0942 7.05859 34.0783C3.23434 30.2077 0.5 24.3311 0.5 18.8595C0.5 15.4004 1.47518 12.3785 3.95457 9.86453C6.24912 7.54345 10.2072 6.19324 15.4656 6.19324ZM21.8457 25.1283C23.5857 23.3666 24.0574 21.1934 24.0574 19.9975C24.0574 19.1295 23.8343 17.8629 22.7635 16.7763C21.1255 15.1111 19.3026 14.6417 17.3267 14.6417C14.8218 14.6417 13.1391 15.4454 12.0174 16.577C11.1378 17.4771 10.3793 18.8402 10.3793 20.7884C10.3793 22.7301 11.4055 24.6075 12.5145 25.7391C13.5471 26.7807 15.166 27.5523 16.7913 27.5523C18.423 27.5523 20.1057 26.89 21.8457 25.1283Z" fill="#5952FF"/>
</g>
<defs>
<clipPath id="clip0_1498_6510">
<rect width="169" height="48" fill="white" transform="translate(0.5 0.734863)"/>
</clipPath>
</defs>
</svg>
