<svg width="163" height="49" viewBox="0 0 163 49" fill="none" xmlns="http://www.w3.org/2000/svg">
<g clip-path="url(#clip0_1498_6506)">
<path d="M63.8354 15.0977V18.8777H53.6899V23.0081H63.0302V26.815H53.6899V34.7591H48.8118V15.0977H63.8354Z" fill="#0073FF"/>
<path d="M67.8212 15.0707H72.0351V18.406H67.8212V15.0707ZM67.8212 20.1916H72.0351V34.7524H67.8212V20.1916Z" fill="#0073FF"/>
<path d="M75.0543 20.2186H79.55C81.3282 26.6803 81.6301 28.001 82.0998 30.777C82.6836 27.5495 82.7708 27.1924 83.6297 23.7627L84.5154 20.2051H88.897L84.2 34.7389H79.7446L75.0543 20.2186Z" fill="#0073FF"/>
<path d="M105.068 31.0465C104.574 31.8401 103.986 32.5708 103.317 33.2228C101.82 34.5763 99.8692 35.3126 97.8549 35.2846C93.5538 35.2846 90.5343 32.5019 90.5343 27.7651C90.5343 24.2546 92.2521 19.7402 97.9623 19.7402C98.9275 19.7106 99.8885 19.8807 100.785 20.2401C101.682 20.5994 102.496 21.1402 103.176 21.8289C105.068 23.8503 105.189 26.7072 105.229 28.3445H94.8958C94.8958 30.157 95.8889 31.9628 98.2105 31.9628C100.532 31.9628 101.344 30.4266 101.874 29.4024L105.068 31.0465ZM100.821 25.6561C100.786 24.8985 100.503 24.1737 100.016 23.5943C99.4515 23.0669 98.706 22.7795 97.9354 22.7924C97.5297 22.7899 97.128 22.8725 96.7559 23.0349C96.3838 23.1974 96.0496 23.4361 95.7748 23.7358C95.3135 24.2815 95.0157 24.9473 94.916 25.6561H100.821Z" fill="#0073FF"/>
<path d="M109.456 16.014H113.704V20.5554H116.502V23.1698H113.677V29.746C113.677 30.6355 113.677 31.4103 114.784 31.4103L116.314 31.3564V34.6917C115.572 34.8261 114.82 34.9005 114.066 34.9141C112.59 34.9141 110.986 34.8332 110.04 33.4924C109.456 32.6299 109.43 31.599 109.43 30.211V23.1428H107.323V20.5217H109.43L109.456 16.014Z" fill="#0073FF"/>
<path d="M124.178 21.7211C125.341 20.6986 126.82 20.1107 128.365 20.0568V23.857L126.956 24.0794C124.903 24.4365 124.272 24.7532 124.272 26.5859V34.7524H120.025V20.1916H124.185L124.178 21.7211Z" fill="#0073FF"/>
<path d="M131.452 24.3557C131.443 23.7359 131.577 23.1225 131.842 22.5629C132.107 22.0033 132.497 21.5124 132.982 21.1282C134.324 20.077 136.028 19.8547 137.726 19.8547C139.423 19.8547 143.811 20.2657 143.811 24.0255V32.4412C143.811 34.0044 143.892 34.2268 144.227 34.7254H140.067V33.3778C138.96 34.1864 137.766 35.1095 135.639 35.1095C132.324 35.1095 130.901 32.7107 130.901 30.6624C130.901 28.3243 132.76 26.9902 133.948 26.4916C135.813 25.8907 137.722 25.4401 139.658 25.144V24.3624C139.604 23.6886 139.551 22.5768 138.001 22.5768C136.115 22.5768 135.86 23.7492 135.753 24.2815L131.452 24.3557ZM136.86 28.7353C136.142 29.0116 135.028 29.4091 135.028 30.5411C135.051 30.9523 135.234 31.3379 135.538 31.6142C135.842 31.8904 136.242 32.0351 136.652 32.0167C137.176 32.0005 137.685 31.8371 138.121 31.5451C139.53 30.6557 139.591 29.3215 139.624 27.8122L136.86 28.7353Z" fill="#0073FF"/>
<path d="M152.964 21.5256C153.357 21.043 153.852 20.6541 154.413 20.3869C155.247 20.0356 156.14 19.8481 157.044 19.8344C157.939 19.8125 158.826 20.0115 159.627 20.4139C161.15 21.2225 161.539 22.5296 161.539 24.7868V34.7523H157.299V26.5657C157.372 25.8366 157.306 25.1002 157.104 24.396C156.936 24.0372 156.663 23.7386 156.321 23.5399C155.979 23.3412 155.585 23.252 155.192 23.2842C152.944 23.2842 152.944 25.0968 152.944 26.9026V34.7523H148.69V20.2455H152.991L152.964 21.5256Z" fill="#0073FF"/>
<path d="M22.7704 24.7734H27.2728C27.4507 24.7734 27.6214 24.7024 27.7472 24.576C27.8731 24.4497 27.9438 24.2783 27.9438 24.0996C27.9434 24.0071 27.9252 23.9156 27.8901 23.8301L20.1468 2.66608C20.099 2.54156 20.0154 2.43411 19.9067 2.35733C19.798 2.28056 19.669 2.23794 19.5362 2.23486H15.0204C14.8424 2.23486 14.6718 2.30584 14.5459 2.4322C14.4201 2.55857 14.3494 2.72996 14.3494 2.90866C14.3495 2.98679 14.3631 3.06431 14.3896 3.13775L22.1396 24.3557C22.1908 24.4808 22.2784 24.5876 22.3909 24.6622C22.5034 24.7367 22.6356 24.7754 22.7704 24.7734Z" fill="#0073FF"/>
<path d="M21.9718 47.2648H26.4742C26.6521 47.2648 26.8228 47.1938 26.9486 47.0674C27.0744 46.941 27.1452 46.7697 27.1452 46.591C27.1451 46.5128 27.1314 46.4353 27.1049 46.3619L11.1419 2.67953C11.0936 2.55396 11.0091 2.44579 10.899 2.36893C10.789 2.29207 10.6586 2.25006 10.5245 2.24831H6.02886C5.8509 2.24831 5.68024 2.31929 5.55441 2.44565C5.42857 2.57201 5.35787 2.7434 5.35787 2.92211C5.35796 3.00024 5.37158 3.07775 5.39812 3.15119L21.3612 46.8403C21.41 46.9635 21.494 47.0696 21.6026 47.1451C21.7113 47.2206 21.8397 47.2622 21.9718 47.2648Z" fill="#0073FF"/>
<path d="M13.1013 47.2648H17.597C17.766 47.2653 17.9291 47.2018 18.0535 47.0869C18.1779 46.972 18.2545 46.8141 18.268 46.6449C18.2677 46.5558 18.2542 46.4672 18.2277 46.3821L10.4576 25.1979C10.4098 25.0734 10.3262 24.9659 10.2175 24.8891C10.1088 24.8124 9.97985 24.7697 9.84698 24.7667H5.32447C5.15358 24.777 4.99307 24.8525 4.87582 24.9778C4.75856 25.103 4.69342 25.2685 4.69373 25.4405C4.69352 25.5142 4.70718 25.5874 4.73399 25.6561L12.4706 46.847C12.5218 46.9722 12.6093 47.079 12.7218 47.1535C12.8343 47.2281 12.9666 47.2668 13.1013 47.2648Z" fill="#0073FF"/>
<path d="M23.3139 3.15796L26.944 13.0695C26.9918 13.1941 27.0753 13.3015 27.184 13.3783C27.2927 13.4551 27.4217 13.4977 27.5546 13.5008H32.0368C32.2148 13.5008 32.3855 13.4298 32.5113 13.3034C32.6371 13.177 32.7078 13.0057 32.7078 12.827C32.7078 12.7488 32.6941 12.6713 32.6676 12.5979L29.0375 2.67955C28.9897 2.55503 28.9061 2.44758 28.7974 2.3708C28.6887 2.29403 28.5597 2.25141 28.4269 2.24833H23.9245C23.7465 2.24833 23.5759 2.31931 23.45 2.44567C23.3242 2.57203 23.2535 2.74343 23.2535 2.92213C23.2592 3.00377 23.2797 3.08369 23.3139 3.15796Z" fill="#0073FF"/>
<path d="M4.80107 47.2648H9.29676C9.47472 47.2648 9.64538 47.1938 9.77121 47.0674C9.89705 46.9411 9.96775 46.7697 9.96775 46.591C9.96766 46.5129 9.95404 46.4353 9.9275 46.3619L6.27727 36.4234C6.22903 36.2978 6.14448 36.1896 6.03445 36.1128C5.92443 36.0359 5.79398 35.9939 5.65997 35.9922H1.171C0.993037 35.9922 0.822376 36.0631 0.69654 36.1895C0.570704 36.3158 0.5 36.4873 0.5 36.666C0.500246 36.7463 0.513851 36.826 0.540258 36.9018L4.17033 46.8403C4.22047 46.9667 4.30761 47.075 4.42019 47.1507C4.53278 47.2265 4.66554 47.2663 4.80107 47.2648Z" fill="#0073FF"/>
</g>
<defs>
<clipPath id="clip0_1498_6506">
<rect width="162" height="48" fill="white" transform="translate(0.5 0.734863)"/>
</clipPath>
</defs>
</svg>
