<svg width="238" height="49" viewBox="0 0 238 49" fill="none" xmlns="http://www.w3.org/2000/svg">
<g clip-path="url(#clip0_1498_6500)">
<path d="M177.815 14.6643H176.209V16.2704C176.209 16.6834 176.393 17.1882 177.219 17.1882H178.825V15.582C178.825 15.2149 178.687 14.6643 177.815 14.6643Z" fill="#356AE6"/>
<path d="M177.678 19.8498H176.393V33.1117C176.393 33.6624 176.76 34.0295 177.265 34.0754V34.1213H178.733V20.8134C178.687 20.2169 178.366 19.8498 177.678 19.8498Z" fill="#356AE6"/>
<path d="M99.9417 30.2207C99.391 29.67 98.7027 29.8077 98.2897 30.1748C96.5918 31.5973 95.0315 32.148 93.0124 32.148C88.9742 32.148 85.7619 28.7522 85.7619 24.3927C85.7619 20.0333 88.8824 16.6834 93.0124 16.6834C94.9857 16.6834 96.6377 17.2799 98.1979 18.6107C98.565 18.9319 99.2075 19.0696 99.6664 18.5648C100.079 18.1518 100.492 17.6929 100.492 17.6929L100.584 17.6012L100.492 17.5094C98.8403 15.9033 96.7753 14.4348 93.0124 14.4348C87.5516 14.4348 83.3298 18.8402 83.3298 24.4386C83.3298 30.083 87.4598 34.3507 92.9665 34.3507C96.0411 34.3507 98.2897 33.3411 100.584 30.9549L100.63 30.8631L100.584 30.7713C100.584 30.8631 100.446 30.6796 99.9417 30.2207Z" fill="#356AE6"/>
<path d="M134.817 19.5285C132.798 19.5285 131.192 20.4004 129.953 22.1442C129.402 21.0429 128.118 19.4367 125.456 19.4367C123.162 19.4367 121.923 20.6299 121.005 21.823V20.8134C121.005 20.1251 120.592 19.7121 119.949 19.7121H118.664V33.9836H119.949C120.592 33.9836 120.959 33.8 120.959 33.0199V25.9071C120.959 23.4291 122.565 21.5935 124.722 21.5935C126.924 21.5935 128.209 23.1079 128.209 25.6777V33.0199C128.209 33.7082 128.576 34.0295 129.219 34.0295H130.504V25.8612C130.504 22.9243 132.385 21.6394 134.267 21.6394C136.515 21.6394 137.8 23.1538 137.8 25.7235V32.8822C137.8 33.4788 137.938 34.0295 138.856 34.0295H140.095V25.2647C140.141 21.7312 138.121 19.5285 134.817 19.5285Z" fill="#356AE6"/>
<path d="M151.383 19.5744C149.272 19.5744 147.529 20.4922 146.106 22.4654V20.9969C146.106 20.2627 145.693 19.8956 144.959 19.8956H143.812V37.4252C143.812 38.1136 144.133 38.4348 144.821 38.4348H146.106V31.6432C147.529 33.4788 149.226 34.3965 151.383 34.3965C154.687 34.3965 158.175 31.7809 158.175 26.9625C158.175 22.1442 154.687 19.5744 151.383 19.5744ZM155.789 26.9625C155.789 30.083 153.815 32.2398 150.97 32.2398C148.538 32.2398 146.014 30.2206 146.014 26.9166C146.014 23.6126 148.538 21.5935 150.97 21.5935C153.356 21.6394 155.789 23.4749 155.789 26.9625Z" fill="#356AE6"/>
<path d="M193.831 20.8593V22.0524C192.867 20.8134 191.169 19.4367 188.462 19.4367C186.764 19.4367 185.066 20.0792 183.827 21.2264C182.496 22.4654 181.762 24.2551 181.762 26.1824C181.762 30.5419 185.204 32.8822 188.462 32.8822C190.573 32.8822 192.362 32.0104 193.877 30.1748V31.5515C193.877 34.6719 192.041 36.4616 188.921 36.4616C187.406 36.4616 185.938 36.0945 184.561 35.3144C184.194 35.0849 183.919 34.9931 183.689 34.9931C183.414 34.9931 183.139 35.1308 182.955 35.452C182.588 36.0486 182.45 36.3239 182.45 36.3239L182.404 36.4157L182.496 36.4616C184.378 37.7924 186.534 38.4348 188.921 38.4348C193.51 38.4348 196.171 35.9109 196.171 31.5056V19.8039H194.886C194.473 19.8039 193.831 20.171 193.831 20.8593ZM193.968 26.3201C193.968 29.257 191.399 31.0008 188.921 31.0008C186.213 31.0008 184.194 28.9817 184.194 26.3201C184.194 23.6126 186.213 21.6853 188.921 21.6853C191.353 21.6394 193.968 23.2455 193.968 26.3201Z" fill="#356AE6"/>
<path d="M207.001 19.5744C204.982 19.5744 203.422 20.4004 202.32 22.0524V20.8593C202.32 20.1709 201.77 19.8956 201.219 19.8956H199.934V34.1671H202.274L202.229 25.9988C202.229 23.4749 203.926 21.7312 206.359 21.7312C208.745 21.7312 210.121 23.2455 210.121 25.8612V33.2034C210.121 33.8918 210.443 34.1671 211.039 34.1671H212.416V25.2646C212.462 21.777 210.351 19.5744 207.001 19.5744Z" fill="#356AE6"/>
<path d="M166.802 19.6203C165.013 19.6203 163.406 19.9874 161.663 20.7675L161.571 20.8134L161.617 20.9052C161.617 20.9052 161.846 21.5476 162.03 22.0065C162.213 22.4654 162.764 22.5113 163.177 22.3278C164.37 21.8689 165.426 21.6394 166.619 21.6394C169.234 21.6394 170.657 22.9702 170.657 25.3564V28.7981C170.657 30.9549 168.73 32.4693 166.068 32.4693C164.416 32.4693 162.626 31.6432 162.626 29.8077C162.626 28.0639 164.049 27.1002 166.619 27.1002H167.766C168.454 27.1002 168.775 26.779 168.775 26.1366V25.3564H166.389C162.489 25.3564 160.286 27.0085 160.286 29.8536C160.286 32.0104 161.938 34.3966 165.655 34.3966C167.674 34.3966 169.372 33.6165 170.611 32.148V33.1117C170.611 33.7541 170.932 34.0295 171.621 34.0295H172.905V25.3106C172.86 21.6853 170.703 19.6203 166.802 19.6203Z" fill="#356AE6"/>
<path d="M109.028 19.6203C106.825 19.6203 105.265 20.171 103.888 20.7675L103.796 20.8593L103.842 20.9511C103.842 20.9511 104.072 21.5935 104.255 22.0524C104.439 22.5113 104.989 22.5572 105.402 22.3737C106.596 21.9148 107.651 21.6853 108.844 21.6853C111.46 21.6853 112.928 23.0161 112.928 25.4023V28.7981C112.928 30.9549 111.001 32.4693 108.339 32.4693C106.687 32.4693 104.944 31.6432 104.944 29.8077C104.944 28.0639 106.366 27.1002 108.89 27.1002H110.037C110.726 27.1002 111.047 26.779 111.047 26.1366V25.3564H108.706C104.806 25.3564 102.557 27.0085 102.557 29.8536C102.557 32.0104 104.209 34.3966 107.88 34.3966C109.9 34.3966 111.597 33.6165 112.882 32.148V33.1117C112.882 33.7541 113.204 34.0295 113.846 34.0295H115.131V25.3106C115.085 21.6853 112.928 19.6203 109.028 19.6203Z" fill="#356AE6"/>
<path d="M236.049 24.9434C235.728 24.6681 222.649 15.5362 222.053 15.1691L221.869 15.0314V17.28C221.869 18.0142 222.236 18.2436 222.695 18.6107L222.787 18.6566C223.429 19.1155 232.745 25.5859 233.984 26.4578C232.745 27.3297 223.292 33.8918 222.695 34.2589C221.961 34.7178 221.915 35.039 221.915 35.6815V37.8383C221.915 37.8383 235.819 28.1557 236.095 27.9262C236.737 27.4673 236.875 26.8708 236.875 26.5037V26.2283C236.875 25.7694 236.599 25.3106 236.049 24.9434Z" fill="#356AE6"/>
<path d="M227.881 27.4673C228.248 27.4673 228.615 27.3296 228.982 27.0543C229.441 26.7331 229.854 26.4577 229.854 26.4577L229.992 26.366L229.854 26.2742C229.808 26.2283 223.705 22.0065 223.062 21.5935C222.787 21.3641 222.42 21.3182 222.19 21.4558C221.961 21.5935 221.777 21.8229 221.777 22.1901V23.6126L221.823 23.6585C221.869 23.7044 226.045 26.5954 226.871 27.1461C227.238 27.3755 227.559 27.4673 227.881 27.4673Z" fill="#356AE6"/>
<path d="M33.2647 30.8172C32.76 30.3124 32.1175 30.6337 31.8422 30.8631C30.7867 31.8268 29.5936 32.2857 28.3087 32.2857C25.5095 32.2857 23.3068 29.9453 23.3068 26.9167C23.3068 23.9339 25.4636 21.5935 28.171 21.5935C29.7313 21.5935 30.7408 22.2818 31.5668 22.9243C32.1634 23.4291 32.6682 23.475 33.0812 23.0161C33.4483 22.649 33.8613 22.1901 33.8613 22.1901L33.9531 22.0983L33.8613 22.0065C32.2552 20.2627 30.4655 19.4826 28.171 19.4826C24.0869 19.4826 20.8288 22.7407 20.8288 26.9167C20.8288 31.0008 24.1328 34.3507 28.171 34.3507C31.1538 34.3507 32.8517 32.8363 33.9531 31.5514H34.0448L33.9531 31.4597C33.9531 31.4597 33.7236 31.2761 33.2647 30.8172Z" fill="#356AE6"/>
<path d="M48.5 14.6643H46.8939V16.2704C46.8939 16.6834 47.0775 17.1882 47.9035 17.1882H49.5096V15.7656C49.5555 15.1231 49.1425 14.6643 48.5 14.6643Z" fill="#356AE6"/>
<path d="M48.3164 19.8498H46.9856V33.1117C46.9856 33.6624 47.3527 34.0295 47.8575 34.0754V34.1213H49.3259V20.8134C49.3718 20.2169 49.0047 19.8498 48.3164 19.8498Z" fill="#356AE6"/>
<path d="M63.4139 20.6298C63.2303 21.1346 59.7427 29.5782 59.0544 31.1384C58.412 29.5323 54.9244 21.0887 54.7408 20.6298C54.5114 20.0792 54.0525 19.7579 53.4559 19.7579H51.8039L51.8957 19.8956C51.9416 20.0792 57.4942 32.8822 57.7236 33.387C57.9531 33.9836 58.3202 34.1212 58.9167 34.1212H59.1921C59.7427 34.1212 60.1099 33.8918 60.3393 33.387C60.5687 32.8822 66.1213 20.1709 66.1672 20.0333L66.259 19.8497H64.6529C64.0563 19.8497 63.6433 20.0792 63.4139 20.6298Z" fill="#356AE6"/>
<path d="M77.7773 26.1365H72.3165C71.7199 26.1365 71.3528 26.5036 71.3528 27.1002V28.018H71.4905C74.1062 27.9721 77.1348 27.9721 78.3738 27.9721C79.1081 27.9721 79.6587 27.7885 80.0717 27.3755C80.4389 26.9625 80.6224 26.3201 80.5765 25.5859C80.1635 21.9147 77.5478 19.5285 73.9685 19.5285C70.0679 19.5285 67.0851 22.7407 67.0851 26.9625C67.0851 31.2302 70.1597 34.3966 74.2438 34.3966C76.6301 34.3966 78.4197 33.5706 80.1176 31.735L80.2094 31.6432L80.1176 31.5514C80.1176 31.5514 79.7964 31.2761 79.4293 30.9549C78.8786 30.496 78.3738 30.6795 78.0985 30.9549C77.089 31.8727 75.8499 32.3316 74.3356 32.3316C71.7199 32.3316 69.7926 30.4501 69.4714 27.6509C69.4714 27.6509 69.4255 27.3296 69.4255 26.9166C69.4255 26.4577 69.4714 26.1365 69.4714 26.1365C69.7467 23.3832 71.5823 21.4558 73.9226 21.4558C76.2629 21.4558 77.9608 23.0161 78.1903 25.4023C78.2362 25.6317 78.1903 25.8153 78.1444 25.9071C78.0067 26.0906 77.915 26.1365 77.7773 26.1365Z" fill="#356AE6"/>
<path d="M11.7887 15.3985C11.5134 14.8478 11.1922 14.6643 10.5956 14.6643H10.0449C9.58604 14.6643 9.17304 14.9396 8.9436 15.3526C8.76004 15.7656 0.683555 33.7541 0.591777 33.9377L0.5 34.1212H2.01434C2.65679 34.1212 3.06979 33.8459 3.39101 33.2035C3.66635 32.6528 4.99713 29.6241 5.22658 29.1193H11.1463C11.8805 29.1193 12.3394 28.6604 12.3394 27.9721V26.9625H6.14436L10.3203 17.6012C11.1922 19.5285 17.0201 32.8363 17.2954 33.387C17.6625 34.1212 18.5344 34.1212 18.8098 34.1212H20.1864L20.0946 33.9377C20.0946 33.7541 12.0641 15.995 11.7887 15.3985Z" fill="#356AE6"/>
<path d="M43.5899 32.0562C43.3605 31.9186 43.0392 31.8727 42.718 31.9644C42.2132 32.1021 41.8461 32.1939 41.3872 32.1939C39.9188 32.1939 39.1387 31.4597 39.1387 29.9453V21.9147H43.5899V20.9511C43.5899 20.2168 42.9475 19.8497 42.3968 19.8497H39.0928V15.8115C39.0928 15.169 38.6339 14.7101 37.9456 14.7101H36.7983V30.2665C36.7983 32.8822 38.2209 34.3507 40.8825 34.3507C41.892 34.3507 43.0392 34.1212 43.7735 33.7541L43.8194 33.7082V33.6623C43.8194 33.6623 43.8652 33.2493 43.8652 32.7446C43.9111 32.3774 43.7276 32.1939 43.5899 32.0562Z" fill="#356AE6"/>
</g>
<defs>
<clipPath id="clip0_1498_6500">
<rect width="237" height="48" fill="white" transform="translate(0.5 0.734863)"/>
</clipPath>
</defs>
</svg>
