<svg width="165" height="49" viewBox="0 0 165 49" fill="none" xmlns="http://www.w3.org/2000/svg">
<g clip-path="url(#clip0_1498_6504)">
<path d="M40.1255 33.307L41.14 33.0982C42.0352 32.8595 42.2739 32.7401 42.2739 30.9498V16.8957C42.2739 15.1054 42.0053 14.9562 41.14 14.7474L40.1255 14.5385V13.703H56.2981L56.5965 19.6409H55.6715C54.9255 17.9998 54.4481 17.1345 54.0005 16.478C53.0456 15.1054 52.419 14.9861 50.3602 14.9861C48.8384 14.9861 48.0924 15.1651 47.6448 15.2845V22.8933H48.4505C50.5392 22.8933 51.0166 22.6546 51.3747 21.9982C51.7924 21.2522 52.0311 20.6853 52.2997 19.7304H53.1948V27.4288H52.2997C52.0311 26.5038 51.7924 25.907 51.3747 25.0417C51.0166 24.2957 50.6287 24.1466 48.4505 24.1466H47.6448V29.8756C47.6448 32.5312 47.7344 32.8296 50.6287 32.8296C53.0158 32.8296 53.4932 32.5312 54.4779 31.0691C55.015 30.2635 55.5819 29.0103 56.3577 27.1304H57.3126L56.8948 34.1425H40.1553L40.1255 33.307ZM59.819 22.1175C59.1327 20.4466 58.8045 20.0288 58.0586 19.7901L57.4916 19.6111V18.8353H66.3537V19.6111L65.5481 19.8199C64.9215 19.999 64.6231 20.2974 64.6231 21.0135C64.6231 21.4312 64.7723 21.9385 65.011 22.5949L67.4876 29.3982H67.6368L70.0239 22.5949C70.2924 21.8788 70.4118 21.3716 70.4118 20.9538C70.4118 20.2974 70.1134 19.9691 69.4868 19.8199L68.6811 19.6111V18.8353H74.1416V19.6111L73.5747 19.7901C72.7989 20.0586 72.4706 20.5062 71.7545 22.4457L67.1892 34.1425H64.6827L59.819 22.1175ZM73.4553 26.4143C73.4553 21.282 77.2448 18.4474 81.1537 18.4474C85.2118 18.4474 87.7481 20.4764 87.8376 25.8175H78.0803C78.1698 30.6514 79.99 31.9643 83.0335 31.9643C84.8537 31.9643 86.2561 31.4272 87.3602 30.8603V31.8449C86.3158 32.9788 84.0779 34.5304 81.1239 34.5304C75.9916 34.4707 73.4553 31.4272 73.4553 26.4143ZM78.0803 24.6836L83.1231 24.4151C83.1231 20.8643 82.6456 19.5514 80.8852 19.5514C79.3932 19.5514 78.1997 20.9836 78.0803 24.6836ZM95.5956 20.7151C96.4311 19.8199 98.1319 18.3578 100.101 18.3578C101.355 18.3578 102.399 19.3724 102.399 20.6554C102.399 21.9385 101.384 22.953 100.101 22.953C99.1763 22.953 98.3408 22.3861 98.0126 21.5804C97.8335 21.2522 97.4456 21.1627 97.1771 21.1627C96.64 21.1627 96.0134 21.5506 95.6255 21.9086V31.457C95.6255 32.8296 95.7448 32.9788 96.64 33.128L97.6247 33.3369V34.1425H89.1206V33.3369L89.8965 33.128C90.8811 32.8595 91.0005 32.7103 91.0005 31.457V22.2966C91.0005 21.0433 90.8513 20.9538 90.0158 20.3869L89.0311 19.7304V19.1336L95.2376 18.4175L95.5658 18.6562L95.5061 20.6853L95.5956 20.7151ZM103.294 33.3369L104.07 33.128C105.055 32.8595 105.174 32.7103 105.174 31.457V22.2966C105.174 21.0433 105.025 20.9538 104.189 20.3869L103.205 19.7304V19.1336L109.411 18.4175L109.739 18.6264L109.68 20.5062H109.799C111.35 19.4022 113.29 18.4175 115.438 18.4175C117.945 18.4175 119.288 19.7006 119.288 22.3562V31.4272C119.288 32.7103 119.407 32.8595 120.362 33.0982L121.138 33.307V34.1127H112.932V33.307L113.648 33.128C114.543 32.8893 114.633 32.7998 114.633 31.4272V23.5199C114.633 21.7296 113.976 21.1627 112.604 21.1627C111.559 21.1627 110.515 21.4014 109.859 21.5506V31.457C109.859 32.8595 109.948 32.9191 110.843 33.1578L111.559 33.3369V34.1425H103.354V33.3369H103.294ZM121.705 26.5038C121.705 20.8643 125.703 18.4474 129.671 18.4474C133.938 18.4474 137.668 21.0135 137.668 26.3546C137.668 31.9941 133.73 34.4707 129.671 34.4707C125.405 34.4707 121.705 31.9046 121.705 26.5038ZM132.715 26.653C132.715 20.7151 131.581 19.5812 129.552 19.5812C127.702 19.5812 126.598 20.924 126.598 25.9966C126.598 32.024 127.583 33.3369 129.731 33.3369C131.492 33.3369 132.715 32.2925 132.715 26.653ZM140.205 30.4127V20.5659H138.355V19.8498C140.652 18.9546 142.413 17.2538 143.248 14.8966H144.919V18.8353H148.828L148.44 20.5659H144.919V30.1143C144.919 31.5764 145.367 32.1732 146.829 32.1732C147.545 32.1732 148.41 32.024 148.947 31.9046V32.7401C148.231 33.3965 146.769 34.4707 144.292 34.4707C141.637 34.4707 140.205 33.307 140.205 30.4127ZM149.544 26.4143C149.544 21.282 153.334 18.4474 157.242 18.4474C161.3 18.4474 163.837 20.4764 163.926 25.8175H154.199C154.288 30.6514 156.109 31.9643 159.152 31.9643C160.972 31.9643 162.375 31.4272 163.479 30.8603V31.8449C162.434 32.9788 160.196 34.5304 157.242 34.5304C152.08 34.4707 149.544 31.4272 149.544 26.4143ZM154.169 24.6836L159.212 24.4151C159.212 20.8643 158.734 19.5514 156.974 19.5514C155.482 19.5514 154.288 20.9836 154.169 24.6836Z" fill="black"/>
<path d="M10.2277 16.0002C10.2277 16.3583 10.1979 16.9551 9.83984 17.343C9.45194 17.701 8.85516 17.7309 8.4971 17.7309H4.67775C3.57371 17.7309 2.91726 17.7309 2.46968 17.7906C2.23097 17.8204 1.93259 17.9397 1.78339 17.9994C1.72371 18.0293 1.72371 17.9994 1.75355 17.9696L10.4665 9.10749C10.4963 9.07765 10.5261 9.07765 10.4963 9.13733C10.4366 9.28652 10.3173 9.58491 10.2874 9.82362C10.2277 10.2712 10.2277 10.9277 10.2277 12.0317V16.0002ZM18.3439 42.7954C17.3294 42.1389 16.7923 41.2736 16.5834 40.7365C16.3745 40.2293 16.2552 39.6623 16.2552 39.0954C16.2552 36.6188 18.2842 34.5897 20.7906 34.5897C21.5366 34.5897 22.1334 35.1865 22.1334 35.9325C22.1334 36.4397 21.8648 36.8575 21.4471 37.0962C21.2979 37.1857 21.089 37.2454 20.9398 37.2752C20.7906 37.3051 20.2237 37.3647 19.9552 37.6035C19.6568 37.8422 19.4181 38.2301 19.4181 38.6478C19.4181 39.0954 19.5971 39.5131 19.8955 39.8115C20.4326 40.3486 21.1487 40.647 21.9245 40.647C23.9535 40.647 25.5947 39.0059 25.5947 36.9768C25.5947 35.1567 24.3713 33.5454 22.76 32.8293C22.5213 32.7099 22.1334 32.6204 21.7753 32.5309C21.3277 32.4414 20.91 32.3817 20.8802 32.3817C19.6269 32.2325 16.4939 31.2478 16.285 28.4728C16.285 28.4728 15.36 32.6502 13.51 33.7841C13.331 33.8736 13.0923 33.9631 12.8237 34.0228C12.5552 34.0825 12.2568 34.1123 12.1673 34.1123C9.15355 34.2914 5.96081 33.3365 3.75275 31.0688C3.75275 31.0688 2.26081 29.8454 1.485 26.4139C1.30597 25.5785 0.947908 24.0865 0.739037 22.6841C0.649521 22.1768 0.619682 21.7889 0.589844 21.4309C0.589844 19.9688 1.485 18.9841 2.61888 18.8349C2.64871 18.8349 2.73823 18.8349 2.79791 18.8349C3.4842 18.8349 8.70597 18.8349 8.70597 18.8349C9.75033 18.8349 10.3471 18.5664 10.735 18.2083C11.2423 17.7309 11.3616 17.0446 11.3616 16.2389C11.3616 16.2389 11.3616 10.8083 11.3616 10.122C11.3616 10.0922 11.3616 9.97281 11.3616 9.94297C11.5108 8.83894 12.4955 7.91394 13.9576 7.91394C13.9576 7.91394 14.4052 7.91394 14.6737 7.91394C14.9721 7.91394 15.3302 7.94378 15.6584 7.97362C15.8971 8.00346 16.106 8.06313 16.464 8.15265C18.2842 8.60023 18.6721 10.4502 18.6721 10.4502C18.6721 10.4502 22.1035 11.047 23.8342 11.3454C25.4753 11.6438 29.5334 11.9123 30.3092 16.0002C32.1294 25.7277 31.0253 35.1567 30.9358 35.1567C29.6527 44.347 22.014 43.8994 22.014 43.8994C20.3729 43.8994 19.1495 43.3623 18.3439 42.7954ZM25.2068 23.251C24.2221 23.1615 23.3866 23.5494 23.0882 24.2954C23.0285 24.4446 22.9689 24.6236 22.9987 24.7131C23.0285 24.8027 23.0882 24.8325 23.1479 24.8623C23.506 25.0414 24.1027 25.1309 24.9681 25.2204C25.8334 25.3099 26.4302 25.3696 26.8181 25.3099C26.8777 25.3099 26.9374 25.2801 26.9971 25.1906C27.0568 25.101 27.0269 24.922 27.0269 24.7728C26.9076 23.9373 26.1914 23.3704 25.2068 23.251Z" fill="#00A82D"/>
</g>
<defs>
<clipPath id="clip0_1498_6504">
<rect width="164" height="48" fill="white" transform="translate(0.5 0.734863)"/>
</clipPath>
</defs>
</svg>
