<svg width="169" height="49" viewBox="0 0 169 49" fill="none" xmlns="http://www.w3.org/2000/svg">
<g clip-path="url(#clip0_1498_6514)">
<path d="M144.958 23.32C147.078 23.32 147.896 24.6176 148.01 25.7474C148.011 25.7644 148.01 25.7816 148.004 25.7979C147.999 25.8141 147.99 25.829 147.978 25.8417C147.967 25.8543 147.953 25.8644 147.937 25.8712C147.921 25.8781 147.904 25.8816 147.887 25.8816H142.064C142.046 25.8816 142.029 25.8778 142.013 25.8707C141.997 25.8635 141.983 25.8531 141.972 25.84C141.96 25.827 141.952 25.8116 141.946 25.795C141.941 25.7784 141.94 25.7608 141.942 25.7436C142.099 24.6396 143.077 23.32 144.958 23.32ZM148.15 30.5034C148.111 30.5032 148.073 30.5123 148.038 30.5298C148.004 30.5473 147.974 30.5727 147.951 30.6041C147.426 31.3439 146.571 31.8 145.295 31.8C143.537 31.8 142.01 30.6443 141.845 29.0066C141.844 28.9896 141.845 28.9725 141.851 28.9563C141.856 28.9401 141.865 28.9253 141.876 28.9127C141.888 28.9 141.902 28.8899 141.917 28.883C141.933 28.8761 141.95 28.8725 141.967 28.8724H152.431C152.46 28.7804 152.522 28.0789 152.522 27.4378C152.522 22.5582 149.612 19.6603 144.896 19.6603C140.946 19.6603 137.302 22.7709 137.302 27.6515C137.302 32.7459 141.038 35.7348 145.234 35.7348C149.026 35.7348 151.428 33.6131 152.207 31.0487C152.212 31.0334 152.238 30.9375 152.267 30.7976C152.274 30.7621 152.273 30.7253 152.265 30.6899C152.256 30.6546 152.24 30.6217 152.217 30.5935C152.194 30.5653 152.165 30.5426 152.132 30.527C152.099 30.5114 152.063 30.5034 152.027 30.5034H148.15V30.5034ZM157.402 27.5739L152.441 20.5016C152.415 20.465 152.4 20.4219 152.398 20.3773C152.395 20.3326 152.404 20.288 152.425 20.2484C152.446 20.2087 152.477 20.1755 152.515 20.1524C152.554 20.1293 152.598 20.1172 152.642 20.1174H157.52C157.603 20.1174 157.68 20.1586 157.726 20.2276L160.275 24.1087C160.323 24.1825 160.432 24.1815 160.48 24.1068L162.971 20.2304C162.993 20.1958 163.023 20.1673 163.059 20.1475C163.095 20.1277 163.136 20.1174 163.177 20.1174H167.775C167.974 20.1174 168.09 20.3407 167.976 20.5026L163.081 27.389C163.052 27.4299 163.036 27.4789 163.036 27.5292C163.036 27.5795 163.051 27.6286 163.08 27.6697C164.682 29.9505 166.514 32.5858 168.157 34.8925C168.272 35.0544 168.157 35.2767 167.958 35.2767H163.114C163.073 35.2769 163.033 35.267 162.997 35.2479C162.962 35.2289 162.931 35.2012 162.909 35.1675L160.266 31.1599C160.254 31.1431 160.239 31.1293 160.221 31.1198C160.204 31.1102 160.184 31.1053 160.164 31.1053C160.143 31.1053 160.123 31.1102 160.106 31.1198C160.088 31.1293 160.073 31.1431 160.061 31.1599C159.27 32.3367 158.235 33.9754 157.45 35.1675C157.428 35.2013 157.397 35.229 157.361 35.248C157.326 35.2671 157.286 35.277 157.245 35.2767H152.73C152.685 35.277 152.641 35.265 152.603 35.2421C152.565 35.2191 152.533 35.1861 152.513 35.1467C152.492 35.1072 152.482 35.0629 152.485 35.0184C152.488 34.9739 152.503 34.931 152.528 34.8944L157.403 27.8518C157.432 27.811 157.447 27.7625 157.447 27.7129C157.447 27.6632 157.432 27.6147 157.403 27.5739H157.402ZM131.116 35.0333V13.438C131.116 13.3029 131.226 13.1936 131.361 13.1936H135.526C135.661 13.1936 135.771 13.3029 135.771 13.438V35.0333C135.771 35.1675 135.661 35.2767 135.526 35.2767H131.361C131.329 35.2769 131.297 35.2707 131.268 35.2585C131.238 35.2463 131.211 35.2284 131.188 35.2058C131.165 35.1832 131.147 35.1564 131.135 35.1268C131.123 35.0972 131.116 35.0654 131.116 35.0333V35.0333ZM124.256 35.0333V13.438C124.256 13.3029 124.367 13.1936 124.502 13.1936H128.667C128.802 13.1936 128.911 13.3029 128.911 13.438V35.0333C128.911 35.1675 128.802 35.2767 128.667 35.2767H124.502C124.47 35.2769 124.438 35.2707 124.408 35.2585C124.379 35.2463 124.351 35.2284 124.329 35.2058C124.306 35.1832 124.288 35.1564 124.275 35.1268C124.263 35.0972 124.257 35.0654 124.256 35.0333V35.0333ZM113.957 31.708C115.825 31.708 117.417 30.2447 117.417 27.6822C117.417 25.0593 115.855 23.6861 113.957 23.6861C111.966 23.6861 110.466 25.0593 110.466 27.6822C110.466 30.1834 112.028 31.709 113.957 31.709V31.708ZM117.448 33.3247C116.774 34.789 115.244 35.7041 113.344 35.7041C108.873 35.7041 105.78 32.3185 105.78 27.6515C105.78 23.1379 108.69 19.6593 113.191 19.6593C115.916 19.6593 117.11 21.1542 117.417 21.8557V20.3608C117.417 20.2266 117.526 20.1174 117.662 20.1174H121.674C121.808 20.1174 121.918 20.2266 121.918 20.3617V35.0333C121.918 35.1675 121.809 35.2767 121.674 35.2767H117.665C117.633 35.2767 117.601 35.2703 117.571 35.2579C117.541 35.2454 117.514 35.2271 117.491 35.2042C117.469 35.1812 117.451 35.1539 117.439 35.1239C117.427 35.0939 117.421 35.0618 117.421 35.0295C117.429 34.4785 117.448 33.2049 117.448 33.3247V33.3247ZM95.8476 20.2851L98.6372 28.7354C98.6756 28.8504 98.8385 28.8465 98.8711 28.7306L101.254 20.2956C101.269 20.2442 101.3 20.199 101.342 20.1668C101.385 20.1346 101.437 20.1173 101.49 20.1174H105.534C105.7 20.1174 105.818 20.2764 105.769 20.4336L101.205 35.1052C101.189 35.1552 101.158 35.1989 101.116 35.23C101.074 35.261 101.023 35.2778 100.971 35.2777H96.7034C96.6522 35.2776 96.6022 35.2615 96.5607 35.2316C96.5191 35.2017 96.4879 35.1595 96.4715 35.111L93.3378 25.8327C93.2995 25.7215 93.1414 25.7225 93.105 25.8327L90.0288 35.109C90.0127 35.1578 89.9816 35.2003 89.94 35.2304C89.8983 35.2605 89.8483 35.2767 89.7969 35.2767H85.4376C85.3856 35.2768 85.3349 35.2603 85.2928 35.2296C85.2508 35.1989 85.2196 35.1557 85.2038 35.1062L80.58 20.4346C80.5685 20.3979 80.5659 20.3591 80.5722 20.3213C80.5786 20.2834 80.5937 20.2476 80.6165 20.2167C80.6393 20.1858 80.669 20.1608 80.7033 20.1435C80.7376 20.1262 80.7754 20.1173 80.8138 20.1174H85.1338C85.2431 20.1174 85.3398 20.1902 85.3695 20.2956L87.7528 28.7037C87.7854 28.8187 87.9483 28.8226 87.9867 28.7085L90.806 20.2851C90.8223 20.2362 90.8535 20.1937 90.8953 20.1636C90.9371 20.1335 90.9874 20.1173 91.0389 20.1174H95.6147C95.7202 20.1174 95.815 20.1844 95.8476 20.2851V20.2851ZM79.3169 24.3933C79.3169 24.429 79.3091 24.4642 79.294 24.4965C79.2789 24.5288 79.257 24.5574 79.2297 24.5803C79.2024 24.6032 79.1704 24.6199 79.136 24.6291C79.1015 24.6384 79.0655 24.64 79.0304 24.6338C78.6394 24.5678 78.2434 24.5363 77.8469 24.5399C75.9782 24.5399 74.2945 25.6381 74.2945 28.6577V35.0333C74.2945 35.1675 74.1852 35.2767 74.0501 35.2767H69.8853C69.8532 35.2769 69.8214 35.2707 69.7917 35.2585C69.762 35.2463 69.735 35.2284 69.7122 35.2058C69.6895 35.1832 69.6714 35.1564 69.659 35.1268C69.6466 35.0972 69.6401 35.0654 69.64 35.0333V20.3617C69.64 20.2276 69.7492 20.1174 69.8853 20.1174H73.8968C74.0319 20.1174 74.1411 20.2266 74.1411 20.3617V22.1614C74.9375 20.4528 76.8675 19.965 78.0922 19.965C78.464 19.965 78.8358 20.0052 79.1262 20.0685C79.2383 20.0934 79.3169 20.1931 79.3169 20.3071V24.3933ZM62.6885 35.0333V20.3617C62.6885 20.2276 62.7987 20.1174 62.9338 20.1174H67.0986C67.2337 20.1174 67.3439 20.2266 67.3439 20.3617V35.0333C67.3439 35.1675 67.2337 35.2767 67.0986 35.2767H62.9338C62.9017 35.2769 62.8699 35.2707 62.8402 35.2585C62.8105 35.2463 62.7835 35.2284 62.7607 35.2058C62.7379 35.1832 62.7198 35.1564 62.7074 35.1268C62.695 35.0972 62.6886 35.0654 62.6885 35.0333ZM64.9855 12.7662C66.5169 12.7662 67.7416 13.9862 67.7416 15.4811C67.7416 16.9761 66.5169 18.196 64.9855 18.196C63.5155 18.196 62.2908 16.9761 62.2908 15.4811C62.2908 13.9862 63.5155 12.7662 64.9855 12.7662V12.7662ZM47.8568 26.492H52.7787C52.863 26.492 52.9224 26.4096 52.8937 26.33L50.4634 19.3478C50.4552 19.3237 50.4396 19.3027 50.4189 19.2878C50.3982 19.2729 50.3733 19.2648 50.3478 19.2647C50.3223 19.2646 50.2974 19.2725 50.2765 19.2872C50.2557 19.3019 50.2399 19.3228 50.2315 19.3469L47.7428 26.33C47.7141 26.4086 47.7735 26.4929 47.8578 26.4929L47.8568 26.492ZM54.3091 30.8848H46.2642C46.2137 30.8849 46.1645 30.9006 46.1233 30.9298C46.0821 30.959 46.051 31.0002 46.0342 31.0478L44.5871 35.1148C44.5702 35.1625 44.539 35.2038 44.4976 35.233C44.4562 35.2622 44.4068 35.2778 44.3562 35.2777H39.8004C39.7608 35.2779 39.7217 35.2685 39.6865 35.2502C39.6513 35.232 39.6211 35.2054 39.5985 35.1729C39.5758 35.1403 39.5614 35.1028 39.5565 35.0634C39.5517 35.0241 39.5564 34.9842 39.5704 34.9471L47.5626 13.8089C47.5802 13.7623 47.6115 13.7223 47.6525 13.694C47.6934 13.6658 47.742 13.6507 47.7917 13.6507H53.0566C53.1582 13.6507 53.2502 13.714 53.2856 13.8098L61.1878 34.948C61.2014 34.985 61.2058 35.0248 61.2008 35.0638C61.1957 35.1029 61.1812 35.1402 61.1586 35.1725C61.1361 35.2048 61.106 35.2311 61.071 35.2493C61.036 35.2674 60.9972 35.2768 60.9578 35.2767H56.2171C56.1665 35.2767 56.1171 35.261 56.0758 35.2319C56.0344 35.2027 56.0031 35.1615 55.9861 35.1138L54.5391 31.0478C54.5221 31.0003 54.491 30.9591 54.4498 30.93C54.4087 30.9008 54.3595 30.8851 54.3091 30.8848V30.8848Z" fill="black"/>
<path fill-rule="evenodd" clip-rule="evenodd" d="M33.6709 21.7638C34.267 22.344 34.6805 23.0858 34.8605 23.898C35.0404 24.7101 34.979 25.5572 34.6839 26.3349L32.4347 32.445C31.8444 34.0492 30.499 35.2902 28.8363 35.6141C28.0046 35.7806 27.1434 35.7178 26.3446 35.4325C25.5459 35.1473 24.8397 34.6502 24.3016 33.9946L10.8145 17.8357C10.781 17.7959 10.7376 17.7657 10.6887 17.7479C10.6398 17.7302 10.5871 17.7256 10.5359 17.7346C10.4846 17.7437 10.4367 17.766 10.3968 17.7994C10.3569 17.8327 10.3264 17.876 10.3085 17.9248L5.92045 29.7934C5.82941 30.0387 6.0709 30.2764 6.31048 30.1786L11.6952 27.9793C11.9987 27.8563 12.3245 27.7973 12.6519 27.806C12.9794 27.8148 13.3015 27.8911 13.5981 28.0302C13.8946 28.1693 14.1593 28.3682 14.3753 28.6144C14.5914 28.8606 14.7543 29.1488 14.8537 29.4609C15.2514 30.6808 14.5825 31.9984 13.4048 32.4795L6.37085 35.3515C5.06852 35.8834 3.57261 35.7895 2.39965 35.0066C1.60031 34.4724 1.00437 33.6843 0.70808 32.7697C0.411788 31.8551 0.432442 30.8673 0.766705 29.9659L5.95112 15.9479C6.56539 14.2862 7.96451 13.1132 9.69424 12.8104C10.5366 12.6594 11.404 12.7357 12.207 13.0313C13.0101 13.3269 13.72 13.8311 14.2634 14.4922L22.0046 23.7686L29.1248 20.8601C30.7069 20.2142 32.4491 20.5602 33.6709 21.7638ZM29.5646 26.423C29.6547 26.1777 29.4132 25.9401 29.1736 26.0388L25.2398 27.6449L27.5991 30.4728C27.6326 30.5131 27.6761 30.5438 27.7252 30.5618C27.7744 30.5798 27.8274 30.5846 27.8789 30.5755C27.9305 30.5665 27.9787 30.544 28.0188 30.5103C28.0588 30.4766 28.0893 30.4329 28.107 30.3837L29.5637 26.423H29.5646Z" fill="url(#paint0_linear_1498_6514)"/>
</g>
<defs>
<linearGradient id="paint0_linear_1498_6514" x1="0.5" y1="12.7349" x2="21.7018" y2="44.5433" gradientUnits="userSpaceOnUse">
<stop stop-color="#FF4244"/>
<stop offset="1" stop-color="#FF8E3C"/>
</linearGradient>
<clipPath id="clip0_1498_6514">
<rect width="168" height="48" fill="white" transform="translate(0.5 0.734863)"/>
</clipPath>
</defs>
</svg>
