<svg width="129" height="49" viewBox="0 0 129 49" fill="none" xmlns="http://www.w3.org/2000/svg">
<g clip-path="url(#clip0_1498_6508)">
<path fill-rule="evenodd" clip-rule="evenodd" d="M100.092 32.3524C103.391 32.3524 106.074 29.7224 106.074 26.4898C106.074 23.2571 103.391 20.6271 100.092 20.6271C96.7933 20.6271 94.1095 23.2571 94.1095 26.4898C94.1095 29.7224 96.7933 32.3524 100.092 32.3524ZM106.074 11.92H106.236H108.908V35.1497H106.074V32.8303C104.438 34.316 102.329 35.1298 100.092 35.1298C95.2307 35.1298 91.2757 31.2539 91.2757 26.4898C91.2757 21.7254 95.2307 17.8496 100.092 17.8496C102.329 17.8496 104.438 18.6634 106.074 20.1492V11.92ZM41.3164 32.2501C44.615 32.2501 47.2986 29.6201 47.2986 26.3874C47.2986 23.1548 44.615 20.5249 41.3164 20.5249C38.0177 20.5249 35.3341 23.1548 35.3341 26.3874C35.3341 29.6201 38.0177 32.2501 41.3164 32.2501ZM35.3341 20.0472C36.9697 18.5613 39.0793 17.7475 41.3164 17.7475C46.1776 17.7475 50.1326 21.6234 50.1326 26.3874C50.1326 31.1516 46.1776 35.0275 41.3164 35.0275C39.0793 35.0275 36.9697 34.2138 35.3341 32.7278V40.9571H32.5V17.7275H35.3341V20.0472ZM55.5402 25.0384C56.178 22.413 58.5547 20.5279 61.2656 20.5279C63.9412 20.5279 66.1824 22.3728 66.7797 25.0384H55.5402ZM61.2656 17.7275C56.4772 17.7275 52.5817 21.6354 52.5817 26.4386C52.5817 31.2419 56.4772 35.1497 61.2656 35.1497C63.9471 35.1497 66.4082 34.1426 68.0188 32.3868L68.8556 31.4741L68.9634 31.3563L68.8461 31.2477L67.0268 29.5691L66.9095 29.4605L66.801 29.5784L65.9643 30.4912C64.897 31.6547 63.1406 32.3494 61.2656 32.3494C58.5547 32.3494 56.1782 30.4643 55.5402 27.8387H69.7243V26.4386C69.7243 21.5538 66.0087 17.7275 61.2656 17.7275ZM125.666 26.4386C125.666 29.6978 122.982 32.3494 119.683 32.3494C116.385 32.3494 113.701 29.6978 113.701 26.4386C113.701 23.1793 116.385 20.5277 119.683 20.5277C122.982 20.5277 125.666 23.1793 125.666 26.4386ZM119.683 17.7275C114.822 17.7275 110.867 21.6352 110.867 26.4386C110.867 31.2419 114.822 35.1497 119.683 35.1497C124.545 35.1497 128.5 31.2419 128.5 26.4386C128.5 21.6352 124.545 17.7275 119.683 17.7275ZM80.2547 17.7275C78.2855 17.7275 76.4093 18.4774 74.9326 19.847V17.7275H72.1735V35.1497H74.9326V26.2588C74.9326 23.0868 77.3201 20.506 80.2547 20.506C83.1898 20.506 85.5779 23.0868 85.5779 26.2588V35.1497H88.3364V26.2588C88.3364 21.5547 84.711 17.7275 80.2547 17.7275Z" fill="#1A2022"/>
<path fill-rule="evenodd" clip-rule="evenodd" d="M0.5 28.5126H13.8333V41.5497L27.1667 28.5126V15.4756H13.8333L0.5 28.5126Z" fill="#FF4876"/>
</g>
<defs>
<clipPath id="clip0_1498_6508">
<rect width="128" height="48" fill="white" transform="translate(0.5 0.734863)"/>
</clipPath>
</defs>
</svg>
