<svg width="161" height="49" viewBox="0 0 161 49" fill="none" xmlns="http://www.w3.org/2000/svg">
<g clip-path="url(#clip0_1498_6515)">
<path d="M39.3888 10.0735C35.3721 10.0735 33.9623 12.8665 33.9623 15.4733V17.0693H33.1111C32.4993 17.0693 32.0205 17.5481 32.0205 18.1599C32.0205 18.7717 32.4993 19.2505 33.1111 19.2505H33.9623V30.263C33.9623 30.9014 34.4677 31.4334 35.1327 31.4334C35.7711 31.4334 36.3031 30.928 36.3031 30.263V19.2505H38.8833C39.4951 19.2505 39.974 18.7717 39.974 18.1599C39.974 17.5481 39.4951 17.0693 38.8833 17.0693H36.3031V15.4733C36.3031 14.0103 36.8351 12.2813 39.4153 12.2813C40.0272 12.2813 40.506 11.8025 40.506 11.1907C40.4794 10.5523 40.0006 10.0735 39.3888 10.0735Z" fill="#4D4D4D"/>
<path d="M48.4331 16.6963C46.7041 16.6963 45.2411 17.4145 44.4165 18.5849V17.9731C44.4165 17.3347 43.9111 16.8027 43.2461 16.8027C42.6077 16.8027 42.0757 17.3081 42.0757 17.9731V30.2624C42.0757 30.9008 42.5811 31.4328 43.2461 31.4328C43.8845 31.4328 44.4165 30.9274 44.4165 30.2624V23.4793C44.4165 20.6331 45.9327 18.9307 48.4331 18.9307C49.0449 18.9307 49.5503 18.4253 49.5503 17.8135C49.5769 17.2017 49.0715 16.6963 48.4331 16.6963Z" fill="#4D4D4D"/>
<path d="M62.6645 22.7345C62.6645 22.0695 62.5581 20.3405 61.5473 18.9041C60.5098 17.4145 58.8872 16.6431 56.6794 16.6431C52.583 16.6431 50.2422 19.3563 50.2422 24.0911C50.2422 28.9855 52.583 31.5924 56.972 31.5924C59.9246 31.5924 61.5472 30.1293 61.8399 29.8367C62.0261 29.6505 62.2389 29.4111 62.2389 29.0121C62.2389 28.4269 61.7601 27.9481 61.1748 27.9481C60.8822 27.9481 60.696 28.0279 60.5098 28.1609C59.6586 28.7993 58.6744 29.4377 56.9986 29.4377C54.3652 29.4377 52.6894 27.7087 52.6096 24.8891H61.2546C62.6645 24.8625 62.6645 23.5857 62.6645 22.7345ZM56.6794 18.7711C59.0734 18.7711 60.3236 20.1277 60.3768 22.7877H52.6362C52.849 20.2075 54.2854 18.7711 56.6794 18.7711Z" fill="#4D4D4D"/>
<path d="M70.485 22.9213C68.7559 22.3361 67.2663 21.8041 67.2663 20.5273C67.2663 19.1175 68.8357 18.9047 69.7667 18.9047C71.4426 18.9047 72.2672 19.4899 72.9322 20.1283C73.145 20.3411 73.411 20.4475 73.7036 20.4475C74.2888 20.4475 74.7676 19.9687 74.7676 19.3835C74.7676 19.0643 74.6346 18.8515 74.5282 18.6919C73.544 17.3885 71.8682 16.6703 69.7667 16.6703C66.7875 16.6703 64.9521 18.1599 64.9521 20.5273C64.9521 23.4267 67.5057 24.3045 69.7401 25.0493C71.4426 25.6345 72.9056 26.1133 72.9056 27.3636C72.9056 29.066 71.0169 29.332 69.8731 29.332C68.3303 29.332 67.1333 28.8532 66.1491 27.8956C65.8565 27.603 65.5373 27.5497 65.3511 27.5497C64.7659 27.5497 64.2871 28.0286 64.2871 28.6138C64.2871 28.8532 64.3669 29.0394 64.5531 29.3054C65.4309 30.4226 67.4259 31.5664 69.8731 31.5664C73.2248 31.5664 75.2198 29.997 75.2198 27.3901C75.2198 24.5705 72.7194 23.6927 70.485 22.9213Z" fill="#4D4D4D"/>
<path d="M84.2904 16.6433C82.6944 16.6433 81.258 17.2817 80.46 18.2925V10.4188C80.46 9.78041 79.9545 9.24841 79.2895 9.24841C78.6511 9.24841 78.1191 9.75381 78.1191 10.4188V30.2891C78.1191 30.9275 78.6245 31.4595 79.2895 31.4595C79.9279 31.4595 80.46 30.9541 80.46 30.2891V22.8145C80.46 20.1279 81.7634 18.7713 84.2904 18.7713C86.7376 18.7713 87.7484 19.8885 87.7484 22.6017V30.2891C87.7484 30.9275 88.2538 31.4595 88.9188 31.4595C89.5572 31.4595 90.0892 30.9541 90.0892 30.2891V22.2027C90.036 18.5053 88.0942 16.6433 84.2904 16.6433Z" fill="#4D4D4D"/>
<path d="M109.427 16.83C108.922 16.83 108.523 17.1226 108.337 17.6014L105.012 27.071L102.298 17.6014C102.192 17.229 101.793 16.83 101.208 16.83C100.623 16.83 100.224 17.229 100.117 17.6014L97.4039 27.0444L94.0789 17.5748C93.8927 17.096 93.4937 16.83 92.9883 16.83C92.3499 16.83 91.8179 17.3354 91.8179 18.0004C91.8179 18.16 91.8445 18.3196 91.9243 18.4792L96.3665 30.6886C96.5527 31.1674 96.9517 31.4334 97.4571 31.4334C97.9891 31.4334 98.4413 31.0876 98.5743 30.6088L101.181 21.6446L103.788 30.6088C103.921 31.0876 104.4 31.4334 104.905 31.4334C105.411 31.4334 105.81 31.1408 105.996 30.662L110.438 18.4526C110.518 18.293 110.544 18.1068 110.544 17.9472C110.571 17.3354 110.066 16.83 109.427 16.83Z" fill="#4D4D4D"/>
<path d="M117.886 16.6431C113.657 16.6431 111.342 19.3031 111.342 24.0911C111.342 28.9323 113.657 31.5924 117.886 31.5924C122.115 31.5924 124.43 28.9323 124.43 24.0911C124.43 19.2765 122.089 16.6431 117.886 16.6431ZM117.886 29.4643C115.066 29.4643 113.683 27.7087 113.683 24.1177C113.683 20.5799 115.093 18.7977 117.886 18.7977C120.679 18.7977 122.089 20.5799 122.089 24.1177C122.089 27.7087 120.706 29.4643 117.886 29.4643Z" fill="#4D4D4D"/>
<path d="M133.421 16.6963C131.692 16.6963 130.229 17.4145 129.404 18.5849V17.9731C129.404 17.3347 128.899 16.8027 128.234 16.8027C127.595 16.8027 127.063 17.3081 127.063 17.9731V30.2624C127.063 30.9008 127.569 31.4328 128.234 31.4328C128.872 31.4328 129.404 30.9274 129.404 30.2624V23.4793C129.404 20.6331 130.92 18.9307 133.421 18.9307C134.033 18.9307 134.538 18.4253 134.538 17.8135C134.538 17.2017 134.033 16.6963 133.421 16.6963Z" fill="#4D4D4D"/>
<path d="M142.252 22.7613L147.067 18.9043C147.466 18.5851 147.519 18.1861 147.519 17.9733C147.519 17.3349 147.014 16.8029 146.349 16.8029C146.162 16.8029 145.843 16.8295 145.551 17.0955L138.714 22.6815V10.4188C138.714 9.78041 138.209 9.24841 137.544 9.24841C136.906 9.24841 136.374 9.75381 136.374 10.4188V30.2891C136.374 30.9275 136.879 31.4595 137.544 31.4595C138.182 31.4595 138.714 30.9541 138.714 30.2891V25.5011L140.337 24.1977L145.577 30.9275C145.87 31.2733 146.189 31.4595 146.561 31.4595C147.2 31.4595 147.732 30.9541 147.732 30.2891C147.732 30.1029 147.705 29.8369 147.492 29.5709L142.252 22.7613Z" fill="#4D4D4D"/>
<path d="M155.366 22.9213C153.637 22.3361 152.148 21.8041 152.148 20.5273C152.148 19.1175 153.717 18.9047 154.648 18.9047C156.324 18.9047 157.149 19.4899 157.814 20.1283C158.026 20.3411 158.292 20.4475 158.585 20.4475C159.17 20.4475 159.649 19.9687 159.649 19.3835C159.649 19.0377 159.463 18.7983 159.41 18.6919C158.425 17.3885 156.749 16.6703 154.648 16.6703C151.669 16.6703 149.833 18.1599 149.833 20.5273C149.833 23.4267 152.387 24.3045 154.621 25.0493C156.324 25.6345 157.787 26.1133 157.787 27.3636C157.787 29.066 155.898 29.332 154.754 29.332C153.212 29.332 152.015 28.8532 151.03 27.8956C150.738 27.603 150.445 27.5497 150.232 27.5497C149.647 27.5497 149.168 28.0286 149.168 28.6138C149.168 28.8532 149.248 29.0394 149.434 29.3054C150.312 30.4226 152.307 31.5664 154.754 31.5664C158.106 31.5664 160.101 29.997 160.101 27.3901C160.101 24.5705 157.601 23.6927 155.366 22.9213Z" fill="#4D4D4D"/>
<path d="M0.659668 29.624C1.11187 32.5766 2.49508 35.2366 4.49009 37.2316L9.14512 32.5766C9.14512 27.8684 11.5923 23.2931 15.9548 20.7661L0.659668 29.624Z" fill="#9B65C3"/>
<path d="M9.14512 32.5772C6.8309 32.5772 4.49009 31.992 2.33548 30.7418C1.75027 30.396 1.19167 30.0236 0.659668 29.598C1.11187 32.5506 2.49508 35.2107 4.49009 37.2057L9.14512 32.5772Z" fill="#9B65C3"/>
<path d="M9.14477 32.5767L4.48975 37.2318C6.51136 39.2534 9.14477 40.6366 12.0974 41.0622L20.9286 25.7671C18.4282 30.1295 13.853 32.5767 9.14477 32.5767Z" fill="#BE63C5"/>
<path d="M10.9802 39.4124C9.72998 37.2578 9.14477 34.917 9.14477 32.6028L4.48975 37.2578C6.51136 39.2794 9.14477 40.6626 12.0974 41.0882C11.6984 40.5562 11.326 39.9976 10.9802 39.4124Z" fill="#BF63C6"/>
<path d="M26.4886 14.7009L15.9815 20.7924C11.6191 23.3194 6.43209 23.1332 2.36227 20.7924C1.19186 22.7874 0.526855 25.1282 0.526855 27.602C0.526855 28.2936 0.580055 28.9586 0.686456 29.6236C1.21846 30.0492 1.77706 30.4216 2.36227 30.7674C4.51688 32.0176 6.85769 32.6028 9.1719 32.6028L26.7812 14.9935C26.6748 14.8871 26.595 14.7807 26.4886 14.7009Z" fill="#3278B1"/>
<path d="M2.33522 30.7681C4.48984 32.0184 6.83065 32.6036 9.14486 32.6036C9.14486 27.8953 11.5921 23.3201 15.9545 20.7931L0.632812 29.6243C1.19142 30.0233 1.75002 30.4223 2.33522 30.7681Z" fill="#3278B2"/>
<path d="M2.33541 20.7931C1.165 22.7881 0.5 25.1289 0.5 27.6027C0.5 28.2943 0.5532 28.9593 0.659601 29.6243L15.9813 20.7931C11.5923 23.2935 6.40523 23.1339 2.33541 20.7931Z" fill="#45A4EC"/>
<path d="M26.781 14.9672C26.7012 14.8874 26.5948 14.781 26.4884 14.7012C26.3554 14.5948 26.2224 14.4884 26.0628 14.4086C25.5574 14.116 24.9722 13.9564 24.3604 13.9564H14.1459C9.09189 13.9564 4.70286 16.6962 2.33545 20.7661C6.40527 23.1069 11.5923 23.2931 15.9547 20.7661C11.5923 23.2931 9.14509 27.8683 9.14509 32.5765C13.8533 32.5765 18.4285 30.1293 20.9556 25.7669L27.0204 15.2598C26.9406 15.1534 26.8608 15.047 26.781 14.9672Z" fill="#19BB7D"/>
<path d="M15.9813 20.7925L26.4884 14.7277C26.3554 14.6213 26.2224 14.5149 26.0628 14.4351L2.33545 20.7925C6.40527 23.1333 11.5923 23.2929 15.9813 20.7925Z" fill="#08C7FB"/>
<path d="M24.3604 13.9564H14.1459C9.09189 13.9564 4.70286 16.6962 2.33545 20.7661L26.0628 14.4086C25.5574 14.1426 24.9988 13.9564 24.3604 13.9564Z" fill="#59F2F6"/>
<path d="M20.9555 25.7666L27.0203 15.2595C26.9405 15.1531 26.8607 15.0733 26.7543 14.9669L9.14502 32.5762C9.14502 34.8904 9.73022 37.2312 10.9804 39.3859C11.3262 39.9711 11.6986 40.5297 12.1242 41.0617C12.7892 41.1681 13.4542 41.2213 14.1458 41.2213C16.6197 41.2213 18.9605 40.5563 20.9555 39.3859C18.6147 35.316 18.4285 30.129 20.9555 25.7666Z" fill="#DA3757"/>
<path d="M9.14502 32.5767C9.14502 34.8909 9.73022 37.2318 10.9804 39.3864C11.3262 39.9716 11.6986 40.5302 12.1242 41.0622L20.9555 25.7671C18.4285 30.1295 13.8532 32.5767 9.14502 32.5767Z" fill="#D33C4E"/>
<path d="M20.9558 25.7671L12.1245 41.0888C12.7895 41.1952 13.4545 41.2484 14.1461 41.2484C16.6199 41.2484 18.9608 40.5834 20.9558 39.413C18.6149 35.3165 18.4287 30.1295 20.9558 25.7671Z" fill="#EE5A24"/>
<path d="M27.3132 15.6851C27.2334 15.5255 27.127 15.3925 27.0206 15.2595C26.9408 15.1531 26.861 15.0733 26.7546 14.9669C26.6748 14.8871 26.5684 14.7807 26.462 14.7009L15.9815 20.7924C11.6191 23.3194 9.17188 27.8946 9.17188 32.6028C13.8801 32.6028 18.4553 30.1556 20.9823 25.7932C18.4553 30.1556 18.6415 35.3426 20.9823 39.4125C25.0522 37.0451 27.792 32.656 27.792 27.602V17.3875C27.7654 16.7491 27.6058 16.1639 27.3132 15.6851Z" fill="#8BDF55"/>
<path d="M26.4886 14.7009L15.9815 20.7924C11.6191 23.3194 9.17188 27.8946 9.17188 32.6028L26.7812 14.9935C26.6748 14.8871 26.595 14.7807 26.4886 14.7009Z" fill="#25C16F"/>
<path d="M9.14502 32.5762C13.8532 32.5762 18.4285 30.129 20.9555 25.7666L27.0203 15.2595C26.9405 15.1531 26.8607 15.0733 26.7543 14.9669L9.14502 32.5762Z" fill="#8BDF55"/>
<path d="M27.0203 15.2601L20.9555 25.7672C18.4285 30.1296 18.6147 35.3166 20.9555 39.3865L27.3129 15.6591C27.2331 15.5261 27.1267 15.3931 27.0203 15.2601Z" fill="#FFBB00"/>
<path d="M20.9551 39.413C25.0249 37.0456 27.7647 32.6566 27.7647 27.6025V17.3881C27.7647 16.7763 27.6051 16.1911 27.3125 15.6857L20.9551 39.413Z" fill="#FFA800"/>
</g>
<defs>
<clipPath id="clip0_1498_6515">
<rect width="160" height="48" fill="white" transform="translate(0.5 0.734863)"/>
</clipPath>
</defs>
</svg>
