<svg width="343" height="333" viewBox="0 0 343 333" fill="none" xmlns="http://www.w3.org/2000/svg">
<rect width="343" height="332" transform="translate(0 0.5)" fill="white"/>
<g clip-path="url(#clip0_1505_11017)">
<path fill-rule="evenodd" clip-rule="evenodd" d="M107.718 156.865C108.432 157.035 109.058 157.463 109.478 158.066C109.912 158.826 110.119 159.696 110.073 160.57C110.073 161.72 109.897 162.863 109.552 163.959C109.146 165.239 108.639 166.485 108.034 167.683L107.327 169.238L103.845 160.784C103.675 160.382 103.531 159.968 103.417 159.546C103.325 159.224 103.269 158.893 103.249 158.559C103.231 158.137 103.382 157.725 103.669 157.414C103.955 157.103 104.353 156.919 104.776 156.902V156.651H94.2738V156.902C94.6311 156.967 94.9765 157.087 95.2979 157.256C95.6259 157.476 95.9023 157.766 96.1079 158.103C96.4707 158.673 96.7822 159.275 97.039 159.9L98.6776 163.81L95.7169 169.667L91.3038 159.425C91.1902 159.221 91.0967 159.005 91.0245 158.783C90.9868 158.621 90.965 158.456 90.9593 158.289C90.9569 157.978 91.0696 157.676 91.2759 157.442C91.5304 157.167 91.8508 156.962 92.2069 156.846V156.613H81.5V156.865C82.3707 157.131 83.1591 157.615 83.7903 158.271C84.6188 159.224 85.2969 160.297 85.8014 161.455L92.5793 176.519H92.8586L98.9662 164.416L104.189 176.519H104.469L110.679 163.112C111.337 161.585 112.168 160.139 113.155 158.801C113.8 157.963 114.632 157.287 115.585 156.828V156.586H107.718V156.865Z" fill="#54575A"/>
<path d="M124.793 170.169C124.123 171.892 122.642 172.739 120.306 172.739C119.037 172.806 117.803 172.316 116.926 171.398C116.03 170.316 115.575 168.937 115.65 167.534H124.961V167.358C124.976 166.242 124.651 165.147 124.03 164.22C123.394 163.324 122.533 162.611 121.534 162.153C120.439 161.654 119.247 161.403 118.043 161.418C116.704 161.4 115.381 161.72 114.198 162.349C113.044 162.96 112.079 163.874 111.405 164.993C110.686 166.202 110.325 167.59 110.362 168.996C110.334 170.298 110.656 171.584 111.293 172.72C111.921 173.806 112.836 174.699 113.937 175.299C115.116 175.94 116.441 176.261 117.782 176.23C119.49 176.31 121.17 175.771 122.512 174.713C123.859 173.562 124.764 171.979 125.072 170.234L124.793 170.169ZM116.256 163.214C116.474 162.402 117.211 161.837 118.052 161.837C118.308 161.838 118.56 161.898 118.788 162.013C119.027 162.145 119.224 162.342 119.356 162.581C119.501 162.812 119.62 163.059 119.71 163.317C119.829 163.685 119.901 164.067 119.924 164.453C119.924 164.909 119.989 165.542 119.989 166.315V167.022H115.65C115.654 166.291 115.701 165.56 115.79 164.834C115.894 164.269 116.05 163.714 116.256 163.177V163.214Z" fill="#54575A"/>
<path d="M141.412 173.94C141.322 174.018 141.205 174.058 141.086 174.052H140.769C140.466 174.057 140.184 173.897 140.034 173.633C139.82 173.108 139.734 172.54 139.783 171.975V165.225C139.866 164.155 139.532 163.095 138.852 162.265C138.1 161.563 137.08 161.224 136.058 161.334C134.928 161.353 133.804 161.5 132.707 161.771C131.461 162.052 130.251 162.477 129.104 163.038C128.168 163.426 127.324 164.006 126.627 164.741C126.14 165.243 125.852 165.905 125.817 166.603C125.795 167.149 126.012 167.676 126.413 168.047C126.857 168.419 127.426 168.609 128.005 168.577C128.707 168.558 129.374 168.268 129.867 167.767C130.463 167.144 130.77 166.3 130.714 165.44V164.946C130.669 164.225 130.883 163.511 131.319 162.935C131.668 162.497 132.203 162.249 132.763 162.265C133.162 162.247 133.557 162.358 133.889 162.581C134.245 162.862 134.487 163.262 134.569 163.708C134.731 164.451 134.803 165.21 134.783 165.97V167.451C133.34 167.87 131.99 168.326 130.9 168.754C129.802 169.171 128.73 169.653 127.688 170.197C126.521 170.711 125.751 171.846 125.705 173.121C125.694 174.002 126.115 174.833 126.832 175.346C127.679 175.936 128.696 176.233 129.727 176.193C130.79 176.212 131.842 175.982 132.8 175.523C133.598 175.098 134.296 174.507 134.848 173.791C134.913 174.462 135.213 175.089 135.695 175.56C136.208 176.013 136.874 176.252 137.557 176.23C138.325 176.241 139.08 176.045 139.745 175.662C140.46 175.282 141.069 174.728 141.514 174.052L141.412 173.94ZM133.116 174.191C132.027 174.191 131.459 173.447 131.459 171.929C131.448 171.019 131.781 170.138 132.39 169.462C133.074 168.786 133.906 168.279 134.82 167.981V172.19C134.858 172.723 134.695 173.251 134.364 173.67C134.074 174.032 133.626 174.23 133.163 174.201L133.116 174.191Z" fill="#54575A"/>
<path fill-rule="evenodd" clip-rule="evenodd" d="M141.412 175.495C141.91 175.5 142.376 175.246 142.641 174.824C142.967 174.068 143.101 173.243 143.032 172.422V160.608C143.117 159.608 142.92 158.605 142.464 157.712C142.14 157.166 141.544 156.841 140.909 156.865V156.548C142.082 156.26 143.311 155.98 144.512 155.617C145.713 155.254 146.914 154.956 147.966 154.574V172.99C147.917 173.628 148.026 174.267 148.283 174.852C148.527 175.199 148.921 175.409 149.344 175.42V175.737H141.412V175.495Z" fill="#54575A"/>
<path fill-rule="evenodd" clip-rule="evenodd" d="M151.886 175.42C151.226 174.665 150.907 173.672 151.002 172.674V162.963H148.851L148.786 162.721C149.644 162.297 150.458 161.789 151.216 161.203C152.093 160.511 152.929 159.768 153.72 158.978C154.496 158.196 155.215 157.359 155.871 156.474L156.122 156.548V161.734H159.362L158.664 162.935H156.122V171.715C156.075 172.359 156.207 173.003 156.504 173.577C156.754 173.936 157.165 174.149 157.603 174.145C157.84 174.132 158.077 174.101 158.31 174.052C158.538 174.003 158.754 173.908 158.943 173.772L159.12 174.024C158.377 174.655 157.572 175.21 156.718 175.681C155.986 176.054 155.175 176.245 154.353 176.24C153.458 176.293 152.576 176.003 151.886 175.43V175.42Z" fill="#54575A"/>
<path fill-rule="evenodd" clip-rule="evenodd" d="M174.678 174.89C174.445 174.198 174.351 173.467 174.399 172.739V165.365C174.399 162.721 173.3 161.38 171.15 161.38C170.575 161.368 170.003 161.45 169.455 161.622C168.858 161.834 168.288 162.119 167.761 162.47C167.202 162.861 166.494 163.401 165.684 164.062V154.64C164.548 154.993 163.431 155.347 162.258 155.664C161.085 155.98 159.893 156.297 158.59 156.595V156.911C159.224 156.887 159.821 157.213 160.145 157.759C160.582 158.655 160.775 159.65 160.703 160.645V172.19C160.779 173.08 160.635 173.975 160.284 174.797C160.004 175.244 159.509 175.513 158.981 175.504V175.821H167.025V175.504C166.601 175.496 166.213 175.266 166.001 174.899C165.732 174.216 165.624 173.48 165.684 172.748V164.555C166.032 164.249 166.425 163.998 166.848 163.81C167.174 163.641 167.533 163.546 167.9 163.531C168.373 163.52 168.816 163.761 169.064 164.164C169.405 164.827 169.553 165.572 169.492 166.315V172.739C169.504 173.306 169.469 173.872 169.39 174.433C169.358 174.73 169.219 175.005 168.999 175.206C168.763 175.379 168.481 175.479 168.189 175.495V175.811H175.702V175.495C175.276 175.496 174.883 175.264 174.678 174.89Z" fill="#54575A"/>
<path fill-rule="evenodd" clip-rule="evenodd" d="M181.065 176.026C180.394 175.877 179.761 175.774 179.203 175.672C178.715 175.569 178.22 175.51 177.722 175.495C177.498 175.501 177.274 175.523 177.052 175.56C176.87 175.618 176.693 175.69 176.521 175.774V169.257L176.81 169.182C177.64 170.523 178.574 171.796 179.603 172.99C180.261 173.787 181.047 174.466 181.931 175.001C182.572 175.38 183.3 175.588 184.044 175.607C184.581 175.656 185.116 175.492 185.534 175.15C185.847 174.831 186.012 174.396 185.99 173.949C186.014 173.385 185.781 172.841 185.357 172.469C184.662 171.952 183.893 171.544 183.076 171.259L181.028 170.449C179.76 170.015 178.587 169.342 177.573 168.466C176.915 167.802 176.558 166.896 176.587 165.961C176.561 165.131 176.795 164.314 177.257 163.624C177.739 162.9 178.408 162.321 179.193 161.948C180.143 161.507 181.182 161.29 182.229 161.315C182.852 161.308 183.475 161.354 184.091 161.455C184.687 161.567 185.254 161.632 185.711 161.743C186.167 161.855 186.558 161.883 186.809 161.883C186.973 161.903 187.139 161.903 187.303 161.883L187.619 161.781L188.01 167.069L187.759 167.143C186.891 165.671 185.822 164.327 184.584 163.149C183.828 162.422 182.838 161.986 181.791 161.92C181.279 161.892 180.775 162.054 180.376 162.377C180.003 162.677 179.792 163.136 179.808 163.615C179.783 164.133 179.991 164.635 180.376 164.983C180.924 165.436 181.557 165.775 182.238 165.98L184.668 166.79C185.883 167.119 187.007 167.721 187.954 168.549C188.621 169.224 188.978 170.144 188.941 171.091C189.002 172.526 188.418 173.912 187.349 174.871C186.142 175.831 184.626 176.317 183.085 176.24C182.398 176.229 181.713 176.16 181.037 176.035L181.065 176.026Z" fill="#54575A"/>
<path fill-rule="evenodd" clip-rule="evenodd" d="M192.992 160.459C193.796 160.482 194.575 160.174 195.147 159.608C195.718 159.041 196.033 158.265 196.017 157.461C195.998 156.704 195.699 155.981 195.179 155.431C194.625 154.81 193.823 154.469 192.992 154.5C192.477 154.494 191.972 154.64 191.539 154.919C191.088 155.192 190.708 155.569 190.431 156.018C190.159 156.45 190.011 156.95 190.003 157.461C190.01 158.266 190.346 159.033 190.934 159.583C191.468 160.149 192.214 160.466 192.992 160.459Z" fill="#54575A"/>
<path fill-rule="evenodd" clip-rule="evenodd" d="M221.881 174.927C221.617 174.327 221.509 173.671 221.565 173.018V165.365C221.565 162.721 220.475 161.38 218.325 161.38C217.724 161.384 217.128 161.478 216.556 161.66C215.929 161.888 215.337 162.201 214.796 162.591C214.149 163.014 213.527 163.474 212.934 163.969C212.851 163.306 212.538 162.693 212.049 162.237C211.394 161.674 210.548 161.384 209.685 161.427C208.715 161.436 207.76 161.665 206.892 162.097C205.972 162.528 205.129 163.107 204.396 163.81V161.38C203.726 161.622 202.981 161.911 202.171 162.153C201.361 162.395 200.551 162.684 199.741 162.935C198.931 163.187 198.261 163.354 197.693 163.494V163.81C198.243 163.821 198.749 164.112 199.034 164.583C199.35 165.44 199.484 166.353 199.425 167.265V173.018C199.488 173.684 199.298 174.348 198.894 174.88C198.56 175.226 198.099 175.418 197.618 175.411C197.114 175.451 196.619 175.255 196.278 174.88C195.919 174.329 195.758 173.673 195.822 173.018V161.278C194.732 161.697 193.596 162.088 192.405 162.442C191.213 162.796 189.965 163.14 188.727 163.429V163.708C189.406 163.709 190.036 164.061 190.394 164.639C190.774 165.519 190.943 166.475 190.887 167.432V172.087C190.939 172.965 190.806 173.843 190.496 174.666C190.232 175.157 189.713 175.456 189.155 175.439V175.756H205.737V175.439C205.317 175.395 204.94 175.162 204.713 174.806C204.454 174.221 204.345 173.581 204.396 172.944V164.416C204.666 164.15 204.982 163.936 205.327 163.782C205.668 163.612 206.045 163.525 206.426 163.531C206.915 163.497 207.384 163.728 207.655 164.136C207.969 164.807 208.103 165.548 208.046 166.287V172.99C208.1 173.628 207.991 174.269 207.729 174.852C207.51 175.188 207.143 175.399 206.743 175.42V175.737H214.358V175.42C213.941 175.396 213.556 175.188 213.306 174.852C213.068 174.236 212.969 173.575 213.018 172.916V164.378C213.326 164.104 213.656 163.855 214.005 163.633C214.337 163.435 214.716 163.326 215.103 163.317C215.578 163.306 216.023 163.552 216.267 163.959C216.604 164.66 216.749 165.438 216.686 166.212V172.916C216.744 173.574 216.662 174.238 216.444 174.862C216.209 175.213 215.804 175.411 215.383 175.383V175.7H223.017V175.383C222.579 175.506 222.113 175.318 221.881 174.927Z" fill="#54575A"/>
<path d="M238.5 165.44C238.339 164.621 237.974 163.855 237.439 163.214C236.542 162.018 235.126 161.326 233.631 161.352C232.844 161.337 232.062 161.493 231.341 161.809C230.637 162.142 229.982 162.572 229.395 163.084V161.343C228.725 161.594 227.952 161.837 227.142 162.125C226.332 162.414 225.484 162.647 224.637 162.898C223.79 163.149 223.045 163.354 222.347 163.531V163.81C222.789 163.856 223.219 163.986 223.613 164.192C223.957 164.448 224.185 164.83 224.246 165.253C224.406 165.911 224.478 166.588 224.46 167.264V177.04C224.492 177.846 224.407 178.652 224.209 179.433C224.108 179.905 223.832 180.321 223.436 180.597C223.036 180.828 222.592 180.974 222.133 181.025V181.342H231.583V181.025C230.949 181.026 230.341 180.771 229.898 180.318C229.496 179.625 229.32 178.824 229.395 178.027V175.355C229.718 175.6 230.08 175.789 230.466 175.914C231.015 176.082 231.586 176.166 232.16 176.165C233.04 176.164 233.912 175.997 234.73 175.672C235.53 175.328 236.253 174.824 236.852 174.191C237.496 173.472 237.987 172.629 238.296 171.715C238.67 170.673 238.856 169.573 238.845 168.466C238.848 167.434 238.729 166.406 238.491 165.402L238.5 165.44ZM232.747 173.819C232.426 174.665 231.639 175.244 230.736 175.299C230.435 175.3 230.137 175.24 229.86 175.122C229.679 175.031 229.512 174.911 229.367 174.769V163.596C229.829 163.187 230.409 162.936 231.024 162.879C231.76 162.879 232.365 163.373 232.886 164.322C233.452 165.783 233.693 167.349 233.594 168.912C233.594 171.203 233.342 172.832 232.775 173.819H232.747Z" fill="#54575A"/>
<path fill-rule="evenodd" clip-rule="evenodd" d="M238.677 175.495C239.178 175.502 239.647 175.248 239.915 174.824C240.232 174.066 240.363 173.242 240.297 172.422V160.608C240.379 159.609 240.186 158.608 239.738 157.712C239.415 157.166 238.818 156.841 238.184 156.865V156.548C239.347 156.26 240.586 155.98 241.787 155.617C242.988 155.254 244.179 154.947 245.241 154.565V172.99C245.187 173.628 245.296 174.269 245.557 174.852C245.802 175.199 246.195 175.409 246.619 175.42V175.737H238.677V175.495Z" fill="#54575A"/>
<path d="M260.873 170.169C260.203 171.892 258.685 172.739 256.385 172.739C255.119 172.798 253.887 172.31 253.006 171.398C252.104 170.322 251.659 168.935 251.768 167.534H261.078V167.358C261.088 166.242 260.763 165.149 260.147 164.22C259.51 163.328 258.658 162.61 257.67 162.134C255.32 161.084 252.619 161.163 250.334 162.349C249.179 162.959 248.214 163.874 247.541 164.993C246.819 166.195 246.451 167.576 246.479 168.978C246.451 170.28 246.773 171.566 247.41 172.702C248.042 173.788 248.96 174.68 250.064 175.281C251.242 175.923 252.568 176.244 253.909 176.212C255.625 176.291 257.313 175.752 258.666 174.694C259.994 173.541 260.885 171.967 261.19 170.234L260.873 170.169ZM252.335 163.214C252.575 162.416 253.299 161.861 254.132 161.837C254.388 161.838 254.64 161.898 254.868 162.013C255.107 162.145 255.304 162.342 255.436 162.581C255.581 162.812 255.7 163.059 255.79 163.317C255.909 163.685 255.981 164.067 256.004 164.453C256.004 164.909 256.069 165.542 256.069 166.315V167.022H251.73C251.734 166.291 251.78 165.56 251.87 164.834C251.974 164.269 252.129 163.714 252.335 163.177V163.214Z" fill="#54575A"/>
</g>
<defs>
<clipPath id="clip0_1505_11017">
<rect width="180" height="48" fill="white" transform="translate(81.5 142.5)"/>
</clipPath>
</defs>
</svg>
