<svg width="343" height="333" viewBox="0 0 343 333" fill="none" xmlns="http://www.w3.org/2000/svg">
<rect width="343" height="332" transform="translate(0 0.5)" fill="white"/>
<g clip-path="url(#clip0_1505_10980)">
<path d="M226.531 165.436V177.488H230.383V169.454H244.472V177.488H248.324V165.436H226.531ZM229.943 161.529H244.802C246.893 161.144 248.379 159.273 248.819 157.512H225.926C226.366 159.273 227.907 161.089 229.943 161.529ZM214.809 177.488C216.735 176.663 217.781 175.232 218.221 173.581H200.886V157.567H196.979V177.488H214.809ZM168.087 161.474H181.845C183.936 160.869 185.642 159.273 186.083 157.567H164.29V169.344H182.12V173.471H168.142C165.941 174.076 164.07 175.562 163.134 177.488H185.973V165.436H168.142L168.087 161.474ZM134.188 161.529H149.046C151.137 161.144 152.678 159.273 153.063 157.512H130.115C130.555 159.273 132.096 161.089 134.188 161.529ZM134.188 169.399H149.046C151.137 169.013 152.678 167.142 153.063 165.381H130.115C130.555 167.142 132.096 168.958 134.188 169.399ZM134.188 177.488H149.046C151.137 177.103 152.678 175.232 153.063 173.471H130.115C130.555 175.232 132.096 177.103 134.188 177.488Z" fill="#5E5E5E"/>
<path d="M95.5 157.567C95.9403 159.328 97.4812 161.089 99.5173 161.529H105.791L106.121 161.639V177.433H110.028V161.639L110.359 161.529H116.632C118.724 160.979 120.209 159.328 120.65 157.567V157.512L95.5 157.567Z" fill="#5E5E5E"/>
</g>
<defs>
<clipPath id="clip0_1505_10980">
<rect width="153" height="48" fill="white" transform="translate(95.5 142.5)"/>
</clipPath>
</defs>
</svg>
