<svg width="332" height="333" viewBox="0 0 332 333" fill="none" xmlns="http://www.w3.org/2000/svg">
<rect width="332" height="332" transform="translate(0 0.5)" fill="white"/>
<g clip-path="url(#clip0_1505_11020)">
<path d="M140.79 173.584C137.607 173.584 135.5 171.172 134.912 170.238C135.666 164.329 137.873 162.461 140.79 162.461C143.674 162.461 145.915 164.72 145.915 168.022C145.915 171.324 143.674 173.584 140.79 173.584ZM140.79 158.833C135.599 158.833 132.693 162.146 131.861 165.556C130.919 163.818 130.22 161.494 129.676 159.332H122.5V168.077C122.5 171.248 121.025 173.595 118.141 173.595C115.257 173.595 113.604 171.248 113.604 168.077L113.637 159.332H109.5V168.077C109.5 170.629 110.343 172.943 111.885 174.594C113.471 176.299 115.634 177.19 118.141 177.19C123.132 177.19 126.615 173.443 126.615 168.077V162.2C127.136 164.133 128.379 167.848 130.752 171.107L128.534 183.48H132.738L134.202 174.713C134.679 175.105 135.189 175.452 135.732 175.767C137.141 176.636 138.749 177.125 140.413 177.179C140.413 177.179 140.668 177.19 140.802 177.19C145.948 177.19 150.041 173.291 150.041 168.022C150.041 162.754 145.937 158.833 140.79 158.833Z" fill="#14A800"/>
<path d="M200.232 161.201V159.333H196.173V176.637H200.288V169.859C200.288 165.688 200.676 162.69 206.388 163.081V159.127C203.726 158.931 201.652 159.474 200.232 161.201Z" fill="#14A800"/>
<path d="M171.66 159.333L168.676 171.434L165.493 159.333H160.258L157.063 171.434L154.091 159.333H149.92L154.49 176.648H159.437L162.875 164.352L166.281 176.648H171.228L176.064 159.333H171.66Z" fill="#14A800"/>
<path d="M185.126 173.595C182.198 173.595 180.002 171.335 180.002 168.022C180.002 164.709 182.209 162.461 185.126 162.461C188.01 162.461 190.251 164.72 190.251 168.022C190.251 171.324 188.01 173.595 185.126 173.595ZM185.126 158.833C179.946 158.833 175.887 162.765 175.887 168.022C175.887 173.28 179.946 177.179 185.126 177.179C190.273 177.179 194.366 173.28 194.366 168.022C194.366 162.765 190.284 158.833 185.126 158.833Z" fill="#14A800"/>
<path d="M212.29 168.131H213.244L218.99 176.647H223.637L217.027 167.208C220.232 165.98 222.384 162.776 222.384 159.333H218.28C218.28 163.069 215.274 164.481 212.29 164.481V152.5H208.164V176.647H212.279L212.29 168.131Z" fill="#14A800"/>
</g>
<defs>
<clipPath id="clip0_1505_11020">
<rect width="114" height="48" fill="white" transform="translate(109.5 142.5)"/>
</clipPath>
</defs>
</svg>
