<svg width="354" height="333" viewBox="0 0 354 333" fill="none" xmlns="http://www.w3.org/2000/svg">
<rect width="354" height="332" transform="translate(0 0.5)" fill="white"/>
<g clip-path="url(#clip0_1505_10947)">
<path d="M104.773 155.36C104.671 155.206 104.554 155.124 104.424 155.124C104.317 155.124 104.22 155.179 104.157 155.225C103.173 156.109 101.827 159.851 100.724 164.783L101.7 164.795C103.63 164.82 105.621 164.846 107.591 164.881C107.072 162.622 106.581 160.686 106.131 159.123C105.474 156.839 105.03 155.816 104.773 155.36Z" fill="#10069F"/>
<path d="M106.963 145.852C96.7578 145.852 88.4854 155.308 88.4854 166.974C88.4854 178.639 96.7578 188.095 106.963 188.095C117.167 188.095 125.44 178.639 125.44 166.974C125.44 155.308 117.167 145.852 106.963 145.852ZM120.249 167.357C120.248 167.359 120.246 167.36 120.245 167.361C120.225 167.38 120.205 167.397 120.183 167.414C120.177 167.419 120.17 167.425 120.162 167.43C120.148 167.44 120.133 167.45 120.119 167.46C120.106 167.469 120.093 167.478 120.079 167.486C120.079 167.487 120.078 167.487 120.077 167.488C119.941 167.569 119.786 167.616 119.622 167.616C119.609 167.616 110.87 167.616 110.87 167.616C110.939 167.948 111.016 168.324 111.099 168.734C111.578 171.101 112.853 177.391 114.207 177.391L114.233 177.392L114.248 177.39H114.274C115.332 177.39 115.871 175.642 117.054 171.813L117.068 171.766C117.258 171.151 117.472 170.458 117.705 169.724L117.764 169.536H117.765C117.825 169.353 117.979 169.222 118.161 169.222C118.395 169.222 118.585 169.44 118.585 169.707C118.585 169.755 118.578 169.802 118.567 169.846L118.518 170.034C118.395 170.49 118.263 171.111 118.112 171.829C117.407 175.169 116.342 180.214 113.61 180.214H113.59C111.825 180.198 110.768 176.972 110.317 175.595C109.473 173.018 108.835 170.273 108.219 167.615H100.162L98.4891 173.734L98.4646 173.712C98.3117 173.987 98.0431 174.164 97.747 174.164C97.2803 174.164 96.8981 173.729 96.8959 173.196L96.8973 173.163L96.9983 172.47C97.229 170.898 97.5058 169.266 97.822 167.616H94.4204L94.4077 167.601C93.7903 167.5 93.3162 166.877 93.3162 166.151C93.3162 165.439 93.7569 164.833 94.364 164.71C94.4196 164.701 94.5324 164.69 94.7617 164.69C94.8107 164.69 94.8656 164.69 94.9272 164.692C96.0054 164.713 97.1496 164.733 98.4045 164.751C100.18 156.503 102.237 152.316 104.519 152.304C106.967 152.304 108.784 158.676 110.237 164.91L110.243 164.935C113.23 165.003 116.414 165.102 119.509 165.356L119.639 165.37C119.688 165.371 119.737 165.376 119.785 165.385L119.803 165.387C119.808 165.387 119.813 165.389 119.818 165.391C119.821 165.392 119.823 165.393 119.826 165.393C120.277 165.496 120.611 165.947 120.611 166.49C120.611 166.838 120.47 167.151 120.249 167.357Z" fill="#10069F"/>
<path d="M135.694 172.258L134.229 176.396H129.974L138.071 154.79H141.83L149.899 176.397H145.67L144.206 172.259H135.694V172.258ZM139.922 160.255L137.159 168.121H142.741L139.922 160.255Z" fill="#10069F"/>
<path d="M173.884 168.089V176.397H170.043V168.468C170.043 166.068 169.02 164.772 167.224 164.772C166.423 164.772 165.539 165.183 164.737 166.447C164.793 166.984 164.848 167.521 164.848 168.089V176.397H161.007V168.468C161.007 166.068 159.984 164.772 158.16 164.772C157.414 164.772 156.585 165.278 155.812 166.478V176.397H151.971V161.266H155.812V162.182C156.64 161.297 157.525 160.792 159.072 160.792C160.758 160.792 162.25 161.55 163.3 162.939C164.71 161.455 166.036 160.792 168.109 160.792C171.341 160.792 173.884 163.666 173.884 168.089Z" fill="#10069F"/>
<path d="M190.768 168.847C190.768 173.237 187.839 176.712 184.191 176.712C182.699 176.712 181.456 176.27 180.434 175.511V183.693H176.593V161.265H180.434V162.15C181.456 161.391 182.7 160.949 184.191 160.949C187.839 160.95 190.768 164.393 190.768 168.847ZM186.982 168.847C186.982 166.604 185.546 164.645 183.556 164.645C182.422 164.645 181.289 165.087 180.433 166.414V171.247C181.289 172.543 182.422 172.984 183.556 172.984C185.545 172.985 186.982 171.058 186.982 168.847Z" fill="#10069F"/>
<path d="M196.765 176.396H192.924V153.969H196.765V176.396Z" fill="#10069F"/>
<path d="M200.219 155.928C200.219 154.443 201.241 153.337 202.54 153.337C203.811 153.337 204.834 154.442 204.834 155.928C204.834 157.381 203.811 158.455 202.54 158.455C201.241 158.455 200.219 157.381 200.219 155.928ZM204.474 161.266V176.397H200.634V161.266H204.474Z" fill="#10069F"/>
<path d="M218.429 176.175C216.826 176.744 216.108 176.87 214.864 176.87C211.658 176.87 209.558 174.28 209.558 170.363V164.961H206.768V161.266H209.558V155.864H213.372V161.266H218.152V164.961H213.372V170.332C213.372 172.038 214.284 172.827 215.693 172.827C216.411 172.827 217.185 172.638 217.931 172.417L218.429 176.175Z" fill="#10069F"/>
<path d="M233.848 176.396H230.007V175.322C228.929 176.301 227.713 176.87 226.221 176.87C222.739 176.87 220.418 173.996 220.418 169.605V161.266H224.259V169.194C224.259 171.595 225.309 172.89 227.105 172.89C228.072 172.89 229.122 172.227 230.007 170.995V161.266H233.848V176.396V176.396Z" fill="#10069F"/>
<path d="M250.152 176.396H246.311V175.511C245.288 176.27 244.045 176.712 242.553 176.712C238.905 176.712 235.948 173.269 235.948 168.814C235.948 164.424 238.905 160.948 242.553 160.948C244.045 160.948 245.288 161.39 246.311 162.149V153.969H250.152V176.396ZM246.31 171.248V166.415C245.454 165.119 244.321 164.677 243.188 164.677C241.171 164.677 239.761 166.605 239.761 168.815C239.761 171.058 241.17 173.017 243.188 173.017C244.321 173.017 245.454 172.575 246.31 171.248Z" fill="#10069F"/>
<path d="M265.737 169.953H255.982C256.287 171.721 257.309 173.112 259.409 173.112C260.487 173.112 261.233 172.733 261.647 171.974H265.654C264.936 174.88 262.449 176.87 259.326 176.87C255.07 176.87 252.196 173.364 252.196 168.847C252.196 164.172 255.043 160.792 259.215 160.792C263.001 160.792 265.82 163.855 265.82 168.531C265.82 169.163 265.792 169.51 265.737 169.953ZM256.01 167.362H262.006C261.785 165.467 260.79 164.425 259.243 164.425C257.391 164.425 256.369 165.656 256.01 167.362Z" fill="#10069F"/>
</g>
<defs>
<clipPath id="clip0_1505_10947">
<rect width="177.917" height="48" fill="white" transform="translate(88.041 142.5)"/>
</clipPath>
</defs>
</svg>
