<svg width="333" height="333" viewBox="0 0 333 333" fill="none" xmlns="http://www.w3.org/2000/svg">
<rect width="332" height="332" transform="translate(0.5 0.5)" fill="white"/>
<g clip-path="url(#clip0_1505_10805)">
<path d="M117.573 145.579C105.975 145.579 96.5723 154.981 96.5723 166.579C96.5723 178.178 105.975 187.579 117.573 187.579C129.172 187.579 138.573 178.178 138.573 166.579C138.573 154.982 129.172 145.58 117.572 145.58L117.573 145.579V145.579ZM127.203 175.867C126.827 176.484 126.02 176.68 125.403 176.301C120.472 173.289 114.265 172.607 106.955 174.277C106.251 174.438 105.548 173.997 105.388 173.292C105.227 172.587 105.666 171.885 106.372 171.725C114.372 169.897 121.234 170.684 126.769 174.067C127.386 174.445 127.582 175.25 127.203 175.867V175.867ZM129.774 170.149C129.3 170.92 128.292 171.163 127.522 170.689C121.877 167.219 113.272 166.214 106.595 168.241C105.729 168.503 104.815 168.015 104.552 167.15C104.291 166.284 104.78 165.372 105.644 165.108C113.271 162.794 122.752 163.915 129.235 167.899C130.004 168.372 130.248 169.381 129.774 170.149V170.149ZM129.994 164.195C123.226 160.175 112.059 159.805 105.597 161.766C104.559 162.081 103.462 161.495 103.148 160.458C102.833 159.419 103.418 158.323 104.457 158.007C111.875 155.755 124.207 156.191 131.999 160.816C132.934 161.37 133.24 162.576 132.686 163.508C132.134 164.441 130.926 164.749 129.995 164.195H129.994ZM153.707 164.965C150.081 164.101 149.437 163.494 149.437 162.219C149.437 161.014 150.57 160.203 152.258 160.203C153.893 160.203 155.513 160.819 157.213 162.086C157.263 162.125 157.329 162.14 157.391 162.13C157.456 162.12 157.512 162.085 157.549 162.033L159.32 159.537C159.392 159.434 159.372 159.293 159.274 159.214C157.251 157.591 154.974 156.802 152.311 156.802C148.396 156.802 145.66 159.151 145.66 162.513C145.66 166.118 148.02 167.394 152.097 168.38C155.566 169.179 156.152 169.848 156.152 171.045C156.152 172.372 154.969 173.197 153.063 173.197C150.946 173.197 149.219 172.482 147.288 170.812C147.24 170.769 147.175 170.752 147.115 170.754C147.049 170.759 146.992 170.789 146.952 170.837L144.965 173.199C144.883 173.299 144.893 173.445 144.988 173.53C147.235 175.536 149.998 176.595 152.983 176.595C157.201 176.595 159.927 174.29 159.927 170.721C159.934 167.71 158.131 166.043 153.715 164.969L153.707 164.965V164.965ZM169.471 161.389C167.643 161.389 166.143 162.109 164.904 163.585V161.924C164.904 161.793 164.799 161.686 164.669 161.686H161.421C161.291 161.686 161.185 161.793 161.185 161.924V180.381C161.185 180.512 161.291 180.619 161.421 180.619H164.669C164.799 180.619 164.904 180.512 164.904 180.381V174.556C166.143 175.943 167.643 176.622 169.471 176.622C172.869 176.622 176.309 174.007 176.309 169.006C176.314 164.005 172.874 161.389 169.473 161.389L169.471 161.389ZM172.533 169.006C172.533 171.552 170.965 173.33 168.719 173.33C166.499 173.33 164.824 171.471 164.824 169.006C164.824 166.541 166.499 164.684 168.719 164.684C170.928 164.683 172.533 166.501 172.533 169.006V169.006ZM185.124 161.389C180.748 161.389 177.32 164.759 177.32 169.061C177.32 173.317 180.726 176.65 185.071 176.65C189.462 176.65 192.9 173.292 192.9 169.006C192.9 164.736 189.485 161.39 185.124 161.39V161.389V161.389ZM185.124 173.355C182.797 173.355 181.041 171.484 181.041 169.005C181.041 166.515 182.737 164.708 185.071 164.708C187.414 164.708 189.179 166.578 189.179 169.06C189.179 171.549 187.474 173.355 185.124 173.355V173.355ZM202.244 161.686H198.671V158.033C198.671 157.903 198.565 157.796 198.435 157.796H195.188C195.057 157.796 194.949 157.903 194.949 158.033V161.686H193.389C193.259 161.686 193.154 161.793 193.154 161.924V164.714C193.154 164.845 193.259 164.952 193.389 164.952H194.949V172.173C194.949 175.09 196.401 176.569 199.268 176.569C200.431 176.569 201.397 176.329 202.307 175.812C202.382 175.772 202.427 175.692 202.427 175.607V172.948C202.427 172.868 202.385 172.79 202.314 172.748C202.244 172.703 202.156 172.7 202.084 172.738C201.459 173.051 200.855 173.197 200.178 173.197C199.137 173.197 198.671 172.723 198.671 171.664V164.954H202.244C202.375 164.954 202.48 164.847 202.48 164.716V161.926C202.485 161.795 202.38 161.688 202.247 161.688L202.244 161.686V161.686ZM214.693 161.7V161.252C214.693 159.932 215.199 159.343 216.333 159.343C217.01 159.343 217.554 159.478 218.163 159.681C218.238 159.705 218.316 159.693 218.376 159.648C218.439 159.603 218.474 159.531 218.474 159.455V156.719C218.474 156.614 218.409 156.522 218.306 156.491C217.664 156.3 216.842 156.103 215.608 156.103C212.611 156.103 211.024 157.792 211.024 160.985V161.672H209.464C209.334 161.672 209.226 161.779 209.226 161.91V164.714C209.226 164.845 209.334 164.952 209.464 164.952H211.024V176.088C211.024 176.221 211.132 176.326 211.262 176.326H214.507C214.64 176.326 214.745 176.221 214.745 176.088V164.953H217.777L222.421 176.088C221.895 177.257 221.376 177.49 220.668 177.49C220.097 177.49 219.492 177.319 218.878 176.981C218.82 176.951 218.75 176.946 218.69 176.963C218.627 176.986 218.575 177.031 218.549 177.091L217.449 179.506C217.396 179.621 217.441 179.754 217.551 179.814C218.7 180.436 219.736 180.702 221.017 180.702C223.414 180.702 224.741 179.584 225.907 176.58L231.539 162.025C231.57 161.952 231.559 161.869 231.514 161.805C231.472 161.74 231.399 161.701 231.321 161.701H227.941C227.838 161.701 227.748 161.766 227.715 161.861L224.252 171.75L220.46 161.854C220.425 161.762 220.337 161.701 220.24 161.701H214.693V161.7V161.7ZM207.475 161.686H204.228C204.097 161.686 203.99 161.793 203.99 161.924V176.088C203.99 176.221 204.097 176.326 204.228 176.326H207.475C207.606 176.326 207.714 176.221 207.714 176.088V161.925C207.714 161.794 207.608 161.687 207.475 161.687V161.686ZM205.87 155.237C204.584 155.237 203.541 156.278 203.541 157.564C203.541 158.851 204.584 159.893 205.87 159.893C207.157 159.893 208.198 158.851 208.198 157.564C208.198 156.278 207.154 155.237 205.87 155.237ZM234.313 166.24C233.029 166.24 232.028 165.209 232.028 163.955C232.028 162.702 233.042 161.659 234.325 161.659C235.609 161.659 236.61 162.69 236.61 163.942C236.61 165.195 235.597 166.24 234.313 166.24ZM234.325 161.886C233.154 161.886 232.269 162.816 232.269 163.955C232.269 165.094 233.149 166.012 234.313 166.012C235.484 166.012 236.369 165.082 236.369 163.942C236.369 162.804 235.489 161.886 234.325 161.886V161.886ZM234.832 164.177L235.479 165.082H234.932L234.351 164.252H233.852V165.082H233.395V162.684H234.463C235.023 162.684 235.389 162.969 235.389 163.449C235.391 163.842 235.163 164.082 234.835 164.177H234.832ZM234.446 163.095H233.852V163.854H234.446C234.742 163.854 234.92 163.709 234.92 163.474C234.92 163.227 234.742 163.095 234.446 163.095V163.095Z" fill="#1ED760"/>
</g>
<defs>
<clipPath id="clip0_1505_10805">
<rect width="140" height="48" fill="white" transform="translate(96.5 142.5)"/>
</clipPath>
</defs>
</svg>
