<svg width="343" height="333" viewBox="0 0 343 333" fill="none" xmlns="http://www.w3.org/2000/svg">
<rect width="343" height="332" transform="translate(0 0.5)" fill="white"/>
<g clip-path="url(#clip0_1505_10993)">
<path d="M148.687 163.169H137.968L147.25 157.837L145.41 154.664L136.126 159.995L141.484 150.761L138.295 148.93L132.935 158.161V147.5H129.251V158.163L123.892 148.93L120.701 150.761L126.06 159.993L116.778 154.664L114.936 157.837L124.219 163.169H113.5V166.833H124.218L114.936 172.165L116.777 175.338L126.061 170.007L120.701 179.241L123.891 181.072L129.251 171.839V182.5H132.935V171.611L138.393 181.014L141.384 179.297L135.925 169.891L145.407 175.337L147.249 172.164L137.968 166.832H148.686V163.169H148.687V163.169ZM131.093 169.982C130.436 169.982 129.785 169.853 129.177 169.603C128.569 169.353 128.017 168.986 127.552 168.523C127.087 168.06 126.718 167.511 126.466 166.907C126.215 166.302 126.085 165.654 126.085 165C126.085 164.346 126.214 163.698 126.466 163.093C126.718 162.488 127.086 161.939 127.551 161.476C128.016 161.014 128.568 160.646 129.176 160.396C129.783 160.146 130.435 160.017 131.092 160.016C132.42 160.016 133.694 160.541 134.633 161.476C135.573 162.41 136.1 163.677 136.101 164.999C136.101 166.32 135.573 167.588 134.634 168.522C133.695 169.457 132.421 169.982 131.093 169.982V169.982Z" fill="#625DF5"/>
<path d="M158.184 177.802V152.198H162.906V177.802H158.184V177.802ZM203.481 160.402H207.99V162.526C208.949 160.828 211.188 159.908 213.105 159.908C215.485 159.908 217.402 160.934 218.289 162.807C219.673 160.684 221.521 159.908 223.83 159.908C227.061 159.908 230.149 161.853 230.149 166.52V177.802H225.57V167.476C225.57 165.601 224.646 164.186 222.479 164.186C220.454 164.186 219.246 165.743 219.246 167.618V177.803H214.561V167.476C214.561 165.601 213.602 164.186 211.47 164.186C209.41 164.186 208.202 165.708 208.202 167.618V177.803H203.481V160.402V160.402ZM173.58 178.306C168.259 178.306 164.406 174.378 164.406 169.102C164.406 163.911 168.247 159.89 173.58 159.89C178.938 159.89 182.753 163.948 182.753 169.102C182.753 174.341 178.898 178.306 173.58 178.306ZM173.58 164.149C172.26 164.151 170.995 164.673 170.062 165.602C169.129 166.531 168.605 167.79 168.604 169.103C168.605 170.417 169.129 171.676 170.062 172.605C170.995 173.534 172.26 174.056 173.58 174.058C174.899 174.056 176.164 173.533 177.097 172.604C178.029 171.676 178.554 170.416 178.555 169.103C178.554 167.79 178.029 166.531 177.097 165.603C176.164 164.674 174.899 164.151 173.58 164.149V164.149ZM192.84 178.306C187.52 178.306 183.667 174.378 183.667 169.102C183.667 163.911 187.508 159.89 192.84 159.89C198.199 159.89 202.014 163.948 202.014 169.102C202.014 174.341 198.156 178.306 192.84 178.306ZM192.84 164.089C191.505 164.091 190.226 164.62 189.282 165.56C188.339 166.499 187.808 167.773 187.807 169.101C187.808 170.429 188.339 171.703 189.282 172.643C190.226 173.582 191.505 174.111 192.84 174.113C194.175 174.111 195.455 173.582 196.398 172.643C197.342 171.703 197.873 170.429 197.874 169.101C197.873 167.773 197.342 166.499 196.398 165.56C195.455 164.62 194.175 164.091 192.84 164.089V164.089Z" fill="#212121"/>
</g>
<defs>
<clipPath id="clip0_1505_10993">
<rect width="117" height="48" fill="white" transform="translate(113.5 142.5)"/>
</clipPath>
</defs>
</svg>
