<svg width="332" height="333" viewBox="0 0 332 333" fill="none" xmlns="http://www.w3.org/2000/svg">
<rect width="332" height="332" transform="translate(0 0.5)" fill="white"/>
<g clip-path="url(#clip0_1505_11040)">
<path d="M129.551 156.513H137.173C142.032 156.513 146.046 159.325 146.046 165.744V167.093C146.046 173.561 142.292 176.47 137.319 176.47H129.551V156.513ZM133.809 160.137V172.83H137.075C139.838 172.83 141.691 171.026 141.691 167.012V165.955C141.691 161.941 139.741 160.137 136.929 160.137H133.809ZM148.305 160.332H151.718L152.271 164.086C152.921 161.535 154.579 160.17 157.585 160.17H158.642V164.477H156.886C153.425 164.477 152.58 165.679 152.58 169.092V176.519H148.37V160.332H148.305ZM159.487 168.751V168.296C159.487 162.884 162.948 159.926 167.661 159.926C172.472 159.926 175.836 162.884 175.836 168.296V168.751C175.836 174.065 172.57 176.925 167.661 176.925C162.445 176.877 159.487 174.081 159.487 168.751ZM171.529 168.702V168.296C171.529 165.289 170.018 163.485 167.613 163.485C165.256 163.485 163.696 165.143 163.696 168.296V168.702C163.696 171.611 165.207 173.269 167.613 173.269C170.018 173.22 171.529 171.611 171.529 168.702ZM178.046 160.332H181.557L181.963 163.388C182.808 161.34 184.612 159.926 187.278 159.926C191.389 159.926 194.103 162.884 194.103 168.361V168.816C194.103 174.13 191.097 176.942 187.278 176.942C184.726 176.942 182.971 175.788 182.109 173.935V182.11H177.998L178.046 160.332ZM189.829 168.702V168.344C189.829 165.127 188.171 163.534 185.961 163.534C183.605 163.534 182.044 165.338 182.044 168.344V168.653C182.044 171.514 183.556 173.318 185.912 173.318C188.334 173.269 189.829 171.725 189.829 168.702ZM200.328 173.529L199.97 176.487H196.362V154.92H200.474V163.193C201.384 161.08 203.188 159.926 205.74 159.926C209.608 159.975 212.468 162.64 212.468 168.003V168.507C212.468 173.87 209.754 176.942 205.642 176.942C202.928 176.877 201.173 175.625 200.328 173.529ZM208.145 168.507V168.101C208.145 165.143 206.536 163.485 204.277 163.485C201.969 163.485 200.36 165.338 200.36 168.149V168.507C200.36 171.514 201.921 173.269 204.228 173.269C206.699 173.269 208.145 171.725 208.145 168.507ZM214.272 168.751V168.296C214.272 162.884 217.734 159.926 222.447 159.926C227.257 159.926 230.621 162.884 230.621 168.296V168.751C230.621 174.065 227.306 176.925 222.447 176.925C217.23 176.877 214.272 174.081 214.272 168.751ZM226.347 168.702V168.296C226.347 165.289 224.836 163.485 222.43 163.485C220.074 163.485 218.514 165.143 218.514 168.296V168.702C218.514 171.611 220.025 173.269 222.43 173.269C224.852 173.22 226.347 171.611 226.347 168.702ZM236.131 168.101L230.459 160.332H235.318L238.585 165.192L241.9 160.332H246.711L240.958 168.052L247.02 176.487H242.258L238.552 171.124L234.944 176.487H229.971L236.131 168.101Z" fill="black"/>
<path d="M103.352 156.513L93.9261 162.526L103.352 168.54L93.9261 174.553L84.5 168.507L93.9261 162.494L84.5 156.513L93.9261 150.5L103.352 156.513ZM93.8773 176.487L103.303 170.474L112.73 176.487L103.303 182.5L93.8773 176.487ZM103.352 168.507L112.778 162.494L103.352 156.513L112.73 150.5L122.156 156.513L112.73 162.526L122.156 168.54L112.73 174.553L103.352 168.507Z" fill="#0061FF"/>
</g>
<defs>
<clipPath id="clip0_1505_11040">
<rect width="163" height="48" fill="white" transform="translate(84.5 142.5)"/>
</clipPath>
</defs>
</svg>
