<svg width="358" height="333" viewBox="0 0 358 333" fill="none" xmlns="http://www.w3.org/2000/svg">
<rect width="357" height="332" transform="translate(0.5 0.5)" fill="white"/>
<g clip-path="url(#clip0_1505_10799)">
<path d="M160.955 157.351C160.955 156.688 161.219 156.053 161.687 155.585C162.155 155.116 162.791 154.853 163.453 154.853C164.116 154.853 164.751 155.116 165.219 155.585C165.688 156.053 165.951 156.688 165.951 157.351C165.927 157.997 165.653 158.609 165.187 159.057C164.721 159.506 164.1 159.757 163.453 159.757C162.806 159.757 162.185 159.506 161.719 159.057C161.253 158.609 160.98 157.997 160.955 157.351Z" fill="#273B7D"/>
<path d="M119.965 172.925C117.815 172.925 116.319 171.217 116.319 168.775C116.319 166.334 117.815 164.628 119.967 164.628C122.129 164.628 123.64 166.334 123.64 168.775C123.64 171.255 122.162 172.925 119.965 172.925ZM119.965 160.981C115.415 160.981 112.112 164.259 112.112 168.775C112.112 173.292 115.417 176.568 119.965 176.568C124.534 176.568 127.849 173.292 127.849 168.776C127.849 164.259 124.534 160.981 119.967 160.981H119.965ZM156.118 169.166C155.96 168.86 155.76 168.577 155.524 168.326L155.384 168.181L155.531 168.042C155.739 167.821 155.953 167.56 156.158 167.258L160.176 161.288H155.299L152.281 165.959C152.111 166.209 151.767 166.334 151.25 166.334H150.563V157.505C150.563 155.74 149.462 155.5 148.274 155.5H146.239L146.244 176.339H150.565V170.088H150.97C151.462 170.088 151.796 170.145 151.951 170.413L154.334 174.911C155 176.132 155.663 176.339 156.912 176.339H160.221L157.755 172.262L156.12 169.166H156.118ZM177.091 160.946C174.893 160.946 173.491 161.923 172.705 162.75L172.444 163.014L172.35 162.654C172.12 161.769 171.341 161.283 170.17 161.283H168.234L168.247 176.334H172.538V169.397C172.538 168.719 172.625 168.131 172.805 167.594C173.282 165.967 174.614 164.957 176.279 164.957C177.618 164.957 178.142 165.665 178.142 167.491V174.046C178.142 175.605 178.863 176.334 180.424 176.334H182.466L182.459 166.76C182.459 162.958 180.603 160.948 177.091 160.948V160.946ZM163.505 161.288H161.472L161.486 172.926V176.339H163.655L163.731 176.342L164.744 176.339H165.749V176.334H165.756L165.765 163.576C165.765 162.036 165.029 161.29 163.507 161.29L163.505 161.288ZM136.817 172.925C134.667 172.925 133.17 171.217 133.17 168.775C133.17 166.334 134.668 164.628 136.819 164.628C138.976 164.628 140.492 166.334 140.492 168.775C140.492 171.255 139.014 172.925 136.819 172.925H136.817ZM136.817 160.981C132.264 160.981 128.959 164.259 128.959 168.775C128.959 173.292 132.264 176.568 136.819 176.568C141.381 176.568 144.703 173.292 144.703 168.776C144.703 164.259 141.381 160.981 136.819 160.981" fill="#273B7D"/>
<path d="M191.505 172.262C189.158 172.262 188.324 170.216 188.324 168.298C188.324 167.453 188.537 164.699 191.28 164.699C192.642 164.699 194.456 165.089 194.456 168.439C194.456 171.599 192.851 172.262 191.505 172.262ZM196.684 161.248C195.87 161.248 195.244 161.574 194.929 162.167L194.811 162.396L194.613 162.222C193.921 161.624 192.679 160.913 190.663 160.913C186.65 160.913 183.949 163.927 183.949 168.409C183.949 172.89 186.744 176.02 190.743 176.02C192.108 176.02 193.188 175.7 194.044 175.053L194.375 174.805V175.222C194.375 177.233 193.075 178.342 190.719 178.342C189.572 178.342 188.531 178.064 187.831 177.81C186.923 177.535 186.388 177.763 186.021 178.676L185.68 179.518L185.198 180.75L185.495 180.908C187.005 181.708 188.969 182.186 190.743 182.186C194.396 182.186 198.664 180.317 198.664 175.053L198.679 161.248H196.684Z" fill="#273B7D"/>
<path d="M103.988 172.752L100.495 172.749V168.574C100.495 167.68 100.841 167.218 101.605 167.11H103.988C105.687 167.11 106.786 168.181 106.788 169.915C106.786 171.696 105.715 172.751 103.988 172.751V172.752ZM100.495 160.389C100.495 159.427 100.902 158.97 101.794 158.911H103.583C105.115 158.911 106.033 159.827 106.033 161.363C106.033 162.532 105.404 163.897 103.638 163.897H100.495V160.389ZM108.447 165.656L107.816 165.301L108.367 164.83C109.009 164.278 110.082 163.038 110.082 160.899C110.082 157.622 107.543 155.507 103.61 155.507H98.6115C98.049 155.527 97.516 155.764 97.1229 156.166C96.7298 156.569 96.5068 157.108 96.5 157.671V176.264H103.699C108.07 176.264 110.891 173.885 110.891 170.199C110.891 168.214 109.98 166.519 108.447 165.656Z" fill="#273B7D"/>
<path d="M200.363 174.008C200.363 172.622 201.48 171.502 202.856 171.502C203.52 171.502 204.157 171.766 204.627 172.235C205.096 172.705 205.36 173.342 205.36 174.006C205.36 174.671 205.096 175.308 204.627 175.777C204.157 176.247 203.52 176.511 202.856 176.511C201.482 176.511 200.363 175.389 200.363 174.006" fill="#499FDD"/>
<path d="M228.784 172.924C226.634 172.924 225.135 171.216 225.135 168.774C225.135 166.334 226.634 164.628 228.784 164.628C230.944 164.628 232.459 166.334 232.459 168.774C232.459 171.255 230.98 172.924 228.784 172.924ZM228.784 160.98C224.23 160.98 220.927 164.259 220.927 168.774C220.927 173.291 224.23 176.568 228.784 176.568C233.348 176.568 236.668 173.291 236.668 168.776C236.668 164.259 233.346 160.98 228.784 160.98Z" fill="#499FDD"/>
<path d="M255.834 160.996C254.948 160.999 254.074 161.202 253.277 161.588C252.48 161.974 251.779 162.535 251.228 163.228L250.918 163.621L250.675 163.181C249.878 161.732 248.511 160.996 246.61 160.996C244.615 160.996 243.277 162.109 242.657 162.77L242.25 163.21L242.093 162.631C241.867 161.796 241.124 161.339 240.001 161.339H238.197L238.179 176.332H242.276V169.714C242.276 169.133 242.349 168.56 242.493 167.96C242.884 166.36 243.959 164.64 245.766 164.812C246.88 164.92 247.426 165.781 247.426 167.444V176.332H251.551V169.714C251.551 168.988 251.619 168.446 251.783 167.903C252.113 166.376 253.237 164.81 254.98 164.81C256.242 164.81 256.708 165.524 256.708 167.444V174.14C256.708 175.653 257.383 176.332 258.898 176.332H260.825L260.829 166.76C260.829 162.935 259.145 160.996 255.834 160.996ZM218.553 171.126C218.541 171.142 216.779 172.999 214.457 172.999C212.342 172.999 210.206 171.702 210.206 168.806C210.206 166.305 211.862 164.557 214.234 164.557C215.003 164.557 215.88 164.831 216.017 165.296L216.036 165.374C216.124 165.694 216.315 165.976 216.579 166.176C216.843 166.376 217.166 166.484 217.497 166.482L219.741 166.485V164.523C219.741 161.935 216.448 160.996 214.234 160.996C209.496 160.996 206.06 164.294 206.06 168.837C206.06 173.377 209.458 176.671 214.147 176.671C218.214 176.671 220.426 173.998 220.447 173.971L220.565 173.825L218.788 170.877L218.553 171.126Z" fill="#499FDD"/>
</g>
<defs>
<clipPath id="clip0_1505_10799">
<rect width="165" height="48" fill="white" transform="translate(96.5 142.5)"/>
</clipPath>
</defs>
</svg>
