<svg width="332" height="333" viewBox="0 0 332 333" fill="none" xmlns="http://www.w3.org/2000/svg">
<rect width="332" height="332" transform="translate(0 0.5)" fill="white"/>
<g clip-path="url(#clip0_1505_10953)">
<path d="M196.934 156.552H194.262V176.558H205.102V174.073H196.934V156.552ZM215.421 173.049C214.748 173.746 213.618 174.444 212.097 174.444C210.055 174.444 209.23 173.441 209.23 172.112C209.23 170.129 210.598 169.17 213.531 169.17C214.074 169.17 214.965 169.235 215.421 169.322V173.049ZM212.662 160.932C210.49 160.932 208.513 161.695 206.97 162.98L207.926 164.637C209.012 164.005 210.359 163.351 212.293 163.351C214.487 163.351 215.465 164.484 215.465 166.38V167.361C215.03 167.274 214.161 167.208 213.596 167.208C208.904 167.208 206.536 168.865 206.536 172.308C206.536 175.402 208.426 176.95 211.294 176.95C213.227 176.95 215.074 176.056 215.704 174.618L216.182 176.579H218.072V166.337C218.05 163.089 216.638 160.932 212.662 160.932ZM226.696 174.553C225.697 174.553 224.806 174.422 224.133 174.117V164.876C225.045 164.114 226.175 163.569 227.609 163.569C230.194 163.569 231.193 165.4 231.193 168.363C231.215 172.569 229.586 174.553 226.696 174.553ZM227.826 160.932C225.436 160.932 224.133 162.566 224.133 162.566V159.973V156.552H221.504V176.078C222.808 176.623 224.611 176.928 226.566 176.928C231.562 176.928 233.974 173.724 233.974 168.189C233.974 163.83 231.758 160.932 227.826 160.932ZM167.779 158.731C170.147 158.731 171.69 159.515 172.689 160.322L173.841 158.317C172.276 156.944 170.147 156.203 167.91 156.203C162.218 156.203 158.221 159.69 158.221 166.707C158.221 174.073 162.522 176.95 167.454 176.95C169.93 176.95 172.016 176.361 173.384 175.795L173.319 167.928V165.421H165.998V167.906H170.669L170.734 173.877C170.126 174.182 169.061 174.422 167.627 174.422C163.674 174.422 161.023 171.916 161.023 166.664C161.023 161.324 163.76 158.731 167.779 158.731ZM186.636 156.552H184.008V159.908V171.523C184.008 174.77 185.42 176.928 189.395 176.928C189.938 176.928 190.482 176.884 191.003 176.775V174.422C190.634 174.487 190.221 174.509 189.786 174.509C187.592 174.509 186.615 173.376 186.615 171.48V163.482H191.003V161.302H186.615L186.636 156.552ZM177.36 176.558H179.989V161.302H177.36V176.558ZM177.36 159.189H179.989V156.552H177.36V159.189Z" fill="#888F9B"/>
<path d="M122.31 188.5L131.087 161.433H113.533L122.31 188.5Z" fill="#D74B3A"/>
<path d="M122.31 188.5L113.533 161.433H101.259L122.31 188.5Z" fill="#F36F3C"/>
<path d="M101.26 161.433L98.5876 169.649C98.3486 170.39 98.6093 171.218 99.2393 171.676L122.289 188.478L101.26 161.433Z" fill="#F3993F"/>
<path d="M101.259 161.433H113.555L108.254 145.132C107.993 144.282 106.799 144.282 106.538 145.132L101.259 161.433Z" fill="#D74B3A"/>
<path d="M122.31 188.5L131.086 161.433H143.382L122.31 188.5Z" fill="#F36F3C"/>
<path d="M143.361 161.433L146.033 169.649C146.272 170.39 146.012 171.218 145.382 171.676L122.332 188.478L143.361 161.433Z" fill="#F3993F"/>
<path d="M143.361 161.433H131.065L136.344 145.132C136.627 144.304 137.8 144.304 138.061 145.132L143.361 161.433Z" fill="#D74B3A"/>
</g>
<defs>
<clipPath id="clip0_1505_10953">
<rect width="136" height="48" fill="white" transform="translate(98.5 142.5)"/>
</clipPath>
</defs>
</svg>
