<svg width="343" height="333" viewBox="0 0 343 333" fill="none" xmlns="http://www.w3.org/2000/svg">
<rect width="343" height="332" transform="translate(0 0.5)" fill="white"/>
<g clip-path="url(#clip0_1505_10950)">
<path fill-rule="evenodd" clip-rule="evenodd" d="M184.435 180.307C178.071 184.997 168.848 187.5 160.906 187.5C149.771 187.5 139.747 183.381 132.163 176.532C131.567 175.993 132.101 175.259 132.816 175.678C141.001 180.44 151.12 183.305 161.574 183.305C168.624 183.305 176.379 181.847 183.51 178.82C184.587 178.362 185.488 179.525 184.435 180.307Z" fill="#FF9900"/>
<path fill-rule="evenodd" clip-rule="evenodd" d="M187.081 177.28C186.27 176.241 181.704 176.789 179.654 177.032C179.03 177.108 178.934 176.565 179.497 176.174C183.134 173.614 189.102 174.353 189.798 175.211C190.493 176.074 189.616 182.056 186.199 184.912C185.674 185.35 185.174 185.117 185.407 184.535C186.175 182.619 187.896 178.324 187.081 177.28Z" fill="#FF9900"/>
<path fill-rule="evenodd" clip-rule="evenodd" d="M179.797 158.104V155.615C179.797 155.239 180.083 154.986 180.427 154.986H191.566C191.924 154.986 192.21 155.244 192.21 155.615V157.746C192.205 158.104 191.905 158.571 191.371 159.31L185.598 167.551C187.743 167.499 190.008 167.818 191.952 168.915C192.391 169.162 192.51 169.525 192.543 169.882V172.537C192.543 172.9 192.143 173.324 191.724 173.104C188.296 171.307 183.744 171.112 179.955 173.124C179.568 173.333 179.163 172.914 179.163 172.552V170.03C179.163 169.625 179.168 168.934 179.573 168.319L186.261 158.728H180.441C180.083 158.728 179.797 158.475 179.797 158.104Z" fill="black"/>
<path fill-rule="evenodd" clip-rule="evenodd" d="M139.161 173.629H135.772C135.448 173.605 135.19 173.362 135.167 173.052V155.658C135.167 155.31 135.457 155.034 135.82 155.034H138.98C139.309 155.048 139.571 155.301 139.595 155.615V157.889H139.657C140.481 155.692 142.031 154.667 144.118 154.667C146.24 154.667 147.565 155.692 148.518 157.889C149.338 155.692 151.202 154.667 153.199 154.667C154.619 154.667 156.173 155.253 157.122 156.569C158.195 158.032 157.975 160.158 157.975 162.022L157.97 173C157.97 173.348 157.68 173.629 157.317 173.629H153.933C153.595 173.605 153.323 173.333 153.323 173V163.781C153.323 163.047 153.39 161.216 153.228 160.52C152.975 159.353 152.217 159.024 151.235 159.024C150.415 159.024 149.557 159.572 149.209 160.449C148.861 161.326 148.895 162.794 148.895 163.781V173C148.895 173.348 148.604 173.629 148.242 173.629H144.857C144.514 173.605 144.247 173.333 144.247 173L144.242 163.781C144.242 161.841 144.562 158.986 142.155 158.986C139.719 158.986 139.814 161.769 139.814 163.781V173C139.814 173.348 139.523 173.629 139.161 173.629Z" fill="black"/>
<path fill-rule="evenodd" clip-rule="evenodd" d="M201.8 154.667C206.829 154.667 209.551 158.986 209.551 164.477C209.551 169.782 206.543 173.991 201.8 173.991C196.862 173.991 194.174 169.672 194.174 164.291C194.174 158.876 196.895 154.667 201.8 154.667ZM201.829 158.218C199.331 158.218 199.174 161.622 199.174 163.743C199.174 165.869 199.141 170.407 201.8 170.407C204.427 170.407 204.551 166.746 204.551 164.515C204.551 163.047 204.489 161.293 204.045 159.901C203.664 158.69 202.906 158.218 201.829 158.218Z" fill="black"/>
<path fill-rule="evenodd" clip-rule="evenodd" d="M216.072 173.629H212.697C212.359 173.605 212.087 173.333 212.087 173L212.082 155.601C212.111 155.282 212.392 155.034 212.735 155.034H215.877C216.172 155.048 216.415 155.248 216.482 155.52V158.18H216.544C217.492 155.801 218.822 154.667 221.163 154.667C222.683 154.667 224.166 155.215 225.119 156.717C226.006 158.108 226.006 160.449 226.006 162.132V173.081C225.968 173.386 225.686 173.629 225.353 173.629H221.954C221.644 173.605 221.387 173.376 221.354 173.081V163.633C221.354 161.731 221.573 158.947 219.232 158.947C218.408 158.947 217.65 159.5 217.273 160.339C216.797 161.402 216.735 162.46 216.735 163.633V173C216.73 173.348 216.434 173.629 216.072 173.629Z" fill="black"/>
<path fill-rule="evenodd" clip-rule="evenodd" d="M170.917 165.32C170.917 166.641 170.95 167.742 170.283 168.915C169.744 169.868 168.886 170.454 167.938 170.454C166.636 170.454 165.874 169.463 165.874 167.999C165.874 165.111 168.462 164.586 170.917 164.586V165.32ZM174.335 173.581C174.111 173.781 173.786 173.796 173.534 173.662C172.409 172.728 172.204 172.294 171.589 171.403C169.73 173.3 168.41 173.867 166.002 173.867C163.147 173.867 160.931 172.108 160.931 168.586C160.931 165.835 162.418 163.962 164.544 163.047C166.384 162.236 168.953 162.093 170.917 161.869V161.431C170.917 160.625 170.979 159.672 170.502 158.976C170.092 158.352 169.301 158.094 168.6 158.094C167.309 158.094 166.16 158.757 165.879 160.129C165.821 160.435 165.597 160.735 165.287 160.749L162.003 160.396C161.727 160.334 161.417 160.11 161.498 159.686C162.251 155.701 165.855 154.5 169.077 154.5C170.726 154.5 172.881 154.939 174.182 156.187C175.831 157.727 175.674 159.782 175.674 162.017V167.299C175.674 168.886 176.332 169.582 176.952 170.44C177.166 170.745 177.214 171.112 176.937 171.341C176.246 171.918 175.016 172.99 174.339 173.591L174.335 173.581Z" fill="black"/>
<path fill-rule="evenodd" clip-rule="evenodd" d="M126.486 165.32C126.486 166.641 126.52 167.742 125.852 168.915C125.314 169.868 124.46 170.454 123.507 170.454C122.206 170.454 121.448 169.463 121.448 167.999C121.448 165.111 124.036 164.586 126.486 164.586V165.32ZM129.904 173.581C129.68 173.781 129.356 173.796 129.103 173.662C127.978 172.728 127.778 172.294 127.158 171.403C125.299 173.3 123.984 173.867 121.572 173.867C118.721 173.867 116.5 172.108 116.5 168.586C116.5 165.835 117.992 163.962 120.113 163.047C121.953 162.236 124.522 162.093 126.486 161.869V161.431C126.486 160.625 126.548 159.672 126.076 158.976C125.662 158.352 124.87 158.094 124.174 158.094C122.883 158.094 121.729 158.757 121.448 160.129C121.391 160.435 121.167 160.735 120.862 160.749L117.573 160.396C117.296 160.334 116.991 160.11 117.067 159.686C117.825 155.701 121.424 154.5 124.646 154.5C126.296 154.5 128.45 154.939 129.751 156.187C131.401 157.727 131.243 159.782 131.243 162.017V167.299C131.243 168.886 131.901 169.582 132.521 170.44C132.74 170.745 132.788 171.112 132.511 171.341C131.82 171.918 130.59 172.99 129.914 173.591L129.904 173.581Z" fill="black"/>
</g>
<defs>
<clipPath id="clip0_1505_10950">
<rect width="110" height="48" fill="white" transform="translate(116.5 142.5)"/>
</clipPath>
</defs>
</svg>
