<svg width="354" height="333" viewBox="0 0 354 333" fill="none" xmlns="http://www.w3.org/2000/svg">
<rect width="354" height="332" transform="translate(0 0.5)" fill="white"/>
<g clip-path="url(#clip0_1505_10990)">
<path d="M167.721 160.836H172.39L165.755 177.547H161.577L154.819 160.836H159.611L163.666 172.018L167.721 160.836V160.836ZM173.865 177.424H178.411V160.836H173.865V177.424ZM180.5 172.018H185.046C185.169 173.124 185.906 174.229 187.872 174.229C189.593 174.229 190.453 173.615 190.453 172.755C190.453 169.929 181.237 172.632 181.237 165.997C181.237 162.925 183.818 160.468 187.872 160.468C192.91 160.468 194.63 163.662 194.753 166.12H190.453C190.33 165.014 189.593 164.154 187.995 164.154C186.521 164.154 185.661 164.891 185.661 165.751C185.661 168.577 194.876 165.751 194.876 172.632C194.876 175.581 192.296 177.916 187.872 177.916C182.589 177.793 180.746 175.212 180.5 172.018V172.018ZM197.088 177.424H201.634V160.836H197.088V177.424ZM212.324 173.861C214.659 173.861 216.502 172.141 216.502 169.069C216.502 166.12 214.659 164.277 212.324 164.277C209.99 164.277 208.147 165.997 208.147 169.069C208.147 172.141 209.99 173.861 212.324 173.861ZM203.6 169.069C203.6 164.277 207.041 160.345 212.324 160.345C217.608 160.345 221.048 164.277 221.048 169.069C221.048 173.861 217.608 177.793 212.324 177.793C207.041 177.793 203.6 173.861 203.6 169.069ZM227.315 162.802C228.052 161.328 229.772 160.345 232.23 160.345C236.285 160.345 238.374 163.048 238.374 166.98V177.424H233.827V167.471C233.827 165.505 232.967 164.154 231.001 164.154C228.789 164.154 227.561 165.505 227.561 167.84V177.424H223.014V160.836H227.315V162.802Z" fill="#FF3366"/>
<path d="M115.5 187.5H157.4V145.6H115.5V187.5Z" fill="#FF3366"/>
<path d="M130.245 158.748C131.597 158.748 132.703 157.765 132.703 156.29C132.703 154.939 131.597 153.833 130.245 153.833C128.894 153.833 127.788 154.816 127.788 156.29C127.788 157.765 128.894 158.748 130.245 158.748ZM125.085 171.772C124.962 172.387 124.839 173.001 124.839 173.615C124.839 175.704 125.945 177.179 128.402 177.179C130.491 177.179 132.088 175.95 133.317 173.984L132.58 176.933H136.635L138.969 167.718C139.584 165.383 140.69 164.154 142.41 164.154C143.761 164.154 144.622 165.014 144.622 166.366C144.622 166.735 144.622 167.226 144.499 167.718L143.27 172.018C143.147 172.632 143.024 173.247 143.024 173.861C143.024 175.827 144.253 177.302 146.71 177.302C148.799 177.302 150.519 175.95 151.502 172.632L149.905 172.018C149.168 174.23 148.431 174.598 147.939 174.598C147.448 174.598 147.079 174.23 147.079 173.493C147.079 173.124 147.202 172.755 147.202 172.387L148.308 168.209C148.553 167.226 148.676 166.366 148.676 165.629C148.676 162.557 146.833 160.959 144.499 160.959C142.41 160.959 140.198 162.925 139.092 164.891L139.829 161.328H133.686L132.826 164.523H135.652L133.931 171.281C132.58 174.353 130 174.476 129.631 174.353C129.139 174.23 128.771 173.984 128.771 173.37C128.771 173.001 128.894 172.387 129.017 171.772L131.72 161.082H124.962L124.102 164.277H126.928L125.085 171.772V171.772Z" fill="white"/>
</g>
<defs>
<clipPath id="clip0_1505_10990">
<rect width="123" height="48" fill="white" transform="translate(115.5 142.5)"/>
</clipPath>
</defs>
</svg>
