<svg width="344" height="333" viewBox="0 0 344 333" fill="none" xmlns="http://www.w3.org/2000/svg">
<rect width="343" height="332" transform="translate(0.5 0.5)" fill="white"/>
<path d="M150.383 176.68V168.831H143.479V176.68H139.965V158.068H143.479V165.724H150.383V158.068H153.898V176.68H150.383ZM166.784 176.68H163.993L163.74 175.759C162.533 176.543 161.126 176.961 159.687 176.961C157.198 176.961 156.137 175.256 156.137 172.908C156.137 170.142 157.339 169.08 160.105 169.08H163.374V167.653C163.374 166.145 162.956 165.615 160.776 165.615C159.509 165.623 158.246 165.759 157.005 166.019L156.587 163.421C158.107 163.001 159.677 162.784 161.255 162.778C165.529 162.778 166.787 164.286 166.787 167.699L166.784 176.68ZM163.374 171.537H160.861C159.743 171.537 159.437 171.843 159.437 172.88C159.437 173.829 159.743 174.251 160.808 174.251C161.71 174.237 162.594 173.994 163.378 173.548L163.374 171.537ZM173.381 176.957C171.785 176.931 170.203 176.667 168.685 176.174L169.16 173.576C170.478 173.953 171.842 174.151 173.212 174.163C174.72 174.163 174.945 173.812 174.945 172.792C174.945 171.956 174.777 171.534 172.569 171.003C169.244 170.191 168.854 169.355 168.854 166.729C168.854 163.991 170.056 162.789 173.94 162.789C175.314 162.79 176.683 162.949 178.021 163.263L177.669 165.973C176.434 165.745 175.182 165.615 173.926 165.583C172.446 165.583 172.193 165.935 172.193 166.757C172.193 167.847 172.277 167.931 174.123 168.406C177.933 169.414 178.298 169.917 178.298 172.697C178.298 175.337 177.487 176.957 173.381 176.957ZM188.443 176.68V167.189C188.443 166.462 188.137 166.1 187.353 166.1C186.516 166.1 185.033 166.602 183.803 167.246V176.68H180.393V157.509L183.803 157.035V164.103C185.346 163.311 187.044 162.863 188.777 162.789C191.04 162.789 191.849 164.381 191.849 166.813V176.68H188.443ZM194.365 161.144V157.203H197.775V161.144H194.365ZM194.365 176.68V163.07H197.775V176.68H194.365ZM200.151 163.182C200.151 159.773 202.133 157.79 206.773 157.79C208.478 157.79 210.176 157.997 211.831 158.406L211.444 161.45C209.937 161.164 208.409 161.005 206.875 160.975C204.443 160.975 203.662 161.815 203.662 163.787V170.94C203.662 172.922 204.446 173.752 206.875 173.752C208.409 173.722 209.937 173.563 211.444 173.277L211.835 176.325C210.18 176.734 208.481 176.94 206.777 176.94C202.137 176.94 200.154 174.957 200.154 171.548L200.151 163.182ZM218.826 176.957C214.158 176.957 212.903 174.388 212.903 171.594V168.156C212.903 165.362 214.161 162.792 218.826 162.792C223.49 162.792 224.748 165.362 224.748 168.156V171.594C224.738 174.388 223.483 176.957 218.826 176.957ZM218.826 165.71C217.009 165.71 216.313 166.522 216.313 168.058V171.706C216.313 173.242 217.016 174.054 218.826 174.054C220.636 174.054 221.339 173.242 221.339 171.706V168.044C221.332 166.508 220.632 165.696 218.826 165.696V165.71ZM233.792 165.921C232.541 166.487 231.335 167.151 230.186 167.903V176.69H226.777V163.07H229.655L229.88 164.578C230.989 163.827 232.192 163.225 233.458 162.789L233.792 165.921ZM246.72 172.153C246.72 175.172 245.378 176.957 242.221 176.957C241 176.944 239.783 176.813 238.587 176.564V182.188L235.177 182.662V163.07H237.887L238.239 164.216C239.481 163.288 240.991 162.789 242.541 162.792C245.279 162.792 246.731 164.413 246.731 167.516L246.72 172.153ZM238.59 173.689C239.582 173.906 240.594 174.025 241.61 174.04C242.84 174.04 243.314 173.453 243.314 172.223V167.425C243.314 166.307 242.896 165.692 241.638 165.692C240.509 165.733 239.43 166.168 238.59 166.922V173.689Z" fill="black"/>
<path d="M112.642 146.5L96.5 155.813V178.176L102.565 181.677V159.314L112.642 153.494" fill="black"/>
<path d="M119.083 146.5V164.31H112.642V157.663L106.577 161.164V183.983L112.642 187.493V169.733H119.083V176.334L125.148 172.837V150.001" fill="black"/>
<path d="M119.083 187.5L135.225 178.187V155.824L129.16 152.323V174.686L119.083 180.506" fill="black"/>
</svg>
