<svg width="332" height="333" viewBox="0 0 332 333" fill="none" xmlns="http://www.w3.org/2000/svg">
<rect width="332" height="332" transform="translate(0 0.5)" fill="white"/>
<g clip-path="url(#clip0_1505_10983)">
<path d="M128.205 149.5H106.258C103.216 149.5 100.75 151.966 100.75 155.008V176.955C100.75 179.998 103.216 182.464 106.258 182.464H128.205C131.248 182.464 133.714 179.998 133.714 176.955V155.008C133.714 151.966 131.248 149.5 128.205 149.5ZM127.721 174.731C127.721 175.693 126.943 176.471 125.981 176.471H108.482C107.521 176.471 106.742 175.693 106.742 174.731V157.232C106.742 156.271 107.521 155.492 108.482 155.492H125.981C126.943 155.492 127.721 156.271 127.721 157.232V174.731ZM113.735 170.456C113.182 170.456 112.738 170.009 112.738 169.455V162.469C112.738 161.915 113.182 161.464 113.735 161.464H120.732C121.282 161.464 121.729 161.912 121.729 162.469V169.452C121.729 170.005 121.282 170.453 120.732 170.453H113.735V170.456ZM142.453 169.979H146.053C146.231 172.017 147.614 173.608 150.401 173.608C152.89 173.608 154.421 172.378 154.421 170.519C154.421 168.779 153.221 168 151.06 167.49L148.27 166.89C145.241 166.23 142.96 164.282 142.96 161.1C142.96 157.59 146.079 155.191 150.129 155.191C154.418 155.191 157.178 157.441 157.417 160.768H153.937C153.523 159.211 152.23 158.283 150.132 158.283C147.912 158.283 146.384 159.483 146.384 161.014C146.384 162.545 147.703 163.473 149.983 163.983L152.744 164.583C155.773 165.243 157.841 167.072 157.841 170.28C157.841 174.36 154.782 176.79 150.404 176.79C145.482 176.786 142.755 174.118 142.453 169.979ZM170.717 182.464V176.495L170.952 173.876H170.717C169.892 175.759 168.159 176.79 165.805 176.79C162.011 176.79 159.187 173.701 159.187 168.965C159.187 164.229 162.011 161.14 165.805 161.14C168.129 161.14 169.776 162.227 170.717 163.934H170.952V161.431H174.071V182.464H170.717ZM170.833 168.961C170.833 165.932 168.98 164.166 166.714 164.166C164.447 164.166 162.594 165.932 162.594 168.961C162.594 171.991 164.447 173.757 166.714 173.757C168.98 173.757 170.833 171.994 170.833 168.961ZM176.56 170.522V161.431H179.914V170.227C179.914 172.61 181.061 173.757 182.973 173.757C185.326 173.757 186.858 172.08 186.858 169.462V161.431H190.212V176.491H187.093V173.373H186.858C186.122 175.374 184.504 176.786 182.006 176.786C178.413 176.786 176.56 174.493 176.56 170.522ZM192.253 172.285C192.253 169.462 194.225 167.815 197.725 167.609L201.871 167.344V166.167C201.871 164.755 200.84 163.904 199.018 163.904C197.341 163.904 196.34 164.755 196.074 165.962H192.72C193.075 162.903 195.604 161.136 199.014 161.136C202.869 161.136 205.222 162.784 205.222 165.962V176.491H202.103V173.697H201.868C201.162 175.55 199.69 176.786 196.867 176.786C194.165 176.786 192.253 174.963 192.253 172.285ZM201.874 170.433V169.637L198.491 169.873C196.668 169.989 195.843 170.668 195.843 172.02C195.843 173.167 196.784 173.992 198.106 173.992C200.492 173.992 201.874 172.464 201.874 170.433ZM207.724 176.495V161.431H210.843V164.315H211.078C211.519 162.343 213.02 161.431 215.254 161.431H216.785V164.461H214.873C212.695 164.461 211.078 165.872 211.078 168.55V176.491H207.724V176.495ZM232.13 169.581H220.686C220.862 172.345 222.804 173.906 224.952 173.906C226.774 173.906 227.921 173.17 228.571 171.934H231.895C230.984 174.993 228.306 176.786 224.922 176.786C220.481 176.786 217.362 173.462 217.362 168.961C217.362 164.461 220.567 161.136 224.952 161.136C229.363 161.136 232.246 164.166 232.246 167.931C232.25 168.67 232.19 169.051 232.13 169.581ZM228.925 167.258C228.809 165.17 227.073 163.758 224.955 163.758C222.953 163.758 221.279 165.024 220.865 167.258H228.925Z" fill="#1A1A1A"/>
</g>
<defs>
<clipPath id="clip0_1505_10983">
<rect width="132" height="48" fill="white" transform="translate(100.5 142.5)"/>
</clipPath>
</defs>
</svg>
