<svg width="354" height="333" viewBox="0 0 354 333" fill="none" xmlns="http://www.w3.org/2000/svg">
<rect width="354" height="332" transform="translate(0 0.5)" fill="white"/>
<path d="M149.648 182.5H75.7488C75.1757 182.5 74.8463 181.914 75.2298 181.486C76.4591 180.113 78.7131 178.535 80.3056 178.535C82.8232 178.535 83.1828 180.337 85.3407 180.337C88.9372 180.337 92.8933 168.081 99.0074 168.081C105.121 168.081 105.121 175.291 111.955 175.291C118.788 175.291 121.665 151.5 131.376 151.5C139.894 151.5 148.412 169.294 151.12 180.668C151.345 181.616 150.616 182.5 149.648 182.5Z" fill="#553C9A"/>
<path d="M161.07 176.354H163.824V170.158C163.824 167.463 165.225 166.027 167.053 166.027C168.654 166.027 169.656 167.236 169.656 169.226V176.354H172.409V168.773C172.409 165.574 170.532 163.509 167.628 163.509C166.001 163.509 164.575 164.214 163.824 165.473V157.464H161.07V176.354Z" fill="#131520"/>
<path d="M178.885 159.151C178.885 158.144 178.085 157.312 177.058 157.312C176.057 157.312 175.206 158.144 175.206 159.151C175.206 160.184 176.057 161.015 177.058 161.015C178.085 161.015 178.885 160.184 178.885 159.151ZM175.682 176.354H178.435V163.761H175.682V176.354Z" fill="#131520"/>
<path d="M181.884 176.354H184.638V170.158C184.638 167.513 185.864 166.027 187.641 166.027C189.143 166.027 189.869 167.312 189.869 169.277V176.354H192.622V170.158C192.622 167.513 193.824 166.027 195.601 166.027C197.103 166.027 197.829 167.312 197.829 169.277V176.354H200.582V168.823C200.582 165.599 198.905 163.509 196.076 163.509C194.424 163.509 192.823 164.39 192.072 166.002C191.396 164.441 190.044 163.509 188.192 163.509C186.59 163.509 185.339 164.289 184.638 165.473V163.761H181.884V176.354Z" fill="#131520"/>
<path d="M202.952 170.057C202.952 173.659 205.555 176.606 208.984 176.606C210.786 176.606 212.288 175.674 212.989 174.667V176.354H215.742V163.761H212.989V165.448C212.288 164.441 210.786 163.509 208.984 163.509C205.555 163.509 202.952 166.456 202.952 170.057ZM213.214 170.057C213.214 172.324 211.713 174.087 209.485 174.087C207.257 174.087 205.755 172.324 205.755 170.057C205.755 167.791 207.257 166.027 209.485 166.027C211.713 166.027 213.214 167.791 213.214 170.057Z" fill="#131520"/>
<path d="M219.222 176.354H221.976V157.464H219.222V176.354Z" fill="#131520"/>
<path d="M224.524 170.057C224.524 173.659 227.127 176.606 230.556 176.606C232.358 176.606 233.86 175.674 234.561 174.667V176.354H237.314V163.761H234.561V165.448C233.86 164.441 232.358 163.509 230.556 163.509C227.127 163.509 224.524 166.456 224.524 170.057ZM234.786 170.057C234.786 172.324 233.284 174.087 231.057 174.087C228.829 174.087 227.327 172.324 227.327 170.057C227.327 167.791 228.829 166.027 231.057 166.027C233.284 166.027 234.786 167.791 234.786 170.057Z" fill="#131520"/>
<path d="M244.799 181.618L252.833 163.761H249.78L245.95 172.677L242.096 163.761H239.067L244.448 175.674L241.77 181.618H244.799Z" fill="#131520"/>
<path d="M253.307 170.057C253.307 173.659 255.91 176.606 259.339 176.606C261.141 176.606 262.643 175.674 263.344 174.667V176.354H266.097V163.761H263.344V165.448C262.643 164.441 261.141 163.509 259.339 163.509C255.91 163.509 253.307 166.456 253.307 170.057ZM263.569 170.057C263.569 172.324 262.067 174.087 259.839 174.087C257.612 174.087 256.11 172.324 256.11 170.057C256.11 167.791 257.612 166.027 259.839 166.027C262.067 166.027 263.569 167.791 263.569 170.057Z" fill="#131520"/>
<path d="M278.888 172.878C278.888 170.964 277.812 169.654 275.559 169.075L273.456 168.521C272.405 168.244 271.779 167.816 271.779 167.01C271.779 166.204 272.555 165.725 273.607 165.725C274.583 165.725 275.409 166.229 275.659 167.287H278.412C278.212 165.02 276.335 163.509 273.632 163.509C270.828 163.509 268.976 164.919 268.976 167.035C268.976 168.874 270.027 170.284 272.18 170.838L274.232 171.392C275.534 171.72 276.084 172.198 276.084 173.055C276.084 173.911 275.258 174.39 274.057 174.39C272.831 174.39 271.704 173.886 271.479 172.526H268.626C268.776 175.045 271.053 176.606 273.982 176.606C276.785 176.606 278.888 175.322 278.888 172.878Z" fill="#131520"/>
</svg>
