<svg width="343" height="333" viewBox="0 0 343 333" fill="none" xmlns="http://www.w3.org/2000/svg">
<rect width="343" height="332" transform="translate(0 0.5)" fill="white"/>
<g clip-path="url(#clip0_1505_11037)">
<path d="M131.764 180.566C130.094 180.86 128.395 180.947 126.637 181.182L121.275 165.479V181.856C119.605 182.031 118.082 182.266 116.5 182.5V152.5H120.953L127.047 169.522V152.5H131.764V180.566ZM140.992 163.486C142.809 163.486 145.592 163.398 147.262 163.398V168.086C145.182 168.086 142.75 168.086 140.992 168.174V175.147C143.746 174.971 146.5 174.736 149.283 174.648V179.16L136.305 180.185V152.5H149.283V157.188H140.992V163.486V163.486ZM166.715 157.188H161.852V178.75C160.27 178.75 158.687 178.75 157.164 178.809V157.188H152.301V152.5H166.715L166.715 157.188V157.188ZM174.332 163.164H180.748V167.852H174.332V178.486H169.732V152.5H182.828V157.188H174.332V163.164V163.164ZM190.445 174.385C193.111 174.443 195.806 174.649 198.414 174.795V179.424C194.225 179.16 190.035 178.897 185.758 178.809V152.5H190.445V174.385ZM202.369 179.746C203.863 179.834 205.445 179.922 206.969 180.098V152.5H202.369V179.746V179.746ZM227.506 152.5L221.559 166.768L227.506 182.5C225.748 182.266 223.99 181.943 222.232 181.65L218.863 172.979L215.436 180.947C213.736 180.654 212.096 180.566 210.397 180.332L216.432 166.592L210.983 152.5H216.021L219.098 160.381L222.379 152.5H227.506V152.5Z" fill="#D81F26"/>
</g>
<defs>
<clipPath id="clip0_1505_11037">
<rect width="111" height="48" fill="white" transform="translate(116.5 142.5)"/>
</clipPath>
</defs>
</svg>
