<svg width="354" height="333" viewBox="0 0 354 333" fill="none" xmlns="http://www.w3.org/2000/svg">
<rect width="354" height="332" transform="translate(0 0.5)" fill="white"/>
<g clip-path="url(#clip0_1505_11034)">
<path d="M138.101 163.702V173.314H140.498C141.11 173.305 141.713 173.174 142.273 172.927C142.833 172.681 143.338 172.324 143.758 171.88C144.619 170.967 145.091 169.755 145.072 168.5C145.09 167.877 144.985 167.256 144.763 166.674C144.54 166.091 144.205 165.558 143.776 165.106C143.355 164.66 142.846 164.306 142.283 164.064C141.719 163.822 141.112 163.699 140.498 163.7H138.103L138.101 163.702ZM140.498 160.688C144.965 160.688 148.345 164.149 148.345 168.5C148.345 172.851 144.965 176.332 140.498 176.332H135.212C135.162 176.331 135.112 176.321 135.066 176.301C135.019 176.281 134.977 176.252 134.942 176.216C134.907 176.18 134.879 176.137 134.86 176.091C134.842 176.044 134.832 175.994 134.833 175.943V161.092C134.833 160.877 135.003 160.702 135.212 160.702L140.498 160.688V160.688ZM159.859 173.649C161.888 173.655 163.72 172.408 164.501 170.487C164.884 169.549 164.986 168.52 164.796 167.525C164.605 166.53 164.13 165.612 163.428 164.881C162.739 164.163 161.847 163.67 160.872 163.469C159.896 163.268 158.883 163.367 157.965 163.754C156.09 164.546 154.865 166.42 154.862 168.5C154.862 171.336 157.096 173.636 159.861 173.649H159.859ZM159.861 160.333C164.562 160.333 168.157 164.039 168.157 168.5C168.157 172.961 164.562 176.667 159.859 176.667C155.157 176.667 151.593 172.98 151.593 168.5C151.593 164.021 155.188 160.333 159.859 160.333H159.861ZM179.579 173.649C182.345 173.642 184.582 171.339 184.58 168.504C184.576 165.666 182.334 163.368 179.569 163.367C176.802 163.367 174.558 165.663 174.554 168.5C174.554 169.867 175.083 171.177 176.026 172.142C176.487 172.618 177.039 172.997 177.649 173.255C178.259 173.514 178.915 173.648 179.577 173.649H179.579ZM179.577 160.333C184.265 160.333 187.859 164.021 187.859 168.5C187.859 172.98 184.25 176.667 179.577 176.667C174.906 176.667 171.281 172.98 171.281 168.5C171.281 164.021 174.876 160.333 179.577 160.333ZM198.823 163.702H195.443V167.839H198.823C199.09 167.851 199.356 167.808 199.606 167.712C199.856 167.617 200.083 167.472 200.275 167.285C200.666 166.906 200.888 166.381 200.893 165.828C200.903 165.548 200.856 165.269 200.755 165.007C200.654 164.745 200.502 164.507 200.306 164.305C200.115 164.107 199.884 163.952 199.628 163.848C199.372 163.745 199.098 163.696 198.823 163.705V163.702ZM192.174 161.092C192.174 160.877 192.345 160.702 192.554 160.702H198.917C201.95 160.702 204.145 162.982 204.145 165.844C204.169 167.78 203.111 169.559 201.423 170.425L204.358 175.745C204.399 175.807 204.421 175.878 204.424 175.951C204.427 176.024 204.409 176.097 204.373 176.161C204.337 176.224 204.285 176.275 204.221 176.309C204.157 176.343 204.085 176.358 204.013 176.352H201.438C201.367 176.353 201.296 176.333 201.235 176.296C201.174 176.259 201.125 176.205 201.093 176.141L198.265 170.876H195.431V175.931C195.432 175.982 195.423 176.032 195.404 176.079C195.385 176.126 195.358 176.169 195.322 176.205C195.287 176.241 195.245 176.27 195.199 176.29C195.152 176.31 195.103 176.32 195.052 176.321H192.571C192.52 176.32 192.471 176.31 192.424 176.29C192.378 176.27 192.336 176.241 192.301 176.205C192.265 176.169 192.238 176.126 192.219 176.079C192.2 176.032 192.191 175.982 192.192 175.931L192.175 161.093L192.174 161.092ZM212.667 163.775V173.389H215.062C215.674 173.381 216.277 173.25 216.838 173.004C217.398 172.759 217.903 172.403 218.323 171.959C219.185 171.048 219.657 169.836 219.639 168.582C219.659 167.958 219.555 167.336 219.333 166.753C219.112 166.169 218.777 165.635 218.348 165.182C217.925 164.735 217.416 164.38 216.851 164.139C216.286 163.897 215.678 163.774 215.063 163.776L212.667 163.775V163.775ZM215.062 160.757C219.529 160.757 222.909 164.222 222.909 168.582C222.909 172.942 219.529 176.407 215.062 176.407H209.792C209.742 176.406 209.692 176.395 209.645 176.375C209.599 176.355 209.557 176.327 209.522 176.29C209.486 176.254 209.459 176.211 209.44 176.164C209.421 176.117 209.412 176.067 209.413 176.017V161.167C209.413 160.95 209.583 160.776 209.792 160.776L215.063 160.757H215.062ZM232.877 164.58L231.023 169.721H234.728L232.877 164.58V164.58ZM229.935 172.626L228.722 176.049C228.697 176.129 228.647 176.199 228.578 176.248C228.51 176.297 228.427 176.321 228.343 176.317H225.71C225.643 176.324 225.576 176.312 225.515 176.283C225.454 176.254 225.402 176.209 225.364 176.154C225.326 176.097 225.303 176.032 225.297 175.964C225.291 175.896 225.303 175.827 225.331 175.765L231.02 160.928C231.046 160.85 231.097 160.783 231.166 160.736C231.234 160.69 231.316 160.667 231.398 160.672H234.344C234.427 160.667 234.509 160.69 234.577 160.736C234.646 160.782 234.698 160.85 234.724 160.928L240.412 175.765C240.441 175.827 240.452 175.896 240.446 175.964C240.44 176.032 240.417 176.097 240.378 176.154C240.34 176.209 240.288 176.254 240.227 176.282C240.167 176.311 240.099 176.323 240.032 176.316H237.401C237.317 176.32 237.234 176.295 237.165 176.247C237.097 176.198 237.046 176.128 237.022 176.047L235.808 172.625H229.935V172.626ZM243.464 164.914C243.464 162.457 245.535 160.333 248.804 160.333C250.565 160.294 252.269 160.952 253.546 162.165C253.585 162.202 253.616 162.246 253.637 162.296C253.659 162.345 253.67 162.398 253.67 162.451C253.67 162.505 253.659 162.558 253.637 162.607C253.616 162.656 253.585 162.7 253.546 162.737L252.088 164.222C252.053 164.258 252.012 164.287 251.965 164.307C251.919 164.326 251.87 164.336 251.819 164.336C251.769 164.336 251.72 164.326 251.673 164.307C251.627 164.287 251.585 164.258 251.55 164.222C250.864 163.579 249.962 163.214 249.02 163.199C247.713 163.199 246.746 163.978 246.746 164.876C246.746 167.78 254.474 166.105 254.474 171.693C254.47 174.524 252.384 176.667 248.695 176.667C247.671 176.677 246.655 176.482 245.708 176.092C244.761 175.702 243.902 175.125 243.182 174.396C243.143 174.359 243.112 174.315 243.091 174.266C243.07 174.217 243.059 174.164 243.059 174.11C243.059 174.057 243.07 174.004 243.091 173.954C243.112 173.905 243.143 173.861 243.182 173.824L244.592 172.377C244.627 172.339 244.67 172.309 244.717 172.288C244.765 172.268 244.816 172.257 244.867 172.257C244.919 172.257 244.97 172.268 245.017 172.288C245.065 172.309 245.107 172.339 245.142 172.377C246.03 173.257 247.226 173.757 248.475 173.77C250.109 173.77 251.186 172.876 251.186 171.755C251.186 168.85 243.462 170.527 243.462 164.937L243.464 164.914ZM268.488 161.073V166.944H261.947V161.073C261.947 161.022 261.938 160.972 261.919 160.925C261.901 160.879 261.873 160.836 261.838 160.8C261.803 160.764 261.761 160.735 261.714 160.715C261.668 160.695 261.618 160.685 261.568 160.684H259.087C259.036 160.685 258.987 160.695 258.94 160.715C258.894 160.735 258.852 160.764 258.817 160.8C258.782 160.836 258.754 160.879 258.735 160.925C258.716 160.972 258.707 161.022 258.708 161.073V175.907C258.708 176.122 258.879 176.297 259.087 176.297H261.568C261.776 176.297 261.947 176.122 261.947 175.907V169.942H268.483V175.907C268.483 176.122 268.654 176.297 268.862 176.297H271.343C271.552 176.297 271.722 176.122 271.722 175.907V161.073C271.723 161.022 271.713 160.972 271.695 160.925C271.676 160.879 271.648 160.836 271.613 160.8C271.578 160.764 271.536 160.735 271.49 160.715C271.443 160.695 271.394 160.685 271.343 160.684H268.862C268.761 160.687 268.665 160.729 268.595 160.801C268.525 160.874 268.487 160.972 268.488 161.073V161.073ZM120.906 162.664C119.185 159.474 115.818 157.488 112.156 157.5H84.4507C84.2636 157.501 84.0808 157.557 83.9252 157.661C83.7696 157.764 83.648 157.912 83.5756 158.084C83.5042 158.256 83.4856 158.444 83.5222 158.627C83.5588 158.809 83.6489 158.976 83.7809 159.106L89.8162 165.095C90.3491 165.625 91.0751 165.922 91.8305 165.922H111.362C112.754 165.908 113.892 167.01 113.906 168.383C113.921 169.755 112.805 170.88 111.413 170.893H97.9477C97.7604 170.893 97.5774 170.948 97.4213 171.052C97.2652 171.155 97.1431 171.303 97.0701 171.475C96.9981 171.647 96.979 171.836 97.0154 172.018C97.0517 172.201 97.1419 172.368 97.2742 172.499L103.313 178.493C103.849 179.023 104.573 179.32 105.327 179.319H111.418C119.341 179.319 125.333 170.959 120.906 162.66" fill="#FF3008"/>
</g>
<defs>
<clipPath id="clip0_1505_11034">
<rect width="188" height="48" fill="white" transform="translate(83.5 142.5)"/>
</clipPath>
</defs>
</svg>
