<svg width="354" height="333" viewBox="0 0 354 333" fill="none" xmlns="http://www.w3.org/2000/svg">
<rect width="354" height="332" transform="translate(0 0.5)" fill="white"/>
<g clip-path="url(#clip0_1505_11014)">
<path d="M259.358 164.334V161.452H255.779V156.972L255.659 157.009L252.298 158.038L252.231 158.058V161.452H246.926V159.561C246.926 158.681 247.123 158.007 247.511 157.558C247.896 157.114 248.448 156.888 249.15 156.888C249.656 156.888 250.179 157.007 250.706 157.242L250.838 157.301V154.266L250.776 154.243C250.284 154.066 249.616 153.978 248.788 153.978C247.744 153.978 246.796 154.205 245.969 154.655C245.141 155.106 244.49 155.749 244.034 156.567C243.58 157.385 243.349 158.329 243.349 159.373V161.452H240.857V164.334H243.349V176.474H246.926V164.334H252.231V172.049C252.231 175.226 253.73 176.836 256.686 176.836C257.171 176.836 257.683 176.779 258.204 176.668C258.736 176.553 259.098 176.439 259.311 176.317L259.358 176.289V173.381L259.212 173.477C259.018 173.606 258.776 173.712 258.493 173.791C258.208 173.871 257.971 173.911 257.786 173.911C257.094 173.911 256.582 173.724 256.264 173.356C255.942 172.984 255.779 172.335 255.779 171.426V164.334H259.358ZM232.869 173.911C231.571 173.911 230.547 173.481 229.826 172.633C229.1 171.78 228.732 170.565 228.732 169.021C228.732 167.429 229.1 166.182 229.826 165.315C230.548 164.453 231.562 164.016 232.84 164.016C234.08 164.016 235.068 164.433 235.775 165.258C236.486 166.086 236.846 167.323 236.846 168.934C236.846 170.566 236.507 171.819 235.838 172.657C235.174 173.489 234.175 173.911 232.869 173.911V173.911ZM233.028 161.09C230.551 161.09 228.584 161.816 227.181 163.248C225.779 164.679 225.068 166.66 225.068 169.137C225.068 171.489 225.762 173.38 227.131 174.759C228.499 176.137 230.362 176.836 232.666 176.836C235.067 176.836 236.995 176.1 238.397 174.649C239.799 173.199 240.51 171.236 240.51 168.818C240.51 166.429 239.843 164.523 238.528 163.154C237.212 161.785 235.362 161.09 233.028 161.09V161.09ZM219.301 161.09C217.616 161.09 216.222 161.521 215.158 162.371C214.086 163.226 213.543 164.347 213.543 165.704C213.543 166.409 213.66 167.035 213.891 167.567C214.123 168.1 214.483 168.569 214.96 168.963C215.434 169.354 216.165 169.763 217.134 170.179C217.949 170.515 218.557 170.798 218.943 171.022C219.32 171.241 219.588 171.461 219.739 171.675C219.886 171.885 219.96 172.172 219.96 172.527C219.96 173.536 219.204 174.027 217.649 174.027C217.072 174.027 216.415 173.907 215.694 173.669C214.978 173.435 214.303 173.093 213.691 172.654L213.543 172.547V175.991L213.597 176.017C214.103 176.25 214.741 176.447 215.494 176.602C216.244 176.757 216.926 176.836 217.519 176.836C219.347 176.836 220.82 176.403 221.894 175.549C222.975 174.688 223.523 173.54 223.523 172.137C223.523 171.124 223.228 170.256 222.647 169.555C222.069 168.861 221.067 168.223 219.669 167.66C218.555 167.213 217.842 166.841 217.548 166.557C217.264 166.281 217.12 165.892 217.12 165.4C217.12 164.963 217.298 164.613 217.663 164.329C218.031 164.044 218.543 163.9 219.185 163.9C219.781 163.9 220.391 163.994 220.997 164.178C221.603 164.363 222.136 164.61 222.58 164.912L222.726 165.012V161.745L222.67 161.721C222.26 161.545 221.719 161.395 221.063 161.273C220.409 161.151 219.817 161.09 219.301 161.09V161.09ZM204.218 173.911C202.92 173.911 201.896 173.481 201.175 172.633C200.449 171.78 200.081 170.566 200.081 169.021C200.081 167.429 200.449 166.182 201.175 165.315C201.897 164.453 202.91 164.016 204.189 164.016C205.429 164.016 206.416 164.433 207.124 165.258C207.835 166.086 208.195 167.323 208.195 168.934C208.195 170.566 207.856 171.819 207.187 172.657C206.523 173.489 205.524 173.911 204.218 173.911V173.911ZM204.377 161.09C201.9 161.09 199.932 161.816 198.53 163.248C197.128 164.679 196.417 166.66 196.417 169.137C196.417 171.49 197.111 173.38 198.48 174.759C199.848 176.137 201.711 176.836 204.015 176.836C206.416 176.836 208.344 176.1 209.747 174.649C211.148 173.199 211.859 171.236 211.859 168.818C211.859 166.429 211.192 164.523 209.877 163.154C208.561 161.785 206.71 161.09 204.377 161.09V161.09ZM190.987 164.054V161.452H187.454V176.474H190.987V168.79C190.987 167.483 191.283 166.41 191.868 165.599C192.445 164.798 193.214 164.392 194.153 164.392C194.471 164.392 194.829 164.444 195.216 164.548C195.599 164.651 195.876 164.763 196.04 164.881L196.188 164.989V161.426L196.131 161.402C195.802 161.262 195.336 161.192 194.747 161.192C193.859 161.192 193.065 161.477 192.384 162.039C191.787 162.532 191.355 163.209 191.025 164.054H190.987ZM181.126 161.09C179.505 161.09 178.059 161.438 176.829 162.123C175.597 162.81 174.643 163.79 173.995 165.037C173.349 166.281 173.022 167.734 173.022 169.354C173.022 170.774 173.339 172.076 173.968 173.224C174.596 174.374 175.486 175.273 176.612 175.897C177.736 176.52 179.036 176.836 180.475 176.836C182.154 176.836 183.588 176.501 184.737 175.838L184.783 175.812V172.575L184.635 172.683C184.114 173.062 183.532 173.365 182.906 173.583C182.282 173.801 181.712 173.911 181.213 173.911C179.827 173.911 178.714 173.477 177.906 172.622C177.096 171.766 176.685 170.563 176.685 169.05C176.685 167.527 177.114 166.294 177.957 165.383C178.799 164.476 179.914 164.016 181.271 164.016C182.433 164.016 183.565 164.409 184.635 165.186L184.783 165.293V161.882L184.736 161.855C184.333 161.63 183.783 161.443 183.101 161.302C182.422 161.161 181.757 161.09 181.126 161.09V161.09ZM170.588 161.452H167.054V176.474H170.588V161.452V161.452ZM168.857 155.053C168.276 155.053 167.769 155.251 167.352 155.643C166.933 156.037 166.721 156.532 166.721 157.117C166.721 157.692 166.931 158.178 167.345 158.561C167.757 158.943 168.266 159.137 168.858 159.137C169.449 159.137 169.96 158.943 170.376 158.562C170.796 158.178 171.008 157.692 171.008 157.117C171.008 156.553 170.801 156.062 170.394 155.659C169.986 155.257 169.469 155.053 168.857 155.053ZM160.041 160.344V176.474H163.647V155.513H158.656L152.312 171.082L146.156 155.513H140.962V176.473H144.351V160.342H144.467L150.968 176.474H153.525L159.925 160.344H160.041V160.344Z" fill="#706D6E"/>
<path d="M112.122 165.131H95.5V148.509H112.122V165.131Z" fill="#F1511B"/>
<path d="M130.476 165.131H113.854V148.509H130.476V165.131Z" fill="#80CC28"/>
<path d="M112.122 183.491H95.5V166.869H112.122V183.491Z" fill="#00ADEF"/>
<path d="M130.476 183.491H113.854V166.869H130.476V183.491Z" fill="#FBBC09"/>
</g>
<defs>
<clipPath id="clip0_1505_11014">
<rect width="164" height="48" fill="white" transform="translate(95.5 142.5)"/>
</clipPath>
</defs>
</svg>
