<svg width="332" height="333" viewBox="0 0 332 333" fill="none" xmlns="http://www.w3.org/2000/svg">
<rect width="332" height="332" transform="translate(0 0.5)" fill="white"/>
<g clip-path="url(#clip0_1505_10997)">
<path fill-rule="evenodd" clip-rule="evenodd" d="M129.445 154.5H112.19C111.477 154.5 110.794 154.783 110.289 155.287C109.785 155.79 109.501 156.474 109.5 157.187V174.415C109.498 174.768 109.566 175.118 109.7 175.446C109.834 175.773 110.031 176.07 110.28 176.321C110.528 176.572 110.824 176.772 111.15 176.909C111.476 177.045 111.826 177.116 112.18 177.118H129.448C129.801 177.117 130.151 177.047 130.477 176.912C130.803 176.776 131.1 176.577 131.349 176.327C131.599 176.077 131.796 175.78 131.931 175.454C132.066 175.127 132.135 174.777 132.135 174.424V157.187C132.134 156.474 131.85 155.791 131.346 155.287C130.842 154.783 130.158 154.5 129.445 154.5V154.5ZM119.262 170.791C119.261 171.029 119.165 171.258 118.996 171.426C118.827 171.594 118.598 171.687 118.359 171.686H114.585C114.348 171.685 114.121 171.59 113.954 171.423C113.787 171.255 113.693 171.028 113.693 170.791V159.569C113.693 159.332 113.787 159.105 113.954 158.937C114.121 158.769 114.348 158.674 114.585 158.673H118.356C118.593 158.674 118.82 158.769 118.988 158.937C119.156 159.104 119.25 159.332 119.251 159.569L119.262 170.791ZM127.962 165.638C127.962 165.876 127.868 166.104 127.7 166.272C127.532 166.44 127.304 166.534 127.067 166.534H123.285C123.048 166.533 122.821 166.439 122.653 166.271C122.485 166.103 122.391 165.876 122.39 165.638V159.569C122.391 159.332 122.485 159.104 122.653 158.937C122.821 158.769 123.048 158.674 123.285 158.673H127.056C127.293 158.674 127.52 158.769 127.687 158.937C127.854 159.105 127.948 159.332 127.948 159.569L127.962 165.638Z" fill="url(#paint0_linear_1505_10997)"/>
<path d="M156.397 156.157V160.531H151.216V177.118H146.219V160.531H141.038V156.157H156.397Z" fill="#293856"/>
<path d="M162.755 177.118H158.136V160.802H162.755V163.926C163.632 161.725 165.036 160.416 167.534 160.575V165.408C164.27 165.155 162.755 165.952 162.755 168.567V177.118Z" fill="#293856"/>
<path d="M192.769 177.245C189.742 177.245 187.838 175.794 187.838 172.364V154.5H192.49V171.725C192.49 172.714 193.141 173.066 193.94 173.066C194.17 173.071 194.401 173.06 194.629 173.033V177.054C194.021 177.203 193.395 177.267 192.769 177.245Z" fill="#293856"/>
<path d="M202.474 177.245C199.446 177.245 197.539 175.794 197.539 172.364V154.5H202.191V171.725C202.191 172.714 202.847 173.066 203.659 173.066C203.888 173.071 204.117 173.06 204.345 173.033V177.054C203.733 177.204 203.103 177.268 202.474 177.245V177.245Z" fill="#293856"/>
<path d="M206.572 168.953C206.572 163.913 209.473 160.465 214.469 160.465C219.464 160.465 222.305 163.902 222.305 168.953C222.305 174.004 219.433 177.5 214.47 177.5C209.506 177.5 206.572 173.96 206.572 168.953ZM211.101 168.953C211.101 171.407 212.131 173.354 214.47 173.354C216.808 173.354 217.78 171.407 217.78 168.953C217.78 166.498 216.782 164.602 214.47 164.602C212.157 164.602 211.101 166.495 211.101 168.953Z" fill="#293856"/>
<path d="M173.769 170.428C175.063 170.57 176.363 170.646 177.664 170.656C181.202 170.656 184.19 169.706 184.19 166.28C184.19 162.955 181.119 160.457 177.424 160.457C172.45 160.457 169.263 164.065 169.263 169.105C169.263 174.337 172.011 177.444 178.222 177.444C180.065 177.459 181.894 177.132 183.617 176.48V172.571C182.022 173.082 180.227 173.59 178.385 173.59C175.912 173.59 174.188 172.777 173.769 170.428ZM177.33 164.018C178.639 164.018 179.69 164.906 179.69 166.121C179.69 167.682 178.042 168.173 176.141 168.173C175.332 168.169 174.525 168.105 173.726 167.981C173.786 167.219 174.005 166.478 174.368 165.805C174.659 165.272 175.087 164.827 175.608 164.514C176.128 164.201 176.723 164.033 177.33 164.026V164.018Z" fill="#293856"/>
</g>
<defs>
<linearGradient id="paint0_linear_1505_10997" x1="120.816" y1="177.118" x2="120.816" y2="154.5" gradientUnits="userSpaceOnUse">
<stop stop-color="#0052CC"/>
<stop offset="1" stop-color="#2684FF"/>
</linearGradient>
<clipPath id="clip0_1505_10997">
<rect width="113" height="48" fill="white" transform="translate(109.5 142.5)"/>
</clipPath>
</defs>
</svg>
