<svg width="40" height="40" viewBox="0 0 40 40" fill="none" xmlns="http://www.w3.org/2000/svg">
<path d="M19.9861 39.3364C30.6661 39.3364 39.3239 30.6786 39.3239 19.9986C39.3239 9.31857 30.6661 0.660706 19.9861 0.660706C9.30606 0.660706 0.648193 9.31857 0.648193 19.9986C0.648193 30.6786 9.30606 39.3364 19.9861 39.3364Z" fill="#282830"/>
<path d="M30.6699 13.3734C29.9991 13.6756 29.2589 13.8613 28.5382 13.9805C28.8819 13.9223 29.3837 13.3014 29.5861 13.0519C29.8938 12.6693 30.1487 12.2313 30.2929 11.7601C30.3123 11.7241 30.3261 11.6769 30.2873 11.6492C30.2402 11.6298 30.2097 11.6409 30.1737 11.6575C29.367 12.09 28.5327 12.4032 27.6456 12.625C27.5708 12.6444 27.5181 12.625 27.4709 12.5779C27.3961 12.4947 27.3268 12.4171 27.2492 12.3505C26.8749 12.0318 26.4758 11.785 26.0239 11.5993C25.4307 11.3581 24.7848 11.2556 24.1445 11.2972C23.5235 11.3387 22.9137 11.5134 22.3621 11.8017C21.8104 12.09 21.317 12.4919 20.9234 12.977C20.5187 13.4788 20.2165 14.0692 20.064 14.6957C19.9171 15.3 19.9282 15.8988 20.0197 16.5114C20.0335 16.614 20.0252 16.6278 19.931 16.614C16.4576 16.0984 13.5774 14.8537 11.2405 12.1898C11.138 12.0733 11.0853 12.0733 11.0022 12.1981C9.97929 13.731 10.4755 16.1954 11.7534 17.404C11.9225 17.5648 12.0999 17.7256 12.2884 17.8753C12.2191 17.8891 11.368 17.7976 10.6113 17.404C10.5087 17.3402 10.4589 17.3763 10.4505 17.4927C10.4422 17.659 10.456 17.8115 10.4782 17.9917C10.675 19.5468 11.7506 20.9827 13.2254 21.5427C13.4 21.6175 13.5941 21.6813 13.7826 21.7118C13.4471 21.7866 13.1006 21.8393 12.1387 21.7617C12.0195 21.7395 11.9724 21.7977 12.0195 21.9141C12.743 23.8879 14.3064 24.4728 15.4762 24.8082C15.6315 24.8359 15.7895 24.8359 15.9475 24.8719C15.9392 24.8858 15.9281 24.8858 15.9198 24.8997C15.5317 25.4901 14.1873 25.9308 13.5608 26.1498C12.4215 26.549 11.1796 26.7264 9.97653 26.6072C9.78525 26.5795 9.74367 26.5823 9.691 26.6072C9.63833 26.6405 9.68544 26.6849 9.74642 26.7348C9.99037 26.8955 10.2398 27.0397 10.4921 27.1783C11.2572 27.583 12.0556 27.9073 12.8872 28.1374C17.1922 29.3266 22.0433 28.4534 25.2755 25.2406C27.8147 22.718 28.7045 19.2391 28.7045 15.7574C28.7045 15.6216 28.8653 15.5467 28.9623 15.4747C29.6221 14.9785 30.1543 14.3852 30.6477 13.7227C30.7586 13.573 30.7586 13.44 30.7586 13.3873V13.3679C30.7586 13.3124 30.7586 13.3291 30.6727 13.3679L30.6699 13.3734Z" fill="white"/>
</svg>
