<svg width="40" height="40" viewBox="0 0 40 40" fill="none" xmlns="http://www.w3.org/2000/svg">
<path d="M20.1621 39.0886C30.8421 39.0886 39.5 30.4307 39.5 19.7507C39.5 9.0707 30.8421 0.412842 20.1621 0.412842C9.48208 0.412842 0.824219 9.0707 0.824219 19.7507C0.824219 30.4307 9.48208 39.0886 20.1621 39.0886Z" fill="#282830"/>
<path d="M30.5154 16.9867C30.5154 14.4225 28.4364 12.3435 25.8722 12.3435H13.9967C11.4326 12.3435 9.35352 14.4225 9.35352 16.9867V22.5114C9.35352 25.0755 11.4326 27.1546 13.9967 27.1546H25.8722C28.4364 27.1546 30.5154 25.0755 30.5154 22.5114V16.9867ZM23.5326 20.1635L18.2075 22.7969C17.9995 22.9106 17.29 22.7581 17.29 22.5225V17.1142C17.29 16.873 18.0051 16.7234 18.213 16.8426L23.3109 19.6146C23.5243 19.7366 23.7488 20.0443 23.5326 20.1635Z" fill="white"/>
</svg>
