<svg width="39" height="40" viewBox="0 0 39 40" fill="none" xmlns="http://www.w3.org/2000/svg">
<path d="M38.9697 19.9986C38.9697 9.31784 30.3126 0.660706 19.6318 0.660706C8.95108 0.660706 0.293945 9.31784 0.293945 19.9986C0.293945 29.6509 7.36549 37.651 16.6103 39.1008V25.587H11.701V19.9958H16.6103V15.7352C16.6103 10.8896 19.496 8.21179 23.9146 8.21179C26.0297 8.21179 28.2446 8.58879 28.2446 8.58879V13.3484H25.8052C23.4018 13.3484 22.6533 14.8398 22.6533 16.3672V19.9958H28.0173L27.1607 25.587H22.6561V39.1008C31.9009 37.651 38.9725 29.6509 38.9725 19.9986H38.9697Z" fill="#282830"/>
<path d="M27.1579 25.5899L28.0145 19.9987H22.6506V16.3701C22.6506 14.8399 23.3991 13.3513 25.8024 13.3513H28.2419V8.59166C28.2419 8.59166 26.0297 8.21466 23.9119 8.21466C19.4932 8.21466 16.6075 10.8925 16.6075 15.738V19.9987H11.6982V25.5899H16.6075V39.1037C17.5916 39.2589 18.6006 39.3393 19.6291 39.3393C20.6575 39.3393 21.6666 39.2589 22.6506 39.1037V25.5899H27.1552H27.1579Z" fill="white"/>
</svg>
