<svg width="39" height="40" viewBox="0 0 39 40" fill="none" xmlns="http://www.w3.org/2000/svg">
<path d="M19.6618 39.3365C30.3419 39.3365 38.9997 30.6786 38.9997 19.9986C38.9997 9.31857 30.3419 0.660706 19.6618 0.660706C8.98184 0.660706 0.323975 9.31857 0.323975 19.9986C0.323975 30.6786 8.98184 39.3365 19.6618 39.3365Z" fill="#282830"/>
<path d="M30.0154 17.2346C30.0154 14.6704 27.9364 12.5914 25.3722 12.5914H13.4967C10.9326 12.5914 8.85352 14.6704 8.85352 17.2346V22.7593C8.85352 25.3234 10.9326 27.4025 13.4967 27.4025H25.3722C27.9364 27.4025 30.0154 25.3234 30.0154 22.7593V17.2346ZM23.0326 20.4113L17.7075 23.0448C17.4995 23.1584 16.79 23.006 16.79 22.7704V17.3621C16.79 17.1209 17.5051 16.9712 17.713 17.0904L22.8109 19.8625C23.0243 19.9844 23.2488 20.2921 23.0326 20.4113Z" fill="white"/>
</svg>
