<svg width="40" height="40" viewBox="0 0 40 40" fill="none" xmlns="http://www.w3.org/2000/svg">
<path d="M20.3103 39.3364C30.9903 39.3364 39.6482 30.6786 39.6482 19.9986C39.6482 9.31857 30.9903 0.660706 20.3103 0.660706C9.63027 0.660706 0.972412 9.31857 0.972412 19.9986C0.972412 30.6786 9.63027 39.3364 20.3103 39.3364Z" fill="#282830"/>
<path d="M26.3125 12.683C25.5779 12.683 24.9819 13.279 24.9819 14.0136C24.9819 14.7482 25.5779 15.3442 26.3125 15.3442C27.0471 15.3442 27.6431 14.7482 27.6431 14.0136C27.6431 13.279 27.0471 12.683 26.3125 12.683Z" fill="white"/>
<path d="M20.4025 14.3878C17.3228 14.3878 14.8196 16.8937 14.8196 19.9707C14.8196 23.0477 17.3256 25.5536 20.4025 25.5536C23.4795 25.5536 25.9854 23.0477 25.9854 19.9707C25.9854 16.8937 23.4795 14.3878 20.4025 14.3878ZM20.4025 23.5494C18.4288 23.5494 16.8265 21.9444 16.8265 19.9735C16.8265 18.0025 18.4316 16.3975 20.4025 16.3975C22.3735 16.3975 23.9785 18.0025 23.9785 19.9735C23.9785 21.9444 22.3735 23.5494 20.4025 23.5494Z" fill="white"/>
<path d="M24.8344 31.3084H15.7809C12.0247 31.3084 8.96997 28.2536 8.96997 24.4975V15.4439C8.96997 11.6878 12.0247 8.633 15.7809 8.633H24.8344C28.5906 8.633 31.6454 11.6878 31.6454 15.4439V24.4975C31.6454 28.2536 28.5906 31.3084 24.8344 31.3084ZM15.7809 10.7675C13.2029 10.7675 11.1044 12.8659 11.1044 15.4439V24.4975C11.1044 27.0755 13.2029 29.1739 15.7809 29.1739H24.8344C27.4125 29.1739 29.5109 27.0755 29.5109 24.4975V15.4439C29.5109 12.8632 27.4125 10.7675 24.8344 10.7675H15.7809Z" fill="white"/>
</svg>
