<svg width="24" height="24" viewBox="0 0 24 24" fill="none" xmlns="http://www.w3.org/2000/svg">
<path d="M18.313 4.68311C17.5784 4.68311 16.9824 5.27909 16.9824 6.01369C16.9824 6.74829 17.5784 7.34428 18.313 7.34428C19.0476 7.34428 19.6436 6.74829 19.6436 6.01369C19.6436 5.27909 19.0476 4.68311 18.313 4.68311Z" fill="white"/>
<path d="M12.4033 6.38782C9.32352 6.38782 6.82031 8.89376 6.82031 11.9707C6.82031 15.0477 9.32629 17.5537 12.4033 17.5537C15.4803 17.5537 17.9862 15.0477 17.9862 11.9707C17.9862 8.89376 15.4803 6.38782 12.4033 6.38782ZM12.4033 15.5495C10.4296 15.5495 8.82728 13.9444 8.82728 11.9735C8.82728 10.0026 10.4323 8.39756 12.4033 8.39756C14.3742 8.39756 15.9792 10.0026 15.9792 11.9735C15.9792 13.9444 14.3742 15.5495 12.4033 15.5495Z" fill="white"/>
<path d="M16.8352 23.3085H7.7816C4.02546 23.3085 0.970703 20.2537 0.970703 16.4975V7.444C0.970703 3.68786 4.02546 0.633057 7.7816 0.633057H16.8352C20.5913 0.633057 23.6461 3.68786 23.6461 7.444V16.4975C23.6461 20.2537 20.5913 23.3085 16.8352 23.3085ZM7.7816 2.76754C5.20359 2.76754 3.10517 4.86599 3.10517 7.444V16.4975C3.10517 19.0756 5.20359 21.174 7.7816 21.174H16.8352C19.4132 21.174 21.5116 19.0756 21.5116 16.4975V7.444C21.5116 4.86321 19.4132 2.76754 16.8352 2.76754H7.7816Z" fill="white"/>
</svg>
