<svg width="40" height="40" viewBox="0 0 40 40" fill="none" xmlns="http://www.w3.org/2000/svg">
<path d="M19.9477 39.0886C30.6278 39.0886 39.2856 30.4307 39.2856 19.7507C39.2856 9.0707 30.6278 0.412842 19.9477 0.412842C9.26773 0.412842 0.609863 9.0707 0.609863 19.7507C0.609863 30.4307 9.26773 39.0886 19.9477 39.0886Z" fill="#282830"/>
<path d="M25.9497 12.4351C25.2151 12.4351 24.6191 13.031 24.6191 13.7656C24.6191 14.5002 25.2151 15.0962 25.9497 15.0962C26.6843 15.0962 27.2803 14.5002 27.2803 13.7656C27.2803 13.031 26.6843 12.4351 25.9497 12.4351Z" fill="white"/>
<path d="M20.04 14.1399C16.9602 14.1399 14.457 16.6458 14.457 19.7228C14.457 22.7998 16.963 25.3057 20.04 25.3057C23.117 25.3057 25.6229 22.7998 25.6229 19.7228C25.6229 16.6458 23.117 14.1399 20.04 14.1399ZM20.04 23.3015C18.0663 23.3015 16.464 21.6965 16.464 19.7256C16.464 17.7547 18.0691 16.1496 20.04 16.1496C22.0109 16.1496 23.6159 17.7547 23.6159 19.7256C23.6159 21.6965 22.0109 23.3015 20.04 23.3015Z" fill="white"/>
<path d="M24.4719 31.0604H15.4183C11.6622 31.0604 8.60742 28.0056 8.60742 24.2495V15.196C8.60742 11.4398 11.6622 8.38501 15.4183 8.38501H24.4719C28.228 8.38501 31.2829 11.4398 31.2829 15.196V24.2495C31.2829 28.0056 28.228 31.0604 24.4719 31.0604V31.0604ZM15.4183 10.5195C12.8403 10.5195 10.7419 12.6179 10.7419 15.196V24.2495C10.7419 26.8275 12.8403 28.926 15.4183 28.926H24.4719C27.0499 28.926 29.1483 26.8275 29.1483 24.2495V15.196C29.1483 12.6152 27.0499 10.5195 24.4719 10.5195H15.4183Z" fill="white"/>
</svg>
