<svg width="40" height="40" viewBox="0 0 40 40" fill="none" xmlns="http://www.w3.org/2000/svg">
<path d="M20.0552 39.0886C30.7352 39.0886 39.393 30.4307 39.393 19.7507C39.393 9.0707 30.7352 0.412842 20.0552 0.412842C9.37515 0.412842 0.717285 9.0707 0.717285 19.7507C0.717285 30.4307 9.37515 39.0886 20.0552 39.0886Z" fill="#282830"/>
<path d="M30.739 13.1256C30.0682 13.4277 29.328 13.6135 28.6073 13.7327C28.951 13.6744 29.4528 13.0535 29.6552 12.804C29.9629 12.4215 30.2178 11.9835 30.362 11.5122C30.3814 11.4762 30.3952 11.4291 30.3564 11.4014C30.3093 11.3819 30.2788 11.393 30.2428 11.4097C29.4361 11.8421 28.6018 12.1553 27.7147 12.3771C27.6399 12.3965 27.5872 12.3771 27.54 12.33C27.4652 12.2468 27.3959 12.1692 27.3183 12.1027C26.944 11.7839 26.5449 11.5372 26.093 11.3514C25.4998 11.1103 24.8539 11.0077 24.2136 11.0493C23.5926 11.0909 22.9828 11.2655 22.4312 11.5538C21.8795 11.8421 21.3861 12.2441 20.9925 12.7292C20.5878 13.2309 20.2856 13.8214 20.1331 14.4478C19.9862 15.0521 19.9973 15.6509 20.0888 16.2635C20.1026 16.3661 20.0943 16.38 20.0001 16.3661C16.5267 15.8505 13.6465 14.6058 11.3096 11.9419C11.2071 11.8255 11.1544 11.8255 11.0713 11.9502C10.0484 13.4832 10.5446 15.9475 11.8225 17.1561C11.9916 17.3169 12.169 17.4777 12.3575 17.6274C12.2882 17.6413 11.4371 17.5498 10.6804 17.1561C10.5778 17.0924 10.5279 17.1284 10.5196 17.2448C10.5113 17.4112 10.5251 17.5636 10.5473 17.7438C10.7441 19.2989 11.8197 20.7349 13.2945 21.2948C13.4691 21.3697 13.6631 21.4334 13.8516 21.4639C13.5162 21.5388 13.1697 21.5914 12.2078 21.5138C12.0886 21.4916 12.0415 21.5499 12.0886 21.6663C12.8121 23.64 14.3755 24.2249 15.5453 24.5603C15.7006 24.588 15.8586 24.588 16.0166 24.6241C16.0083 24.6379 15.9972 24.6379 15.9889 24.6518C15.6008 25.2422 14.2564 25.683 13.6299 25.902C12.4906 26.3012 11.2487 26.4786 10.0456 26.3594C9.85435 26.3317 9.81276 26.3344 9.76009 26.3594C9.70742 26.3926 9.75453 26.437 9.81552 26.4869C10.0595 26.6477 10.3089 26.7918 10.5612 26.9304C11.3263 27.3351 12.1247 27.6595 12.9563 27.8896C17.2613 29.0788 22.1124 28.2056 25.3446 24.9928C27.8838 22.4702 28.7736 18.9912 28.7736 15.5095C28.7736 15.3737 28.9344 15.2989 29.0314 15.2268C29.6912 14.7306 30.2234 14.1374 30.7168 13.4748C30.8277 13.3252 30.8277 13.1921 30.8277 13.1394V13.12C30.8277 13.0646 30.8277 13.0812 30.7418 13.12L30.739 13.1256Z" fill="white"/>
</svg>
