<svg width="42" height="30" viewBox="0 0 42 30" fill="none" xmlns="http://www.w3.org/2000/svg">
<path d="M3 0H18C18.7956 0 19.5587 0.316071 20.1213 0.87868C20.6839 1.44129 21 2.20435 21 3C21 3.79565 20.6839 4.55871 20.1213 5.12132C19.5587 5.68393 18.7956 6 18 6H3C2.20435 6 1.44129 5.68393 0.87868 5.12132C0.316071 4.55871 0 3.79565 0 3C0 2.20435 0.316071 1.44129 0.87868 0.87868C1.44129 0.316071 2.20435 0 3 0ZM24 24H39C39.7956 24 40.5587 24.3161 41.1213 24.8787C41.6839 25.4413 42 26.2044 42 27C42 27.7956 41.6839 28.5587 41.1213 29.1213C40.5587 29.6839 39.7956 30 39 30H24C23.2044 30 22.4413 29.6839 21.8787 29.1213C21.3161 28.5587 21 27.7956 21 27C21 26.2044 21.3161 25.4413 21.8787 24.8787C22.4413 24.3161 23.2044 24 24 24ZM3 12H39C39.7956 12 40.5587 12.3161 41.1213 12.8787C41.6839 13.4413 42 14.2044 42 15C42 15.7956 41.6839 16.5587 41.1213 17.1213C40.5587 17.6839 39.7956 18 39 18H3C2.20435 18 1.44129 17.6839 0.87868 17.1213C0.316071 16.5587 0 15.7956 0 15C0 14.2044 0.316071 13.4413 0.87868 12.8787C1.44129 12.3161 2.20435 12 3 12Z" fill="black"/>
</svg>
