<svg width="23" height="25" viewBox="0 0 23 25" fill="none" xmlns="http://www.w3.org/2000/svg">
<g clip-path="url(#clip0_1499_8194)">
<path d="M18.4375 4.37158H0.5625C0.380164 4.37158 0.205295 4.4506 0.0763641 4.59125C-0.0525672 4.7319 -0.125 4.92267 -0.125 5.12158V20.1216C-0.125 20.3205 -0.0525672 20.5113 0.0763641 20.6519C0.205295 20.7926 0.380164 20.8716 0.5625 20.8716H18.4375C18.6198 20.8716 18.7947 20.7926 18.9236 20.6519C19.0526 20.5113 19.125 20.3205 19.125 20.1216V5.12158C19.125 4.92267 19.0526 4.7319 18.9236 4.59125C18.7947 4.4506 18.6198 4.37158 18.4375 4.37158ZM9.92195 13.9636C9.8013 14.0659 9.65283 14.1215 9.5 14.1215C9.34717 14.1215 9.1987 14.0659 9.07805 13.9636L2.34785 8.2533L3.19176 7.06924L9.5 12.4214L15.8082 7.06924L16.6522 8.2533L9.92195 13.9636Z" fill="#666666"/>
</g>
<defs>
<clipPath id="clip0_1499_8194">
<rect width="22" height="24" fill="white" transform="translate(0.5 0.62207)"/>
</clipPath>
</defs>
</svg>
