<svg width="22" height="18" viewBox="0 0 22 18" fill="none" xmlns="http://www.w3.org/2000/svg">
<path d="M21.6697 2.3735C20.9988 2.67565 20.2587 2.86138 19.538 2.98058C19.8817 2.92237 20.3835 2.30142 20.5858 2.05194C20.8935 1.66939 21.1485 1.23141 21.2926 0.760158C21.312 0.724121 21.3259 0.676998 21.2871 0.649277C21.24 0.629873 21.2095 0.640961 21.1735 0.657593C20.3668 1.09003 19.5324 1.40327 18.6454 1.62504C18.5705 1.64444 18.5178 1.62504 18.4707 1.57792C18.3959 1.49476 18.3265 1.41714 18.2489 1.35061C17.8747 1.03182 17.4755 0.785102 17.0237 0.599374C16.4305 0.358205 15.7846 0.25564 15.1442 0.297221C14.5233 0.338801 13.9135 0.513443 13.3618 0.801737C12.8102 1.09003 12.3168 1.49198 11.9231 1.97709C11.5184 2.47883 11.2162 3.06928 11.0638 3.69577C10.9169 4.30007 10.928 4.89884 11.0194 5.51146C11.0333 5.61403 11.025 5.62789 10.9307 5.61403C7.45733 5.09843 4.57713 3.85377 2.24029 1.18982C2.13772 1.0734 2.08509 1.0734 2.00193 1.19814C0.979041 2.73109 1.47523 5.19545 2.75315 6.40406C2.92224 6.56484 3.09964 6.72563 3.28814 6.87532C3.21883 6.88918 2.3678 6.7977 1.61103 6.40406C1.50846 6.34031 1.45861 6.37634 1.45029 6.49277C1.44198 6.65909 1.4558 6.81156 1.47797 6.99175C1.67479 8.54687 2.75039 9.9828 4.22513 10.5428C4.39977 10.6176 4.59381 10.6814 4.78231 10.7118C4.44689 10.7867 4.10034 10.8394 3.13843 10.7617C3.01923 10.7396 2.97213 10.7978 3.01925 10.9142C3.74276 12.8879 5.30619 13.4728 6.476 13.8082C6.63124 13.836 6.78923 13.836 6.94724 13.872C6.93892 13.8858 6.92787 13.8859 6.91956 13.8997C6.53147 14.4902 5.18702 14.9309 4.56053 15.1499C3.42122 15.5491 2.17936 15.7265 0.976283 15.6073C0.785011 15.5796 0.743422 15.5823 0.690753 15.6073C0.638083 15.6406 0.685195 15.6849 0.74618 15.7348C0.990121 15.8956 1.23959 16.0397 1.49185 16.1783C2.25694 16.5831 3.05533 16.9074 3.88694 17.1375C8.19195 18.3267 13.043 17.4535 16.2753 14.2407C18.8145 11.7181 19.7043 8.23916 19.7043 4.75746C19.7043 4.62163 19.8651 4.54679 19.9621 4.47471C20.6219 3.97852 21.154 3.38529 21.6475 2.72277C21.7584 2.57308 21.7584 2.44002 21.7584 2.38735V2.36795C21.7584 2.31251 21.7584 2.32914 21.6724 2.36795L21.6697 2.3735Z" fill="white"/>
</svg>
