<svg width="39" height="40" viewBox="0 0 39 40" fill="none" xmlns="http://www.w3.org/2000/svg">
<path d="M38.9707 19.9986C38.9707 9.3179 30.3135 0.660767 19.6328 0.660767C8.95206 0.660767 0.294922 9.3179 0.294922 19.9986C0.294922 29.6509 7.36647 37.6511 16.6113 39.1009V25.5871H11.702V19.9959H16.6113V15.7352C16.6113 10.8897 19.497 8.21185 23.9156 8.21185C26.0307 8.21185 28.2456 8.58885 28.2456 8.58885V13.3485H25.8062C23.4028 13.3485 22.6543 14.8398 22.6543 16.3672V19.9959H28.0183L27.1617 25.5871H22.6571V39.1009C31.9019 37.6511 38.9734 29.6509 38.9734 19.9986H38.9707Z" fill="#282830"/>
</svg>
